<ttFont>
    <TTGlyph name="A" xMin="-23" yMin="-5" xMax="620" yMax="660">
      <contour>
        <pt x="617" y="0" on="1"/>
        <pt x="599" y="-5" on="0"/>
        <pt x="576" y="-5" on="1"/>
        <pt x="559" y="-5" on="0"/>
        <pt x="516" y="3" on="0"/>
        <pt x="474" y="30" on="0"/>
        <pt x="438" y="82" on="0"/>
        <pt x="429" y="125" on="1"/>
        <pt x="415" y="190" on="1"/>
        <pt x="135" y="190" on="1"/>
        <pt x="22" y="0" on="1"/>
        <pt x="-23" y="0" on="1"/>
        <pt x="373" y="660" on="1"/>
        <pt x="403" y="660" on="1"/>
        <pt x="529" y="125" on="1"/>
        <pt x="535" y="97" on="0"/>
        <pt x="550" y="58" on="0"/>
        <pt x="571" y="34" on="0"/>
        <pt x="600" y="22" on="0"/>
        <pt x="620" y="20" on="1"/>
      </contour>
      <contour>
        <pt x="157" y="230" on="1"/>
        <pt x="402" y="230" on="1"/>
        <pt x="333" y="520" on="1"/>
      </contour>
    </TTGlyph>
    <TTGlyph name="AE" xMin="-58" yMin="0" xMax="862" yMax="660">
      <contour>
        <pt x="789" y="660" on="1"/>
        <pt x="832" y="660" on="0"/>
        <pt x="862" y="626" on="0"/>
        <pt x="862" y="602" on="1"/>
        <pt x="862" y="599" on="0"/>
        <pt x="861" y="591" on="0"/>
        <pt x="858" y="572" on="0"/>
        <pt x="852" y="536" on="0"/>
        <pt x="847" y="505" on="1"/>
        <pt x="827" y="505" on="1"/>
        <pt x="830" y="521" on="0"/>
        <pt x="830" y="535" on="1"/>
        <pt x="830" y="580" on="0"/>
        <pt x="774" y="620" on="0"/>
        <pt x="722" y="620" on="1"/>
        <pt x="536" y="620" on="1"/>
        <pt x="490" y="360" on="1"/>
        <pt x="760" y="360" on="1"/>
        <pt x="753" y="320" on="1"/>
        <pt x="483" y="320" on="1"/>
        <pt x="434" y="40" on="1"/>
        <pt x="609" y="40" on="1"/>
        <pt x="677" y="40" on="0"/>
        <pt x="765" y="90" on="0"/>
        <pt x="798" y="150" on="1"/>
        <pt x="817" y="145" on="1"/>
        <pt x="765" y="50" on="1"/>
        <pt x="753" y="27" on="0"/>
        <pt x="712" y="0" on="0"/>
        <pt x="682" y="0" on="1"/>
        <pt x="429" y="0" on="1"/>
        <pt x="337" y="0" on="1"/>
        <pt x="370" y="190" on="1"/>
        <pt x="130" y="190" on="1"/>
        <pt x="-8" y="0" on="1"/>
        <pt x="-58" y="0" on="1"/>
        <pt x="428" y="660" on="1"/>
      </contour>
      <contour>
        <pt x="162" y="230" on="1"/>
        <pt x="377" y="230" on="1"/>
        <pt x="445" y="615" on="1"/>
      </contour>
    </TTGlyph>
    <TTGlyph name="Aacute" xMin="-23" yMin="-5" xMax="620" yMax="830">
      <component glyphName="A" x="0" y="0" flags="0x204"/>
      <component glyphName="acute" x="277" y="0" flags="0x4"/>
    </TTGlyph>
    <TTGlyph name="Acircumflex" xMin="-23" yMin="-5" xMax="620" yMax="800">
      <component glyphName="A" x="0" y="0" flags="0x204"/>
      <component glyphName="circumflex" x="161" y="25" flags="0x4"/>
    </TTGlyph>
    <TTGlyph name="Adieresis" xMin="-23" yMin="-5" xMax="620" yMax="790">
      <component glyphName="A" x="0" y="0" flags="0x204"/>
      <component glyphName="dieresis" x="157" y="0" flags="0x4"/>
    </TTGlyph>
    <TTGlyph name="Agrave" xMin="-23" yMin="-5" xMax="620" yMax="830">
      <component glyphName="A" x="0" y="0" flags="0x204"/>
      <component glyphName="grave.alt1" x="239" y="175" flags="0x4"/>
    </TTGlyph>
    <TTGlyph name="Aring" xMin="-23" yMin="-5" xMax="620" yMax="790">
      <contour>
        <pt x="309" y="688" on="1"/>
        <pt x="309" y="707" on="0"/>
        <pt x="326" y="743" on="0"/>
        <pt x="354" y="772" on="0"/>
        <pt x="391" y="790" on="0"/>
        <pt x="411" y="790" on="1"/>
        <pt x="441" y="790" on="0"/>
        <pt x="482" y="747" on="0"/>
        <pt x="482" y="718" on="1"/>
        <pt x="482" y="687" on="0"/>
        <pt x="442" y="639" on="0"/>
        <pt x="412" y="625" on="1"/>
        <pt x="529" y="125" on="1"/>
        <pt x="535" y="97" on="0"/>
        <pt x="550" y="58" on="0"/>
        <pt x="571" y="34" on="0"/>
        <pt x="600" y="22" on="0"/>
        <pt x="620" y="20" on="1"/>
        <pt x="617" y="0" on="1"/>
        <pt x="599" y="-5" on="0"/>
        <pt x="576" y="-5" on="1"/>
        <pt x="559" y="-5" on="0"/>
        <pt x="516" y="3" on="0"/>
        <pt x="474" y="30" on="0"/>
        <pt x="438" y="82" on="0"/>
        <pt x="429" y="125" on="1"/>
        <pt x="415" y="190" on="1"/>
        <pt x="135" y="190" on="1"/>
        <pt x="22" y="0" on="1"/>
        <pt x="-23" y="0" on="1"/>
        <pt x="352" y="625" on="1"/>
        <pt x="336" y="632" on="0"/>
        <pt x="309" y="662" on="0"/>
      </contour>
      <contour>
        <pt x="157" y="230" on="1"/>
        <pt x="402" y="230" on="1"/>
        <pt x="333" y="520" on="1"/>
      </contour>
      <contour>
        <pt x="405" y="755" on="1"/>
        <pt x="383" y="755" on="0"/>
        <pt x="350" y="719" on="0"/>
        <pt x="350" y="695" on="1"/>
        <pt x="350" y="673" on="0"/>
        <pt x="368" y="660" on="1"/>
        <pt x="408" y="660" on="1"/>
        <pt x="422" y="668" on="0"/>
        <pt x="442" y="697" on="0"/>
        <pt x="442" y="716" on="1"/>
        <pt x="442" y="734" on="0"/>
        <pt x="422" y="755" on="0"/>
      </contour>
    </TTGlyph>
    <TTGlyph name="Atilde" xMin="-23" yMin="-5" xMax="620" yMax="795">
      <component glyphName="A" x="0" y="0" flags="0x204"/>
      <component glyphName="tilde" x="188" y="20" flags="0x4"/>
    </TTGlyph>
    <TTGlyph name="B" xMin="59" yMin="0" xMax="587" yMax="660">
      <contour>
        <pt x="204" y="315" on="1"/>
        <pt x="157" y="49" on="1"/>
        <pt x="179" y="42" on="0"/>
        <pt x="227" y="35" on="0"/>
        <pt x="250" y="35" on="1"/>
        <pt x="288" y="35" on="0"/>
        <pt x="365" y="54" on="0"/>
        <pt x="428" y="95" on="0"/>
        <pt x="467" y="159" on="0"/>
        <pt x="467" y="204" on="1"/>
        <pt x="467" y="258" on="0"/>
        <pt x="383" y="315" on="0"/>
        <pt x="299" y="315" on="1"/>
      </contour>
      <contour>
        <pt x="306" y="355" on="1"/>
        <pt x="338" y="355" on="0"/>
        <pt x="404" y="376" on="0"/>
        <pt x="458" y="417" on="0"/>
        <pt x="492" y="475" on="0"/>
        <pt x="492" y="512" on="1"/>
        <pt x="492" y="542" on="0"/>
        <pt x="463" y="584" on="0"/>
        <pt x="418" y="612" on="0"/>
        <pt x="362" y="625" on="0"/>
        <pt x="334" y="625" on="1"/>
        <pt x="315" y="625" on="0"/>
        <pt x="273" y="619" on="0"/>
        <pt x="257" y="615" on="1"/>
        <pt x="211" y="355" on="1"/>
      </contour>
      <contour>
        <pt x="345" y="660" on="1"/>
        <pt x="381" y="660" on="0"/>
        <pt x="466" y="651" on="0"/>
        <pt x="539" y="621" on="0"/>
        <pt x="587" y="565" on="0"/>
        <pt x="587" y="518" on="1"/>
        <pt x="587" y="484" on="0"/>
        <pt x="562" y="428" on="0"/>
        <pt x="518" y="384" on="0"/>
        <pt x="461" y="351" on="0"/>
        <pt x="428" y="340" on="1"/>
        <pt x="507" y="327" on="0"/>
        <pt x="569" y="263" on="0"/>
        <pt x="569" y="217" on="1"/>
        <pt x="569" y="157" on="0"/>
        <pt x="516" y="74" on="0"/>
        <pt x="429" y="23" on="0"/>
        <pt x="317" y="0" on="0"/>
        <pt x="259" y="0" on="1"/>
        <pt x="148" y="0" on="1"/>
        <pt x="59" y="0" on="1"/>
        <pt x="154" y="540" on="1"/>
        <pt x="156" y="552" on="0"/>
        <pt x="158" y="573" on="0"/>
        <pt x="158" y="583" on="1"/>
        <pt x="158" y="609" on="0"/>
        <pt x="134" y="640" on="0"/>
        <pt x="101" y="640" on="1"/>
        <pt x="81" y="640" on="1"/>
        <pt x="85" y="660" on="1"/>
      </contour>
    </TTGlyph>
    <TTGlyph name="Breve" xMin="26" yMin="710" xMax="286" yMax="815">
      <contour>
        <pt x="150" y="770" on="1"/>
        <pt x="192" y="770" on="0"/>
        <pt x="250" y="796" on="0"/>
        <pt x="268" y="815" on="1"/>
        <pt x="286" y="800" on="1"/>
        <pt x="260" y="758" on="0"/>
        <pt x="189" y="710" on="0"/>
        <pt x="140" y="710" on="1"/>
        <pt x="91" y="710" on="0"/>
        <pt x="37" y="758" on="0"/>
        <pt x="26" y="800" on="1"/>
        <pt x="48" y="815" on="1"/>
        <pt x="60" y="796" on="0"/>
        <pt x="108" y="770" on="0"/>
      </contour>
    </TTGlyph>
    <TTGlyph name="C" xMin="45" yMin="-20" xMax="652" yMax="680">
      <contour>
        <pt x="620" y="450" on="1"/>
        <pt x="618" y="548" on="0"/>
        <pt x="531" y="640" on="0"/>
        <pt x="448" y="640" on="1"/>
        <pt x="371" y="640" on="0"/>
        <pt x="258" y="568" on="0"/>
        <pt x="182" y="453" on="0"/>
        <pt x="145" y="311" on="0"/>
        <pt x="145" y="241" on="1"/>
        <pt x="145" y="196" on="0"/>
        <pt x="166" y="116" on="0"/>
        <pt x="213" y="56" on="0"/>
        <pt x="286" y="20" on="0"/>
        <pt x="339" y="20" on="1"/>
        <pt x="414" y="20" on="0"/>
        <pt x="535" y="92" on="0"/>
        <pt x="589" y="160" on="1"/>
        <pt x="606" y="145" on="1"/>
        <pt x="573" y="98" on="0"/>
        <pt x="504" y="35" on="0"/>
        <pt x="429" y="-4" on="0"/>
        <pt x="347" y="-20" on="0"/>
        <pt x="302" y="-20" on="1"/>
        <pt x="240" y="-20" on="0"/>
        <pt x="145" y="20" on="0"/>
        <pt x="79" y="90" on="0"/>
        <pt x="45" y="188" on="0"/>
        <pt x="45" y="245" on="1"/>
        <pt x="45" y="317" on="0"/>
        <pt x="102" y="470" on="0"/>
        <pt x="203" y="598" on="0"/>
        <pt x="342" y="680" on="0"/>
        <pt x="425" y="680" on="1"/>
        <pt x="454" y="680" on="0"/>
        <pt x="532" y="669" on="0"/>
        <pt x="603" y="641" on="0"/>
        <pt x="652" y="590" on="0"/>
        <pt x="652" y="550" on="1"/>
        <pt x="652" y="525" on="0"/>
        <pt x="644" y="476" on="0"/>
        <pt x="640" y="450" on="1"/>
      </contour>
    </TTGlyph>
    <TTGlyph name="Ccedilla" xMin="45" yMin="-196" xMax="652" yMax="680">
      <contour>
        <pt x="241" y="-196" on="1"/>
        <pt x="248" y="-155" on="1"/>
        <pt x="298" y="-155" on="1"/>
        <pt x="316" y="-155" on="0"/>
        <pt x="345" y="-135" on="0"/>
        <pt x="345" y="-115" on="1"/>
        <pt x="345" y="-90" on="0"/>
        <pt x="310" y="-90" on="1"/>
        <pt x="265" y="-90" on="1"/>
        <pt x="277" y="-20" on="1"/>
        <pt x="221" y="-17" on="0"/>
        <pt x="135" y="26" on="0"/>
        <pt x="76" y="96" on="0"/>
        <pt x="45" y="190" on="0"/>
        <pt x="45" y="245" on="1"/>
        <pt x="45" y="317" on="0"/>
        <pt x="102" y="470" on="0"/>
        <pt x="203" y="598" on="0"/>
        <pt x="342" y="680" on="0"/>
        <pt x="425" y="680" on="1"/>
        <pt x="454" y="680" on="0"/>
        <pt x="532" y="669" on="0"/>
        <pt x="603" y="641" on="0"/>
        <pt x="652" y="590" on="0"/>
        <pt x="652" y="550" on="1"/>
        <pt x="652" y="525" on="0"/>
        <pt x="644" y="476" on="0"/>
        <pt x="640" y="450" on="1"/>
        <pt x="620" y="450" on="1"/>
        <pt x="618" y="548" on="0"/>
        <pt x="531" y="640" on="0"/>
        <pt x="448" y="640" on="1"/>
        <pt x="371" y="640" on="0"/>
        <pt x="258" y="568" on="0"/>
        <pt x="182" y="453" on="0"/>
        <pt x="145" y="311" on="0"/>
        <pt x="145" y="241" on="1"/>
        <pt x="145" y="196" on="0"/>
        <pt x="166" y="116" on="0"/>
        <pt x="213" y="56" on="0"/>
        <pt x="286" y="20" on="0"/>
        <pt x="339" y="20" on="1"/>
        <pt x="414" y="20" on="0"/>
        <pt x="535" y="92" on="0"/>
        <pt x="589" y="160" on="1"/>
        <pt x="606" y="145" on="1"/>
        <pt x="575" y="101" on="0"/>
        <pt x="510" y="40" on="0"/>
        <pt x="439" y="1" on="0"/>
        <pt x="364" y="-18" on="0"/>
        <pt x="322" y="-20" on="1"/>
        <pt x="317" y="-50" on="1"/>
        <pt x="327" y="-50" on="1"/>
        <pt x="357" y="-50" on="0"/>
        <pt x="395" y="-79" on="0"/>
        <pt x="395" y="-108" on="1"/>
        <pt x="395" y="-147" on="0"/>
        <pt x="341" y="-194" on="0"/>
        <pt x="301" y="-196" on="1"/>
      </contour>
    </TTGlyph>
    <TTGlyph name="D" xMin="59" yMin="0" xMax="689" yMax="660">
      <contour>
        <pt x="160" y="48" on="1"/>
        <pt x="189" y="41" on="0"/>
        <pt x="240" y="35" on="0"/>
        <pt x="260" y="35" on="1"/>
        <pt x="330" y="35" on="0"/>
        <pt x="448" y="97" on="0"/>
        <pt x="532" y="199" on="0"/>
        <pt x="579" y="330" on="0"/>
        <pt x="579" y="398" on="1"/>
        <pt x="579" y="450" on="0"/>
        <pt x="549" y="534" on="0"/>
        <pt x="492" y="593" on="0"/>
        <pt x="412" y="625" on="0"/>
        <pt x="362" y="625" on="1"/>
        <pt x="340" y="625" on="0"/>
        <pt x="288" y="617" on="0"/>
        <pt x="259" y="609" on="1"/>
      </contour>
      <contour>
        <pt x="347" y="660" on="1"/>
        <pt x="434" y="660" on="0"/>
        <pt x="562" y="625" on="0"/>
        <pt x="647" y="559" on="0"/>
        <pt x="689" y="464" on="0"/>
        <pt x="689" y="405" on="1"/>
        <pt x="689" y="318" on="0"/>
        <pt x="624" y="169" on="0"/>
        <pt x="509" y="61" on="0"/>
        <pt x="350" y="0" on="0"/>
        <pt x="257" y="0" on="1"/>
        <pt x="153" y="0" on="1"/>
        <pt x="59" y="0" on="1"/>
        <pt x="154" y="540" on="1"/>
        <pt x="156" y="552" on="0"/>
        <pt x="158" y="573" on="0"/>
        <pt x="158" y="583" on="1"/>
        <pt x="158" y="609" on="0"/>
        <pt x="134" y="640" on="0"/>
        <pt x="101" y="640" on="1"/>
        <pt x="81" y="640" on="1"/>
        <pt x="85" y="660" on="1"/>
      </contour>
    </TTGlyph>
    <TTGlyph name="E" xMin="60" yMin="0" xMax="585" yMax="660">
      <contour>
        <pt x="512" y="660" on="1"/>
        <pt x="555" y="660" on="0"/>
        <pt x="585" y="626" on="0"/>
        <pt x="585" y="602" on="1"/>
        <pt x="585" y="599" on="0"/>
        <pt x="584" y="591" on="0"/>
        <pt x="581" y="572" on="0"/>
        <pt x="575" y="536" on="0"/>
        <pt x="570" y="505" on="1"/>
        <pt x="550" y="505" on="1"/>
        <pt x="553" y="521" on="0"/>
        <pt x="553" y="535" on="1"/>
        <pt x="553" y="580" on="0"/>
        <pt x="497" y="620" on="0"/>
        <pt x="445" y="620" on="1"/>
        <pt x="259" y="620" on="1"/>
        <pt x="213" y="360" on="1"/>
        <pt x="483" y="360" on="1"/>
        <pt x="476" y="320" on="1"/>
        <pt x="206" y="320" on="1"/>
        <pt x="157" y="40" on="1"/>
        <pt x="332" y="40" on="1"/>
        <pt x="400" y="40" on="0"/>
        <pt x="488" y="90" on="0"/>
        <pt x="521" y="150" on="1"/>
        <pt x="540" y="145" on="1"/>
        <pt x="488" y="50" on="1"/>
        <pt x="476" y="27" on="0"/>
        <pt x="435" y="0" on="0"/>
        <pt x="405" y="0" on="1"/>
        <pt x="150" y="0" on="1"/>
        <pt x="60" y="0" on="1"/>
        <pt x="84" y="139" on="0"/>
        <pt x="118" y="332" on="0"/>
        <pt x="140" y="459" on="0"/>
        <pt x="152" y="531" on="0"/>
        <pt x="158" y="568" on="0"/>
        <pt x="159" y="580" on="0"/>
        <pt x="159" y="583" on="1"/>
        <pt x="159" y="609" on="0"/>
        <pt x="135" y="640" on="0"/>
        <pt x="102" y="640" on="1"/>
        <pt x="82" y="640" on="1"/>
        <pt x="86" y="660" on="1"/>
      </contour>
    </TTGlyph>
    <TTGlyph name="Eacute" xMin="60" yMin="0" xMax="585" yMax="830">
      <component glyphName="E" x="0" y="0" flags="0x204"/>
      <component glyphName="acute" x="250" y="0" flags="0x4"/>
    </TTGlyph>
    <TTGlyph name="Ecircumflex" xMin="60" yMin="0" xMax="585" yMax="836">
      <component glyphName="E" x="0" y="0" flags="0x204"/>
      <component glyphName="circumflex" x="151" y="61" flags="0x4"/>
    </TTGlyph>
    <TTGlyph name="Edieresis" xMin="60" yMin="0" xMax="585" yMax="830">
      <component glyphName="E" x="0" y="0" flags="0x204"/>
      <component glyphName="dieresis" x="138" y="40" flags="0x4"/>
    </TTGlyph>
    <TTGlyph name="Egrave" xMin="60" yMin="0" xMax="585" yMax="830">
      <component glyphName="E" x="0" y="0" flags="0x204"/>
      <component glyphName="grave.alt1" x="232" y="175" flags="0x4"/>
    </TTGlyph>
    <TTGlyph name="Eth" xMin="38" yMin="0" xMax="689" yMax="660">
      <contour>
        <pt x="45" y="350" on="1"/>
        <pt x="120" y="350" on="1"/>
        <pt x="154" y="540" on="1"/>
        <pt x="156" y="552" on="0"/>
        <pt x="158" y="573" on="0"/>
        <pt x="158" y="583" on="1"/>
        <pt x="158" y="609" on="0"/>
        <pt x="134" y="640" on="0"/>
        <pt x="101" y="640" on="1"/>
        <pt x="81" y="640" on="1"/>
        <pt x="85" y="660" on="1"/>
        <pt x="347" y="660" on="1"/>
        <pt x="434" y="660" on="0"/>
        <pt x="562" y="625" on="0"/>
        <pt x="647" y="559" on="0"/>
        <pt x="689" y="464" on="0"/>
        <pt x="689" y="405" on="1"/>
        <pt x="689" y="318" on="0"/>
        <pt x="624" y="169" on="0"/>
        <pt x="509" y="61" on="0"/>
        <pt x="350" y="0" on="0"/>
        <pt x="257" y="0" on="1"/>
        <pt x="153" y="0" on="1"/>
        <pt x="59" y="0" on="1"/>
        <pt x="113" y="310" on="1"/>
        <pt x="38" y="310" on="1"/>
      </contour>
      <contour>
        <pt x="213" y="350" on="1"/>
        <pt x="300" y="350" on="1"/>
        <pt x="293" y="310" on="1"/>
        <pt x="206" y="310" on="1"/>
        <pt x="160" y="48" on="1"/>
        <pt x="189" y="41" on="0"/>
        <pt x="240" y="35" on="0"/>
        <pt x="260" y="35" on="1"/>
        <pt x="330" y="35" on="0"/>
        <pt x="448" y="97" on="0"/>
        <pt x="532" y="199" on="0"/>
        <pt x="579" y="330" on="0"/>
        <pt x="579" y="398" on="1"/>
        <pt x="579" y="450" on="0"/>
        <pt x="549" y="534" on="0"/>
        <pt x="492" y="593" on="0"/>
        <pt x="412" y="625" on="0"/>
        <pt x="362" y="625" on="1"/>
        <pt x="340" y="625" on="0"/>
        <pt x="288" y="617" on="0"/>
        <pt x="259" y="609" on="1"/>
      </contour>
    </TTGlyph>
    <TTGlyph name="Euro" xMin="25" yMin="-20" xMax="707" yMax="680">
      <contour>
        <pt x="375" y="255" on="1"/>
        <pt x="199" y="255" on="1"/>
        <pt x="199" y="242" on="1"/>
        <pt x="199" y="197" on="0"/>
        <pt x="220" y="116" on="0"/>
        <pt x="267" y="56" on="0"/>
        <pt x="341" y="20" on="0"/>
        <pt x="394" y="20" on="1"/>
        <pt x="469" y="20" on="0"/>
        <pt x="590" y="92" on="0"/>
        <pt x="644" y="160" on="1"/>
        <pt x="661" y="145" on="1"/>
        <pt x="628" y="98" on="0"/>
        <pt x="559" y="35" on="0"/>
        <pt x="484" y="-4" on="0"/>
        <pt x="402" y="-20" on="0"/>
        <pt x="357" y="-20" on="1"/>
        <pt x="295" y="-20" on="0"/>
        <pt x="199" y="20" on="0"/>
        <pt x="134" y="92" on="0"/>
        <pt x="100" y="190" on="0"/>
        <pt x="100" y="248" on="1"/>
        <pt x="100" y="255" on="1"/>
        <pt x="25" y="255" on="1"/>
        <pt x="43" y="295" on="1"/>
        <pt x="103" y="295" on="1"/>
        <pt x="113" y="355" on="1"/>
        <pt x="58" y="355" on="1"/>
        <pt x="75" y="395" on="1"/>
        <pt x="127" y="395" on="1"/>
        <pt x="149" y="456" on="0"/>
        <pt x="223" y="560" on="0"/>
        <pt x="317" y="637" on="0"/>
        <pt x="424" y="680" on="0"/>
        <pt x="480" y="680" on="1"/>
        <pt x="509" y="680" on="0"/>
        <pt x="587" y="669" on="0"/>
        <pt x="658" y="641" on="0"/>
        <pt x="707" y="590" on="0"/>
        <pt x="707" y="550" on="1"/>
        <pt x="707" y="530" on="0"/>
        <pt x="701" y="482" on="0"/>
        <pt x="696" y="457" on="1"/>
        <pt x="696" y="455" on="0"/>
        <pt x="695" y="452" on="0"/>
        <pt x="695" y="450" on="1"/>
        <pt x="675" y="450" on="1"/>
        <pt x="673" y="548" on="0"/>
        <pt x="586" y="640" on="0"/>
        <pt x="503" y="640" on="1"/>
        <pt x="459" y="640" on="0"/>
        <pt x="376" y="615" on="0"/>
        <pt x="303" y="557" on="0"/>
        <pt x="244" y="463" on="0"/>
        <pt x="224" y="395" on="1"/>
        <pt x="425" y="395" on="1"/>
        <pt x="408" y="355" on="1"/>
        <pt x="213" y="355" on="1"/>
        <pt x="203" y="295" on="1"/>
        <pt x="393" y="295" on="1"/>
      </contour>
    </TTGlyph>
    <TTGlyph name="F" xMin="60" yMin="0" xMax="558" yMax="660">
      <contour>
        <pt x="485" y="660" on="1"/>
        <pt x="528" y="660" on="0"/>
        <pt x="558" y="626" on="0"/>
        <pt x="558" y="602" on="1"/>
        <pt x="558" y="599" on="0"/>
        <pt x="557" y="591" on="0"/>
        <pt x="554" y="572" on="0"/>
        <pt x="548" y="536" on="0"/>
        <pt x="543" y="505" on="1"/>
        <pt x="523" y="505" on="1"/>
        <pt x="526" y="521" on="0"/>
        <pt x="526" y="535" on="1"/>
        <pt x="526" y="580" on="0"/>
        <pt x="470" y="620" on="0"/>
        <pt x="418" y="620" on="1"/>
        <pt x="259" y="620" on="1"/>
        <pt x="212" y="355" on="1"/>
        <pt x="438" y="355" on="1"/>
        <pt x="431" y="315" on="1"/>
        <pt x="205" y="315" on="1"/>
        <pt x="150" y="0" on="1"/>
        <pt x="60" y="0" on="1"/>
        <pt x="84" y="139" on="0"/>
        <pt x="118" y="332" on="0"/>
        <pt x="140" y="459" on="0"/>
        <pt x="152" y="531" on="0"/>
        <pt x="158" y="568" on="0"/>
        <pt x="159" y="580" on="0"/>
        <pt x="159" y="583" on="1"/>
        <pt x="159" y="609" on="0"/>
        <pt x="135" y="640" on="0"/>
        <pt x="102" y="640" on="1"/>
        <pt x="82" y="640" on="1"/>
        <pt x="86" y="660" on="1"/>
      </contour>
    </TTGlyph>
    <TTGlyph name="G" xMin="49" yMin="-20" xMax="717" yMax="680">
      <contour>
        <pt x="448" y="640" on="1"/>
        <pt x="371" y="640" on="0"/>
        <pt x="257" y="565" on="0"/>
        <pt x="182" y="448" on="0"/>
        <pt x="145" y="305" on="0"/>
        <pt x="145" y="236" on="1"/>
        <pt x="145" y="176" on="0"/>
        <pt x="175" y="94" on="0"/>
        <pt x="227" y="43" on="0"/>
        <pt x="298" y="20" on="0"/>
        <pt x="339" y="20" on="1"/>
        <pt x="393" y="20" on="0"/>
        <pt x="468" y="39" on="0"/>
        <pt x="500" y="55" on="1"/>
        <pt x="531" y="229" on="1"/>
        <pt x="535" y="250" on="0"/>
        <pt x="552" y="291" on="0"/>
        <pt x="591" y="325" on="0"/>
        <pt x="661" y="346" on="0"/>
        <pt x="717" y="346" on="1"/>
        <pt x="713" y="326" on="1"/>
        <pt x="689" y="326" on="0"/>
        <pt x="657" y="313" on="0"/>
        <pt x="637" y="288" on="0"/>
        <pt x="625" y="253" on="0"/>
        <pt x="621" y="231" on="1"/>
        <pt x="588" y="43" on="1"/>
        <pt x="528" y="10" on="0"/>
        <pt x="405" y="-20" on="0"/>
        <pt x="332" y="-20" on="1"/>
        <pt x="266" y="-20" on="0"/>
        <pt x="161" y="24" on="0"/>
        <pt x="88" y="101" on="0"/>
        <pt x="49" y="207" on="0"/>
        <pt x="49" y="269" on="1"/>
        <pt x="49" y="342" on="0"/>
        <pt x="103" y="489" on="0"/>
        <pt x="202" y="607" on="0"/>
        <pt x="341" y="680" on="0"/>
        <pt x="425" y="680" on="1"/>
        <pt x="455" y="680" on="0"/>
        <pt x="537" y="671" on="0"/>
        <pt x="610" y="643" on="0"/>
        <pt x="662" y="592" on="0"/>
        <pt x="662" y="550" on="1"/>
        <pt x="662" y="530" on="0"/>
        <pt x="656" y="485" on="0"/>
        <pt x="652" y="465" on="1"/>
        <pt x="632" y="465" on="1"/>
        <pt x="626" y="640" on="0"/>
      </contour>
    </TTGlyph>
    <TTGlyph name="Gbreve" xMin="49" yMin="-20" xMax="717" yMax="835">
      <component glyphName="G" x="0" y="0" flags="0x204"/>
      <component glyphName="Breve" x="304" y="20" flags="0x4"/>
    </TTGlyph>
    <TTGlyph name="H" xMin="59" yMin="0" xMax="655" yMax="660">
      <contour>
        <pt x="560" y="120" on="1"/>
        <pt x="555" y="92" on="0"/>
        <pt x="555" y="75" on="1"/>
        <pt x="555" y="49" on="0"/>
        <pt x="580" y="20" on="0"/>
        <pt x="612" y="20" on="1"/>
        <pt x="632" y="20" on="1"/>
        <pt x="629" y="0" on="1"/>
        <pt x="539" y="0" on="1"/>
        <pt x="499" y="0" on="0"/>
        <pt x="463" y="24" on="0"/>
        <pt x="463" y="61" on="1"/>
        <pt x="463" y="73" on="0"/>
        <pt x="467" y="102" on="0"/>
        <pt x="470" y="120" on="1"/>
        <pt x="505" y="320" on="1"/>
        <pt x="205" y="320" on="1"/>
        <pt x="149" y="0" on="1"/>
        <pt x="59" y="0" on="1"/>
        <pt x="154" y="540" on="1"/>
        <pt x="156" y="552" on="0"/>
        <pt x="158" y="573" on="0"/>
        <pt x="158" y="583" on="1"/>
        <pt x="158" y="609" on="0"/>
        <pt x="134" y="640" on="0"/>
        <pt x="101" y="640" on="1"/>
        <pt x="81" y="640" on="1"/>
        <pt x="85" y="660" on="1"/>
        <pt x="175" y="660" on="1"/>
        <pt x="215" y="660" on="0"/>
        <pt x="250" y="637" on="0"/>
        <pt x="250" y="599" on="1"/>
        <pt x="250" y="576" on="0"/>
        <pt x="244" y="540" on="1"/>
        <pt x="212" y="360" on="1"/>
        <pt x="512" y="360" on="1"/>
        <pt x="565" y="660" on="1"/>
        <pt x="655" y="660" on="1"/>
      </contour>
    </TTGlyph>
    <TTGlyph name="I" xMin="56" yMin="0" xMax="248" yMax="660">
      <contour>
        <pt x="158" y="660" on="1"/>
        <pt x="248" y="660" on="1"/>
        <pt x="153" y="120" on="1"/>
        <pt x="148" y="92" on="0"/>
        <pt x="148" y="75" on="1"/>
        <pt x="148" y="49" on="0"/>
        <pt x="173" y="20" on="0"/>
        <pt x="205" y="20" on="1"/>
        <pt x="225" y="20" on="1"/>
        <pt x="222" y="0" on="1"/>
        <pt x="132" y="0" on="1"/>
        <pt x="92" y="0" on="0"/>
        <pt x="56" y="24" on="0"/>
        <pt x="56" y="61" on="1"/>
        <pt x="56" y="73" on="0"/>
        <pt x="60" y="102" on="0"/>
        <pt x="63" y="120" on="1"/>
      </contour>
    </TTGlyph>
    <TTGlyph name="Iacute" xMin="56" yMin="0" xMax="343" yMax="830">
      <component glyphName="I" x="0" y="0" flags="0x204"/>
      <component glyphName="acute" x="82" y="0" flags="0x4"/>
    </TTGlyph>
    <TTGlyph name="Icircumflex" xMin="56" yMin="0" xMax="345" yMax="810">
      <component glyphName="I" x="0" y="0" flags="0x204"/>
      <component glyphName="circumflex" x="-21" y="35" flags="0x4"/>
    </TTGlyph>
    <TTGlyph name="Idieresis" xMin="56" yMin="0" xMax="349" yMax="815">
      <contour>
        <pt x="158" y="660" on="1"/>
        <pt x="248" y="660" on="1"/>
        <pt x="153" y="120" on="1"/>
        <pt x="148" y="92" on="0"/>
        <pt x="148" y="75" on="1"/>
        <pt x="148" y="49" on="0"/>
        <pt x="173" y="20" on="0"/>
        <pt x="205" y="20" on="1"/>
        <pt x="225" y="20" on="1"/>
        <pt x="222" y="0" on="1"/>
        <pt x="132" y="0" on="1"/>
        <pt x="92" y="0" on="0"/>
        <pt x="56" y="24" on="0"/>
        <pt x="56" y="61" on="1"/>
        <pt x="56" y="73" on="0"/>
        <pt x="60" y="102" on="0"/>
        <pt x="63" y="120" on="1"/>
      </contour>
      <contour>
        <pt x="349" y="777" on="1"/>
        <pt x="349" y="753" on="0"/>
        <pt x="317" y="715" on="0"/>
        <pt x="290" y="715" on="1"/>
        <pt x="270" y="715" on="0"/>
        <pt x="247" y="737" on="0"/>
        <pt x="247" y="755" on="1"/>
        <pt x="247" y="778" on="0"/>
        <pt x="281" y="815" on="0"/>
        <pt x="307" y="815" on="1"/>
        <pt x="327" y="815" on="0"/>
        <pt x="349" y="794" on="0"/>
      </contour>
      <contour>
        <pt x="195" y="777" on="1"/>
        <pt x="195" y="753" on="0"/>
        <pt x="163" y="715" on="0"/>
        <pt x="136" y="715" on="1"/>
        <pt x="116" y="715" on="0"/>
        <pt x="93" y="737" on="0"/>
        <pt x="93" y="755" on="1"/>
        <pt x="93" y="778" on="0"/>
        <pt x="127" y="815" on="0"/>
        <pt x="153" y="815" on="1"/>
        <pt x="173" y="815" on="0"/>
        <pt x="195" y="794" on="0"/>
      </contour>
    </TTGlyph>
    <TTGlyph name="Idotaccent" xMin="56" yMin="0" xMax="270" yMax="819">
      <contour>
        <pt x="270" y="767" on="1"/>
        <pt x="270" y="744" on="0"/>
        <pt x="241" y="710" on="0"/>
        <pt x="215" y="710" on="1"/>
        <pt x="195" y="710" on="0"/>
        <pt x="169" y="740" on="0"/>
        <pt x="169" y="762" on="1"/>
        <pt x="169" y="785" on="0"/>
        <pt x="198" y="819" on="0"/>
        <pt x="224" y="819" on="1"/>
        <pt x="244" y="819" on="0"/>
        <pt x="270" y="789" on="0"/>
      </contour>
      <contour>
        <pt x="158" y="660" on="1"/>
        <pt x="248" y="660" on="1"/>
        <pt x="153" y="120" on="1"/>
        <pt x="148" y="92" on="0"/>
        <pt x="148" y="75" on="1"/>
        <pt x="148" y="49" on="0"/>
        <pt x="173" y="20" on="0"/>
        <pt x="205" y="20" on="1"/>
        <pt x="225" y="20" on="1"/>
        <pt x="222" y="0" on="1"/>
        <pt x="132" y="0" on="1"/>
        <pt x="92" y="0" on="0"/>
        <pt x="56" y="24" on="0"/>
        <pt x="56" y="61" on="1"/>
        <pt x="56" y="73" on="0"/>
        <pt x="60" y="102" on="0"/>
        <pt x="63" y="120" on="1"/>
      </contour>
    </TTGlyph>
    <TTGlyph name="Igrave" xMin="56" yMin="0" xMax="248" yMax="830">
      <component glyphName="I" x="0" y="0" flags="0x204"/>
      <component glyphName="grave.alt1" x="65" y="175" flags="0x4"/>
    </TTGlyph>
    <TTGlyph name="J" xMin="-80" yMin="-137" xMax="245" yMax="660">
      <contour>
        <pt x="-76" y="-117" on="1"/>
        <pt x="-28" y="-117" on="0"/>
        <pt x="36" y="-13" on="0"/>
        <pt x="52" y="78" on="1"/>
        <pt x="155" y="660" on="1"/>
        <pt x="245" y="660" on="1"/>
        <pt x="142" y="78" on="1"/>
        <pt x="132" y="22" on="0"/>
        <pt x="101" y="-60" on="0"/>
        <pt x="50" y="-112" on="0"/>
        <pt x="-26" y="-137" on="0"/>
        <pt x="-80" y="-137" on="1"/>
      </contour>
    </TTGlyph>
    <TTGlyph name="K" xMin="60" yMin="-10" xMax="696" yMax="660">
      <contour>
        <pt x="176" y="660" on="1"/>
        <pt x="216" y="660" on="0"/>
        <pt x="252" y="636" on="0"/>
        <pt x="252" y="599" on="1"/>
        <pt x="252" y="593" on="0"/>
        <pt x="250" y="574" on="0"/>
        <pt x="241" y="523" on="0"/>
        <pt x="225" y="427" on="0"/>
        <pt x="210" y="345" on="1"/>
        <pt x="457" y="555" on="1"/>
        <pt x="479" y="574" on="0"/>
        <pt x="521" y="611" on="0"/>
        <pt x="566" y="641" on="0"/>
        <pt x="616" y="660" on="0"/>
        <pt x="646" y="660" on="1"/>
        <pt x="696" y="660" on="1"/>
        <pt x="691" y="635" on="1"/>
        <pt x="670" y="635" on="0"/>
        <pt x="634" y="629" on="0"/>
        <pt x="598" y="613" on="0"/>
        <pt x="558" y="586" on="0"/>
        <pt x="534" y="565" on="1"/>
        <pt x="305" y="370" on="1"/>
        <pt x="492" y="130" on="1"/>
        <pt x="525" y="87" on="0"/>
        <pt x="606" y="24" on="0"/>
        <pt x="643" y="19" on="1"/>
        <pt x="640" y="0" on="1"/>
        <pt x="628" y="-4" on="0"/>
        <pt x="596" y="-10" on="0"/>
        <pt x="573" y="-10" on="1"/>
        <pt x="552" y="-10" on="0"/>
        <pt x="508" y="-1" on="0"/>
        <pt x="460" y="26" on="0"/>
        <pt x="408" y="72" on="0"/>
        <pt x="379" y="110" on="1"/>
        <pt x="208" y="330" on="1"/>
        <pt x="150" y="0" on="1"/>
        <pt x="60" y="0" on="1"/>
        <pt x="84" y="139" on="0"/>
        <pt x="118" y="332" on="0"/>
        <pt x="140" y="459" on="0"/>
        <pt x="152" y="531" on="0"/>
        <pt x="158" y="568" on="0"/>
        <pt x="159" y="580" on="0"/>
        <pt x="159" y="583" on="1"/>
        <pt x="159" y="609" on="0"/>
        <pt x="135" y="640" on="0"/>
        <pt x="102" y="640" on="1"/>
        <pt x="82" y="640" on="1"/>
        <pt x="86" y="660" on="1"/>
      </contour>
    </TTGlyph>
    <TTGlyph name="L" xMin="60" yMin="0" xMax="512" yMax="660">
      <contour>
        <pt x="512" y="40" on="1"/>
        <pt x="505" y="0" on="1"/>
        <pt x="60" y="0" on="1"/>
        <pt x="84" y="139" on="0"/>
        <pt x="118" y="332" on="0"/>
        <pt x="140" y="459" on="0"/>
        <pt x="152" y="531" on="0"/>
        <pt x="158" y="568" on="0"/>
        <pt x="159" y="580" on="0"/>
        <pt x="159" y="583" on="1"/>
        <pt x="159" y="609" on="0"/>
        <pt x="135" y="640" on="0"/>
        <pt x="102" y="640" on="1"/>
        <pt x="82" y="640" on="1"/>
        <pt x="86" y="660" on="1"/>
        <pt x="176" y="660" on="1"/>
        <pt x="216" y="660" on="0"/>
        <pt x="251" y="637" on="0"/>
        <pt x="251" y="599" on="1"/>
        <pt x="251" y="595" on="0"/>
        <pt x="250" y="582" on="0"/>
        <pt x="244" y="545" on="0"/>
        <pt x="233" y="475" on="0"/>
        <pt x="212" y="353" on="0"/>
        <pt x="180" y="171" on="0"/>
        <pt x="157" y="40" on="1"/>
      </contour>
    </TTGlyph>
    <TTGlyph name="M" xMin="38" yMin="-45" xMax="814" yMax="660">
      <contour>
        <pt x="785" y="-45" on="1"/>
        <pt x="699" y="-45" on="0"/>
        <pt x="628" y="17" on="0"/>
        <pt x="628" y="86" on="1"/>
        <pt x="628" y="122" on="0"/>
        <pt x="637" y="170" on="1"/>
        <pt x="705" y="555" on="1"/>
        <pt x="358" y="0" on="1"/>
        <pt x="338" y="0" on="1"/>
        <pt x="177" y="565" on="1"/>
        <pt x="78" y="0" on="1"/>
        <pt x="38" y="0" on="1"/>
        <pt x="154" y="660" on="1"/>
        <pt x="249" y="660" on="1"/>
        <pt x="397" y="140" on="1"/>
        <pt x="724" y="660" on="1"/>
        <pt x="814" y="660" on="1"/>
        <pt x="727" y="170" on="1"/>
        <pt x="718" y="122" on="0"/>
        <pt x="718" y="84" on="1"/>
        <pt x="718" y="32" on="0"/>
        <pt x="752" y="-25" on="0"/>
        <pt x="788" y="-25" on="1"/>
      </contour>
    </TTGlyph>
    <TTGlyph name="N" xMin="62" yMin="-10" xMax="668" yMax="660">
      <contour>
        <pt x="62" y="0" on="1"/>
        <pt x="86" y="138" on="0"/>
        <pt x="120" y="328" on="0"/>
        <pt x="141" y="454" on="0"/>
        <pt x="153" y="524" on="0"/>
        <pt x="159" y="559" on="0"/>
        <pt x="160" y="569" on="0"/>
        <pt x="160" y="572" on="1"/>
        <pt x="160" y="604" on="0"/>
        <pt x="127" y="640" on="0"/>
        <pt x="84" y="640" on="1"/>
        <pt x="74" y="640" on="1"/>
        <pt x="78" y="660" on="1"/>
        <pt x="143" y="660" on="1"/>
        <pt x="192" y="660" on="0"/>
        <pt x="250" y="628" on="0"/>
        <pt x="267" y="600" on="1"/>
        <pt x="541" y="165" on="1"/>
        <pt x="628" y="660" on="1"/>
        <pt x="668" y="660" on="1"/>
        <pt x="550" y="-10" on="1"/>
        <pt x="530" y="-10" on="1"/>
        <pt x="194" y="525" on="1"/>
        <pt x="102" y="0" on="1"/>
      </contour>
    </TTGlyph>
    <TTGlyph name="Ntilde" xMin="62" yMin="-10" xMax="668" yMax="789">
      <component glyphName="N" x="0" y="0" flags="0x204"/>
      <component glyphName="tilde" x="212" y="14" flags="0x4"/>
    </TTGlyph>
    <TTGlyph name="O" xMin="48" yMin="-20" xMax="682" yMax="680">
      <contour>
        <pt x="310" y="20" on="1"/>
        <pt x="358" y="20" on="0"/>
        <pt x="435" y="58" on="0"/>
        <pt x="496" y="121" on="0"/>
        <pt x="541" y="204" on="0"/>
        <pt x="570" y="295" on="0"/>
        <pt x="584" y="386" on="0"/>
        <pt x="584" y="427" on="1"/>
        <pt x="584" y="527" on="0"/>
        <pt x="499" y="640" on="0"/>
        <pt x="419" y="640" on="1"/>
        <pt x="371" y="640" on="0"/>
        <pt x="293" y="602" on="0"/>
        <pt x="233" y="539" on="0"/>
        <pt x="188" y="455" on="0"/>
        <pt x="160" y="364" on="0"/>
        <pt x="146" y="272" on="0"/>
        <pt x="146" y="231" on="1"/>
        <pt x="146" y="131" on="0"/>
        <pt x="230" y="20" on="0"/>
      </contour>
      <contour>
        <pt x="48" y="251" on="1"/>
        <pt x="48" y="326" on="0"/>
        <pt x="101" y="478" on="0"/>
        <pt x="199" y="602" on="0"/>
        <pt x="339" y="680" on="0"/>
        <pt x="426" y="680" on="1"/>
        <pt x="487" y="680" on="0"/>
        <pt x="583" y="639" on="0"/>
        <pt x="648" y="566" on="0"/>
        <pt x="682" y="466" on="0"/>
        <pt x="682" y="407" on="1"/>
        <pt x="682" y="332" on="0"/>
        <pt x="629" y="180" on="0"/>
        <pt x="530" y="57" on="0"/>
        <pt x="390" y="-20" on="0"/>
        <pt x="303" y="-20" on="1"/>
        <pt x="241" y="-20" on="0"/>
        <pt x="146" y="21" on="0"/>
        <pt x="82" y="93" on="0"/>
        <pt x="48" y="192" on="0"/>
      </contour>
    </TTGlyph>
    <TTGlyph name="OE" xMin="48" yMin="-20" xMax="937" yMax="680">
      <contour>
        <pt x="48" y="251" on="1"/>
        <pt x="48" y="326" on="0"/>
        <pt x="101" y="478" on="0"/>
        <pt x="199" y="602" on="0"/>
        <pt x="339" y="680" on="0"/>
        <pt x="426" y="680" on="1"/>
        <pt x="456" y="680" on="0"/>
        <pt x="509" y="671" on="0"/>
        <pt x="533" y="660" on="1"/>
        <pt x="864" y="660" on="1"/>
        <pt x="907" y="660" on="0"/>
        <pt x="937" y="626" on="0"/>
        <pt x="937" y="602" on="1"/>
        <pt x="937" y="599" on="0"/>
        <pt x="936" y="591" on="0"/>
        <pt x="933" y="572" on="0"/>
        <pt x="927" y="536" on="0"/>
        <pt x="922" y="505" on="1"/>
        <pt x="902" y="505" on="1"/>
        <pt x="905" y="521" on="0"/>
        <pt x="905" y="535" on="1"/>
        <pt x="905" y="580" on="0"/>
        <pt x="849" y="620" on="0"/>
        <pt x="797" y="620" on="1"/>
        <pt x="611" y="620" on="1"/>
        <pt x="565" y="360" on="1"/>
        <pt x="835" y="360" on="1"/>
        <pt x="828" y="320" on="1"/>
        <pt x="558" y="320" on="1"/>
        <pt x="509" y="40" on="1"/>
        <pt x="684" y="40" on="1"/>
        <pt x="752" y="40" on="0"/>
        <pt x="840" y="90" on="0"/>
        <pt x="873" y="150" on="1"/>
        <pt x="892" y="145" on="1"/>
        <pt x="840" y="50" on="1"/>
        <pt x="828" y="27" on="0"/>
        <pt x="787" y="0" on="0"/>
        <pt x="757" y="0" on="1"/>
        <pt x="504" y="0" on="1"/>
        <pt x="417" y="0" on="1"/>
        <pt x="388" y="-11" on="0"/>
        <pt x="333" y="-20" on="0"/>
        <pt x="303" y="-20" on="1"/>
        <pt x="241" y="-20" on="0"/>
        <pt x="146" y="21" on="0"/>
        <pt x="82" y="93" on="0"/>
        <pt x="48" y="192" on="0"/>
      </contour>
      <contour>
        <pt x="310" y="20" on="1"/>
        <pt x="372" y="20" on="0"/>
        <pt x="421" y="52" on="1"/>
        <pt x="519" y="610" on="1"/>
        <pt x="480" y="640" on="0"/>
        <pt x="419" y="640" on="1"/>
        <pt x="371" y="640" on="0"/>
        <pt x="293" y="602" on="0"/>
        <pt x="233" y="539" on="0"/>
        <pt x="188" y="455" on="0"/>
        <pt x="160" y="364" on="0"/>
        <pt x="146" y="272" on="0"/>
        <pt x="146" y="231" on="1"/>
        <pt x="146" y="131" on="0"/>
        <pt x="230" y="20" on="0"/>
      </contour>
    </TTGlyph>
    <TTGlyph name="Oacute" xMin="48" yMin="-20" xMax="682" yMax="850">
      <component glyphName="O" x="0" y="0" flags="0x204"/>
      <component glyphName="acute" x="309" y="20" flags="0x4"/>
    </TTGlyph>
    <TTGlyph name="Ocircumflex" xMin="48" yMin="-20" xMax="682" yMax="835">
      <component glyphName="O" x="0" y="0" flags="0x204"/>
      <component glyphName="circumflex" x="197" y="60" flags="0x4"/>
    </TTGlyph>
    <TTGlyph name="Odieresis" xMin="48" yMin="-20" xMax="682" yMax="835">
      <component glyphName="O" x="0" y="0" flags="0x204"/>
      <component glyphName="dieresis" x="200" y="45" flags="0x4"/>
    </TTGlyph>
    <TTGlyph name="Ograve" xMin="48" yMin="-20" xMax="682" yMax="854">
      <component glyphName="O" x="0" y="0" flags="0x204"/>
      <component glyphName="grave.alt1" x="283" y="199" flags="0x4"/>
    </TTGlyph>
    <TTGlyph name="Oslash" xMin="48" yMin="-20" xMax="682" yMax="680">
      <contour>
        <pt x="73" y="-20" on="1"/>
        <pt x="122" y="48" on="1"/>
        <pt x="86" y="85" on="0"/>
        <pt x="48" y="188" on="0"/>
        <pt x="48" y="251" on="1"/>
        <pt x="48" y="326" on="0"/>
        <pt x="101" y="478" on="0"/>
        <pt x="199" y="602" on="0"/>
        <pt x="339" y="680" on="0"/>
        <pt x="426" y="680" on="1"/>
        <pt x="464" y="680" on="0"/>
        <pt x="528" y="664" on="0"/>
        <pt x="555" y="650" on="1"/>
        <pt x="577" y="680" on="1"/>
        <pt x="650" y="680" on="1"/>
        <pt x="603" y="615" on="1"/>
        <pt x="641" y="578" on="0"/>
        <pt x="682" y="472" on="0"/>
        <pt x="682" y="407" on="1"/>
        <pt x="682" y="332" on="0"/>
        <pt x="629" y="180" on="0"/>
        <pt x="530" y="57" on="0"/>
        <pt x="390" y="-20" on="0"/>
        <pt x="303" y="-20" on="1"/>
        <pt x="225" y="-20" on="0"/>
        <pt x="169" y="12" on="1"/>
        <pt x="146" y="-20" on="1"/>
      </contour>
      <contour>
        <pt x="310" y="20" on="1"/>
        <pt x="357" y="20" on="0"/>
        <pt x="435" y="58" on="0"/>
        <pt x="496" y="121" on="0"/>
        <pt x="541" y="203" on="0"/>
        <pt x="570" y="293" on="0"/>
        <pt x="584" y="385" on="0"/>
        <pt x="584" y="426" on="1"/>
        <pt x="584" y="501" on="0"/>
        <pt x="559" y="554" on="1"/>
        <pt x="203" y="59" on="1"/>
        <pt x="245" y="20" on="0"/>
      </contour>
      <contour>
        <pt x="419" y="640" on="1"/>
        <pt x="371" y="640" on="0"/>
        <pt x="293" y="602" on="0"/>
        <pt x="232" y="538" on="0"/>
        <pt x="188" y="454" on="0"/>
        <pt x="159" y="362" on="0"/>
        <pt x="145" y="270" on="0"/>
        <pt x="145" y="229" on="1"/>
        <pt x="145" y="161" on="0"/>
        <pt x="167" y="111" on="1"/>
        <pt x="522" y="604" on="1"/>
        <pt x="481" y="640" on="0"/>
      </contour>
    </TTGlyph>
    <TTGlyph name="Otilde" xMin="48" yMin="-20" xMax="682" yMax="833">
      <component glyphName="O" x="0" y="0" flags="0x204"/>
      <component glyphName="tilde" x="224" y="58" flags="0x4"/>
    </TTGlyph>
    <TTGlyph name="P" xMin="60" yMin="0" xMax="565" yMax="660">
      <contour>
        <pt x="278" y="305" on="1"/>
        <pt x="305" y="305" on="0"/>
        <pt x="369" y="328" on="0"/>
        <pt x="426" y="376" on="0"/>
        <pt x="464" y="449" on="0"/>
        <pt x="464" y="499" on="1"/>
        <pt x="464" y="534" on="0"/>
        <pt x="437" y="582" on="0"/>
        <pt x="398" y="612" on="0"/>
        <pt x="353" y="625" on="0"/>
        <pt x="335" y="625" on="1"/>
        <pt x="316" y="625" on="0"/>
        <pt x="274" y="619" on="0"/>
        <pt x="258" y="615" on="1"/>
        <pt x="205" y="315" on="1"/>
        <pt x="219" y="311" on="0"/>
        <pt x="259" y="305" on="0"/>
      </contour>
      <contour>
        <pt x="150" y="0" on="1"/>
        <pt x="60" y="0" on="1"/>
        <pt x="84" y="139" on="0"/>
        <pt x="118" y="332" on="0"/>
        <pt x="140" y="459" on="0"/>
        <pt x="152" y="531" on="0"/>
        <pt x="158" y="568" on="0"/>
        <pt x="159" y="580" on="0"/>
        <pt x="159" y="583" on="1"/>
        <pt x="159" y="609" on="0"/>
        <pt x="135" y="640" on="0"/>
        <pt x="102" y="640" on="1"/>
        <pt x="82" y="640" on="1"/>
        <pt x="86" y="660" on="1"/>
        <pt x="346" y="660" on="1"/>
        <pt x="375" y="660" on="0"/>
        <pt x="451" y="650" on="0"/>
        <pt x="518" y="618" on="0"/>
        <pt x="565" y="555" on="0"/>
        <pt x="565" y="503" on="1"/>
        <pt x="565" y="450" on="0"/>
        <pt x="523" y="365" on="0"/>
        <pt x="453" y="303" on="0"/>
        <pt x="359" y="270" on="0"/>
        <pt x="307" y="270" on="1"/>
        <pt x="197" y="270" on="1"/>
      </contour>
    </TTGlyph>
    <TTGlyph name="Q" xMin="48" yMin="-205" xMax="681" yMax="680">
      <contour>
        <pt x="48" y="251" on="1"/>
        <pt x="48" y="326" on="0"/>
        <pt x="101" y="478" on="0"/>
        <pt x="199" y="602" on="0"/>
        <pt x="339" y="680" on="0"/>
        <pt x="426" y="680" on="1"/>
        <pt x="487" y="680" on="0"/>
        <pt x="583" y="639" on="0"/>
        <pt x="647" y="567" on="0"/>
        <pt x="681" y="468" on="0"/>
        <pt x="681" y="409" on="1"/>
        <pt x="681" y="342" on="0"/>
        <pt x="642" y="210" on="0"/>
        <pt x="567" y="98" on="0"/>
        <pt x="457" y="12" on="0"/>
        <pt x="387" y="-9" on="1"/>
        <pt x="392" y="-47" on="0"/>
        <pt x="434" y="-111" on="0"/>
        <pt x="493" y="-158" on="0"/>
        <pt x="562" y="-185" on="0"/>
        <pt x="594" y="-185" on="1"/>
        <pt x="590" y="-205" on="1"/>
        <pt x="536" y="-205" on="0"/>
        <pt x="432" y="-186" on="0"/>
        <pt x="336" y="-141" on="0"/>
        <pt x="251" y="-64" on="0"/>
        <pt x="215" y="-7" on="1"/>
        <pt x="134" y="18" on="0"/>
        <pt x="48" y="156" on="0"/>
      </contour>
      <contour>
        <pt x="310" y="20" on="1"/>
        <pt x="358" y="20" on="0"/>
        <pt x="435" y="58" on="0"/>
        <pt x="496" y="121" on="0"/>
        <pt x="541" y="204" on="0"/>
        <pt x="570" y="295" on="0"/>
        <pt x="584" y="386" on="0"/>
        <pt x="584" y="427" on="1"/>
        <pt x="584" y="527" on="0"/>
        <pt x="499" y="640" on="0"/>
        <pt x="419" y="640" on="1"/>
        <pt x="371" y="640" on="0"/>
        <pt x="293" y="602" on="0"/>
        <pt x="233" y="539" on="0"/>
        <pt x="188" y="455" on="0"/>
        <pt x="160" y="364" on="0"/>
        <pt x="146" y="272" on="0"/>
        <pt x="146" y="231" on="1"/>
        <pt x="146" y="131" on="0"/>
        <pt x="230" y="20" on="0"/>
      </contour>
    </TTGlyph>
    <TTGlyph name="R" xMin="60" yMin="-10" xMax="567" yMax="660">
      <contour>
        <pt x="284" y="340" on="1"/>
        <pt x="317" y="340" on="0"/>
        <pt x="382" y="365" on="0"/>
        <pt x="435" y="410" on="0"/>
        <pt x="467" y="471" on="0"/>
        <pt x="467" y="507" on="1"/>
        <pt x="467" y="539" on="0"/>
        <pt x="440" y="584" on="0"/>
        <pt x="400" y="612" on="0"/>
        <pt x="354" y="625" on="0"/>
        <pt x="335" y="625" on="1"/>
        <pt x="316" y="625" on="0"/>
        <pt x="274" y="619" on="0"/>
        <pt x="258" y="615" on="1"/>
        <pt x="211" y="350" on="1"/>
        <pt x="225" y="346" on="0"/>
        <pt x="265" y="340" on="0"/>
      </contour>
      <contour>
        <pt x="273" y="305" on="1"/>
        <pt x="203" y="305" on="1"/>
        <pt x="150" y="0" on="1"/>
        <pt x="60" y="0" on="1"/>
        <pt x="84" y="139" on="0"/>
        <pt x="118" y="332" on="0"/>
        <pt x="140" y="459" on="0"/>
        <pt x="152" y="531" on="0"/>
        <pt x="158" y="568" on="0"/>
        <pt x="159" y="580" on="0"/>
        <pt x="159" y="583" on="1"/>
        <pt x="159" y="609" on="0"/>
        <pt x="135" y="640" on="0"/>
        <pt x="102" y="640" on="1"/>
        <pt x="82" y="640" on="1"/>
        <pt x="86" y="660" on="1"/>
        <pt x="346" y="660" on="1"/>
        <pt x="375" y="660" on="0"/>
        <pt x="452" y="651" on="0"/>
        <pt x="520" y="620" on="0"/>
        <pt x="567" y="563" on="0"/>
        <pt x="567" y="515" on="1"/>
        <pt x="567" y="474" on="0"/>
        <pt x="538" y="407" on="0"/>
        <pt x="486" y="356" on="0"/>
        <pt x="416" y="320" on="0"/>
        <pt x="374" y="310" on="1"/>
        <pt x="448" y="135" on="1"/>
        <pt x="461" y="103" on="0"/>
        <pt x="487" y="61" on="0"/>
        <pt x="514" y="34" on="0"/>
        <pt x="545" y="22" on="0"/>
        <pt x="563" y="20" on="1"/>
        <pt x="560" y="0" on="1"/>
        <pt x="552" y="-4" on="0"/>
        <pt x="517" y="-10" on="0"/>
        <pt x="498" y="-10" on="1"/>
        <pt x="472" y="-10" on="0"/>
        <pt x="430" y="4" on="0"/>
        <pt x="393" y="38" on="0"/>
        <pt x="360" y="94" on="0"/>
        <pt x="343" y="135" on="1"/>
      </contour>
    </TTGlyph>
    <TTGlyph name="S" xMin="23" yMin="-17" xMax="515" yMax="678">
      <contour>
        <pt x="474" y="198" on="1"/>
        <pt x="474" y="151" on="0"/>
        <pt x="434" y="72" on="0"/>
        <pt x="367" y="15" on="0"/>
        <pt x="279" y="-17" on="0"/>
        <pt x="231" y="-17" on="1"/>
        <pt x="192" y="-17" on="0"/>
        <pt x="118" y="-2" on="0"/>
        <pt x="59" y="27" on="0"/>
        <pt x="23" y="67" on="0"/>
        <pt x="23" y="93" on="1"/>
        <pt x="23" y="94" on="0"/>
        <pt x="24" y="101" on="0"/>
        <pt x="27" y="124" on="0"/>
        <pt x="35" y="170" on="0"/>
        <pt x="43" y="212" on="1"/>
        <pt x="61" y="212" on="1"/>
        <pt x="61" y="205" on="1"/>
        <pt x="61" y="108" on="0"/>
        <pt x="146" y="23" on="0"/>
        <pt x="229" y="23" on="1"/>
        <pt x="255" y="23" on="0"/>
        <pt x="309" y="39" on="0"/>
        <pt x="352" y="70" on="0"/>
        <pt x="380" y="116" on="0"/>
        <pt x="380" y="146" on="1"/>
        <pt x="380" y="181" on="0"/>
        <pt x="335" y="234" on="0"/>
        <pt x="292" y="263" on="1"/>
        <pt x="182" y="336" on="1"/>
        <pt x="134" y="368" on="0"/>
        <pt x="92" y="430" on="0"/>
        <pt x="92" y="472" on="1"/>
        <pt x="92" y="517" on="0"/>
        <pt x="128" y="592" on="0"/>
        <pt x="189" y="647" on="0"/>
        <pt x="272" y="678" on="0"/>
        <pt x="319" y="678" on="1"/>
        <pt x="354" y="678" on="0"/>
        <pt x="424" y="663" on="0"/>
        <pt x="480" y="636" on="0"/>
        <pt x="515" y="595" on="0"/>
        <pt x="515" y="570" on="1"/>
        <pt x="515" y="568" on="0"/>
        <pt x="514" y="562" on="0"/>
        <pt x="511" y="539" on="0"/>
        <pt x="502" y="493" on="0"/>
        <pt x="495" y="451" on="1"/>
        <pt x="477" y="451" on="1"/>
        <pt x="477" y="458" on="1"/>
        <pt x="477" y="555" on="0"/>
        <pt x="395" y="638" on="0"/>
        <pt x="312" y="638" on="1"/>
        <pt x="288" y="638" on="0"/>
        <pt x="239" y="621" on="0"/>
        <pt x="200" y="589" on="0"/>
        <pt x="176" y="545" on="0"/>
        <pt x="176" y="518" on="1"/>
        <pt x="176" y="483" on="0"/>
        <pt x="223" y="435" on="0"/>
        <pt x="266" y="406" on="1"/>
        <pt x="376" y="333" on="1"/>
        <pt x="425" y="301" on="0"/>
        <pt x="474" y="240" on="0"/>
      </contour>
    </TTGlyph>
    <TTGlyph name="Scaron" xMin="23" yMin="-17" xMax="515" yMax="835">
      <component glyphName="S" x="0" y="0" flags="0x204"/>
      <component glyphName="caron" x="226" y="200" flags="0x4"/>
    </TTGlyph>
    <TTGlyph name="Scedilla" xMin="23" yMin="-186" xMax="515" yMax="678">
      <contour>
        <pt x="474" y="198" on="1"/>
        <pt x="474" y="150" on="0"/>
        <pt x="434" y="72" on="0"/>
        <pt x="367" y="17" on="0"/>
        <pt x="279" y="-15" on="0"/>
        <pt x="231" y="-17" on="1"/>
        <pt x="226" y="-40" on="1"/>
        <pt x="236" y="-40" on="1"/>
        <pt x="266" y="-40" on="0"/>
        <pt x="305" y="-68" on="0"/>
        <pt x="305" y="-97" on="1"/>
        <pt x="305" y="-134" on="0"/>
        <pt x="251" y="-186" on="0"/>
        <pt x="211" y="-186" on="1"/>
        <pt x="151" y="-186" on="1"/>
        <pt x="158" y="-145" on="1"/>
        <pt x="208" y="-145" on="1"/>
        <pt x="225" y="-145" on="0"/>
        <pt x="255" y="-126" on="0"/>
        <pt x="255" y="-106" on="1"/>
        <pt x="255" y="-92" on="0"/>
        <pt x="236" y="-80" on="0"/>
        <pt x="219" y="-80" on="1"/>
        <pt x="174" y="-80" on="1"/>
        <pt x="186" y="-14" on="1"/>
        <pt x="153" y="-10" on="0"/>
        <pt x="94" y="8" on="0"/>
        <pt x="49" y="35" on="0"/>
        <pt x="23" y="71" on="0"/>
        <pt x="23" y="93" on="1"/>
        <pt x="23" y="94" on="0"/>
        <pt x="24" y="101" on="0"/>
        <pt x="27" y="124" on="0"/>
        <pt x="35" y="170" on="0"/>
        <pt x="43" y="212" on="1"/>
        <pt x="61" y="212" on="1"/>
        <pt x="61" y="205" on="1"/>
        <pt x="61" y="108" on="0"/>
        <pt x="146" y="23" on="0"/>
        <pt x="229" y="23" on="1"/>
        <pt x="255" y="23" on="0"/>
        <pt x="309" y="39" on="0"/>
        <pt x="352" y="70" on="0"/>
        <pt x="380" y="116" on="0"/>
        <pt x="380" y="146" on="1"/>
        <pt x="380" y="181" on="0"/>
        <pt x="335" y="234" on="0"/>
        <pt x="292" y="263" on="1"/>
        <pt x="182" y="336" on="1"/>
        <pt x="134" y="368" on="0"/>
        <pt x="92" y="430" on="0"/>
        <pt x="92" y="472" on="1"/>
        <pt x="92" y="517" on="0"/>
        <pt x="128" y="592" on="0"/>
        <pt x="189" y="647" on="0"/>
        <pt x="272" y="678" on="0"/>
        <pt x="319" y="678" on="1"/>
        <pt x="354" y="678" on="0"/>
        <pt x="424" y="663" on="0"/>
        <pt x="480" y="636" on="0"/>
        <pt x="515" y="595" on="0"/>
        <pt x="515" y="570" on="1"/>
        <pt x="515" y="568" on="0"/>
        <pt x="514" y="562" on="0"/>
        <pt x="511" y="539" on="0"/>
        <pt x="502" y="493" on="0"/>
        <pt x="495" y="451" on="1"/>
        <pt x="477" y="451" on="1"/>
        <pt x="477" y="458" on="1"/>
        <pt x="477" y="555" on="0"/>
        <pt x="395" y="638" on="0"/>
        <pt x="312" y="638" on="1"/>
        <pt x="288" y="638" on="0"/>
        <pt x="239" y="621" on="0"/>
        <pt x="200" y="589" on="0"/>
        <pt x="176" y="545" on="0"/>
        <pt x="176" y="518" on="1"/>
        <pt x="176" y="483" on="0"/>
        <pt x="223" y="435" on="0"/>
        <pt x="266" y="406" on="1"/>
        <pt x="376" y="333" on="1"/>
        <pt x="425" y="301" on="0"/>
        <pt x="474" y="240" on="0"/>
      </contour>
    </TTGlyph>
    <TTGlyph name="T" xMin="60" yMin="0" xMax="637" yMax="660">
      <contour>
        <pt x="637" y="660" on="1"/>
        <pt x="630" y="620" on="1"/>
        <pt x="405" y="620" on="1"/>
        <pt x="296" y="0" on="1"/>
        <pt x="206" y="0" on="1"/>
        <pt x="315" y="620" on="1"/>
        <pt x="225" y="620" on="1"/>
        <pt x="165" y="620" on="0"/>
        <pt x="91" y="565" on="0"/>
        <pt x="80" y="505" on="1"/>
        <pt x="60" y="505" on="1"/>
        <pt x="73" y="580" on="1"/>
        <pt x="76" y="595" on="0"/>
        <pt x="88" y="624" on="0"/>
        <pt x="110" y="646" on="0"/>
        <pt x="146" y="660" on="0"/>
        <pt x="172" y="660" on="1"/>
      </contour>
    </TTGlyph>
    <TTGlyph name="Thorn" xMin="57" yMin="-30" xMax="522" yMax="690">
      <contour>
        <pt x="174" y="120" on="1"/>
        <pt x="228" y="120" on="0"/>
        <pt x="319" y="153" on="0"/>
        <pt x="385" y="215" on="0"/>
        <pt x="422" y="305" on="0"/>
        <pt x="422" y="363" on="1"/>
        <pt x="422" y="430" on="0"/>
        <pt x="338" y="510" on="0"/>
        <pt x="242" y="510" on="1"/>
      </contour>
      <contour>
        <pt x="249" y="550" on="1"/>
        <pt x="383" y="550" on="0"/>
        <pt x="522" y="457" on="0"/>
        <pt x="522" y="364" on="1"/>
        <pt x="522" y="289" on="0"/>
        <pt x="465" y="184" on="0"/>
        <pt x="368" y="116" on="0"/>
        <pt x="239" y="82" on="0"/>
        <pt x="167" y="80" on="1"/>
        <pt x="147" y="-30" on="1"/>
        <pt x="57" y="-30" on="1"/>
        <pt x="85" y="130" on="0"/>
        <pt x="124" y="350" on="0"/>
        <pt x="149" y="494" on="0"/>
        <pt x="163" y="573" on="0"/>
        <pt x="169" y="612" on="0"/>
        <pt x="170" y="621" on="0"/>
        <pt x="170" y="623" on="1"/>
        <pt x="170" y="670" on="0"/>
        <pt x="111" y="670" on="1"/>
        <pt x="91" y="670" on="1"/>
        <pt x="94" y="690" on="1"/>
        <pt x="184" y="690" on="1"/>
        <pt x="226" y="690" on="0"/>
        <pt x="262" y="667" on="0"/>
        <pt x="262" y="636" on="1"/>
        <pt x="262" y="632" on="0"/>
        <pt x="261" y="622" on="0"/>
        <pt x="259" y="604" on="0"/>
        <pt x="253" y="574" on="0"/>
      </contour>
    </TTGlyph>
    <TTGlyph name="U" xMin="71" yMin="-10" xMax="675" yMax="660">
      <contour>
        <pt x="144" y="540" on="1"/>
        <pt x="146" y="552" on="0"/>
        <pt x="148" y="573" on="0"/>
        <pt x="148" y="583" on="1"/>
        <pt x="148" y="609" on="0"/>
        <pt x="124" y="640" on="0"/>
        <pt x="91" y="640" on="1"/>
        <pt x="71" y="640" on="1"/>
        <pt x="75" y="660" on="1"/>
        <pt x="165" y="660" on="1"/>
        <pt x="205" y="660" on="0"/>
        <pt x="241" y="636" on="0"/>
        <pt x="241" y="599" on="1"/>
        <pt x="241" y="587" on="0"/>
        <pt x="237" y="558" on="0"/>
        <pt x="234" y="540" on="1"/>
        <pt x="183" y="255" on="1"/>
        <pt x="179" y="233" on="0"/>
        <pt x="175" y="195" on="0"/>
        <pt x="175" y="177" on="1"/>
        <pt x="175" y="107" on="0"/>
        <pt x="242" y="30" on="0"/>
        <pt x="321" y="30" on="1"/>
        <pt x="378" y="30" on="0"/>
        <pt x="461" y="60" on="0"/>
        <pt x="520" y="123" on="0"/>
        <pt x="557" y="219" on="0"/>
        <pt x="569" y="285" on="1"/>
        <pt x="635" y="660" on="1"/>
        <pt x="675" y="660" on="1"/>
        <pt x="609" y="285" on="1"/>
        <pt x="596" y="212" on="0"/>
        <pt x="554" y="101" on="0"/>
        <pt x="484" y="27" on="0"/>
        <pt x="379" y="-10" on="0"/>
        <pt x="302" y="-10" on="1"/>
        <pt x="186" y="-10" on="0"/>
        <pt x="88" y="84" on="0"/>
        <pt x="88" y="177" on="1"/>
        <pt x="88" y="201" on="0"/>
        <pt x="94" y="255" on="0"/>
        <pt x="99" y="285" on="1"/>
      </contour>
    </TTGlyph>
    <TTGlyph name="Uacute" xMin="71" yMin="-10" xMax="675" yMax="811">
      <component glyphName="U" x="0" y="0" flags="0x204"/>
      <component glyphName="acute" x="295" y="-19" flags="0x4"/>
    </TTGlyph>
    <TTGlyph name="Ucircumflex" xMin="71" yMin="-10" xMax="675" yMax="786">
      <component glyphName="U" x="0" y="0" flags="0x204"/>
      <component glyphName="circumflex" x="211" y="11" flags="0x4"/>
    </TTGlyph>
    <TTGlyph name="Udieresis" xMin="71" yMin="-10" xMax="675" yMax="781">
      <component glyphName="U" x="0" y="0" flags="0x204"/>
      <component glyphName="dieresis" x="202" y="-9" flags="0x4"/>
    </TTGlyph>
    <TTGlyph name="Ugrave" xMin="71" yMin="-10" xMax="675" yMax="810">
      <component glyphName="U" x="0" y="0" flags="0x204"/>
      <component glyphName="grave.alt1" x="297" y="155" flags="0x4"/>
    </TTGlyph>
    <TTGlyph name="V" xMin="32" yMin="-10" xMax="681" yMax="670">
      <contour>
        <pt x="321" y="140" on="1"/>
        <pt x="356" y="198" on="0"/>
        <pt x="402" y="272" on="0"/>
        <pt x="432" y="322" on="0"/>
        <pt x="452" y="356" on="0"/>
        <pt x="472" y="389" on="0"/>
        <pt x="496" y="429" on="0"/>
        <pt x="533" y="493" on="0"/>
        <pt x="590" y="588" on="0"/>
        <pt x="633" y="660" on="1"/>
        <pt x="681" y="660" on="1"/>
        <pt x="276" y="-10" on="1"/>
        <pt x="258" y="-10" on="1"/>
        <pt x="123" y="543" on="1"/>
        <pt x="116" y="571" on="0"/>
        <pt x="101" y="610" on="0"/>
        <pt x="81" y="634" on="0"/>
        <pt x="52" y="646" on="0"/>
        <pt x="32" y="648" on="1"/>
        <pt x="35" y="668" on="1"/>
        <pt x="39" y="668" on="0"/>
        <pt x="63" y="670" on="0"/>
        <pt x="70" y="670" on="1"/>
        <pt x="88" y="670" on="0"/>
        <pt x="133" y="662" on="0"/>
        <pt x="175" y="636" on="0"/>
        <pt x="211" y="586" on="0"/>
        <pt x="221" y="543" on="1"/>
      </contour>
    </TTGlyph>
    <TTGlyph name="W" xMin="30" yMin="-10" xMax="897" yMax="670">
      <contour>
        <pt x="121" y="543" on="1"/>
        <pt x="116" y="571" on="0"/>
        <pt x="103" y="610" on="0"/>
        <pt x="82" y="634" on="0"/>
        <pt x="52" y="646" on="0"/>
        <pt x="30" y="648" on="1"/>
        <pt x="33" y="668" on="1"/>
        <pt x="37" y="668" on="0"/>
        <pt x="61" y="670" on="0"/>
        <pt x="68" y="670" on="1"/>
        <pt x="89" y="670" on="0"/>
        <pt x="135" y="663" on="0"/>
        <pt x="176" y="637" on="0"/>
        <pt x="208" y="586" on="0"/>
        <pt x="216" y="543" on="1"/>
        <pt x="282" y="157" on="1"/>
        <pt x="445" y="474" on="1"/>
        <pt x="433" y="543" on="1"/>
        <pt x="428" y="571" on="0"/>
        <pt x="415" y="610" on="0"/>
        <pt x="394" y="634" on="0"/>
        <pt x="364" y="646" on="0"/>
        <pt x="342" y="648" on="1"/>
        <pt x="345" y="668" on="1"/>
        <pt x="349" y="668" on="0"/>
        <pt x="373" y="670" on="0"/>
        <pt x="380" y="670" on="1"/>
        <pt x="401" y="670" on="0"/>
        <pt x="447" y="663" on="0"/>
        <pt x="488" y="637" on="0"/>
        <pt x="520" y="586" on="0"/>
        <pt x="528" y="543" on="1"/>
        <pt x="594" y="157" on="1"/>
        <pt x="854" y="660" on="1"/>
        <pt x="897" y="660" on="1"/>
        <pt x="550" y="-10" on="1"/>
        <pt x="530" y="-10" on="1"/>
        <pt x="456" y="411" on="1"/>
        <pt x="238" y="-10" on="1"/>
        <pt x="218" y="-10" on="1"/>
      </contour>
    </TTGlyph>
    <TTGlyph name="X" xMin="-9" yMin="0" xMax="667" yMax="660">
      <contour>
        <pt x="41" y="0" on="1"/>
        <pt x="-9" y="0" on="1"/>
        <pt x="298" y="325" on="1"/>
        <pt x="194" y="530" on="1"/>
        <pt x="185" y="549" on="0"/>
        <pt x="163" y="586" on="0"/>
        <pt x="132" y="617" on="0"/>
        <pt x="86" y="638" on="0"/>
        <pt x="53" y="640" on="1"/>
        <pt x="57" y="660" on="1"/>
        <pt x="177" y="660" on="1"/>
        <pt x="201" y="660" on="0"/>
        <pt x="238" y="640" on="0"/>
        <pt x="266" y="608" on="0"/>
        <pt x="288" y="569" on="0"/>
        <pt x="297" y="550" on="1"/>
        <pt x="371" y="400" on="1"/>
        <pt x="617" y="660" on="1"/>
        <pt x="667" y="660" on="1"/>
        <pt x="390" y="365" on="1"/>
        <pt x="508" y="130" on="1"/>
        <pt x="518" y="111" on="0"/>
        <pt x="542" y="74" on="0"/>
        <pt x="572" y="43" on="0"/>
        <pt x="610" y="22" on="0"/>
        <pt x="634" y="20" on="1"/>
        <pt x="631" y="0" on="1"/>
        <pt x="526" y="0" on="1"/>
        <pt x="502" y="0" on="0"/>
        <pt x="464" y="20" on="0"/>
        <pt x="436" y="52" on="0"/>
        <pt x="414" y="91" on="0"/>
        <pt x="405" y="110" on="1"/>
        <pt x="317" y="290" on="1"/>
      </contour>
    </TTGlyph>
    <TTGlyph name="Y" xMin="35" yMin="0" xMax="678" yMax="660">
      <contour>
        <pt x="365" y="325" on="1"/>
        <pt x="633" y="660" on="1"/>
        <pt x="678" y="660" on="1"/>
        <pt x="377" y="280" on="1"/>
        <pt x="328" y="0" on="1"/>
        <pt x="238" y="0" on="1"/>
        <pt x="286" y="273" on="1"/>
        <pt x="161" y="530" on="1"/>
        <pt x="150" y="552" on="0"/>
        <pt x="127" y="591" on="0"/>
        <pt x="99" y="620" on="0"/>
        <pt x="61" y="638" on="0"/>
        <pt x="35" y="640" on="1"/>
        <pt x="39" y="660" on="1"/>
        <pt x="129" y="660" on="1"/>
        <pt x="157" y="660" on="0"/>
        <pt x="198" y="641" on="0"/>
        <pt x="228" y="610" on="0"/>
        <pt x="250" y="571" on="0"/>
        <pt x="259" y="550" on="1"/>
      </contour>
    </TTGlyph>
    <TTGlyph name="Yacute" xMin="35" yMin="0" xMax="678" yMax="801">
      <component glyphName="Y" x="0" y="0" flags="0x204"/>
      <component glyphName="acute" x="278" y="-29" flags="0x4"/>
    </TTGlyph>
    <TTGlyph name="Ydieresis" xMin="35" yMin="0" xMax="678" yMax="790">
      <component glyphName="Y" x="0" y="0" flags="0x204"/>
      <component glyphName="dieresis" x="183" y="0" flags="0x4"/>
    </TTGlyph>
    <TTGlyph name="Z" xMin="-22" yMin="0" xMax="644" yMax="660">
      <contour>
        <pt x="644" y="660" on="1"/>
        <pt x="110" y="40" on="1"/>
        <pt x="520" y="40" on="1"/>
        <pt x="513" y="0" on="1"/>
        <pt x="-22" y="0" on="1"/>
        <pt x="-19" y="20" on="1"/>
        <pt x="502" y="620" on="1"/>
        <pt x="262" y="620" on="1"/>
        <pt x="202" y="620" on="0"/>
        <pt x="128" y="565" on="0"/>
        <pt x="117" y="505" on="1"/>
        <pt x="97" y="505" on="1"/>
        <pt x="110" y="580" on="1"/>
        <pt x="113" y="595" on="0"/>
        <pt x="125" y="624" on="0"/>
        <pt x="147" y="646" on="0"/>
        <pt x="183" y="660" on="0"/>
        <pt x="209" y="660" on="1"/>
      </contour>
    </TTGlyph>
    <TTGlyph name="Zcaron" xMin="-22" yMin="0" xMax="644" yMax="825">
      <component glyphName="Z" x="0" y="0" flags="0x204"/>
      <component glyphName="caron" x="280" y="190" flags="0x4"/>
    </TTGlyph>
    <TTGlyph name="a" xMin="32" yMin="-10" xMax="486" yMax="480">
      <contour>
        <pt x="296" y="440" on="1"/>
        <pt x="250" y="440" on="0"/>
        <pt x="186" y="380" on="0"/>
        <pt x="145" y="293" on="0"/>
        <pt x="127" y="195" on="0"/>
        <pt x="127" y="157" on="1"/>
        <pt x="127" y="102" on="0"/>
        <pt x="167" y="30" on="0"/>
        <pt x="214" y="30" on="1"/>
        <pt x="259" y="30" on="0"/>
        <pt x="310" y="67" on="0"/>
        <pt x="329" y="90" on="1"/>
        <pt x="381" y="380" on="1"/>
        <pt x="375" y="391" on="0"/>
        <pt x="361" y="413" on="0"/>
        <pt x="342" y="430" on="0"/>
        <pt x="315" y="440" on="0"/>
      </contour>
      <contour>
        <pt x="273" y="480" on="1"/>
        <pt x="325" y="480" on="0"/>
        <pt x="377" y="444" on="0"/>
        <pt x="388" y="425" on="1"/>
        <pt x="393" y="425" on="1"/>
        <pt x="436" y="470" on="1"/>
        <pt x="486" y="470" on="1"/>
        <pt x="419" y="87" on="1"/>
        <pt x="404" y="0" on="1"/>
        <pt x="354" y="0" on="1"/>
        <pt x="326" y="45" on="1"/>
        <pt x="321" y="45" on="1"/>
        <pt x="303" y="26" on="0"/>
        <pt x="237" y="-10" on="0"/>
        <pt x="177" y="-10" on="1"/>
        <pt x="140" y="-10" on="0"/>
        <pt x="85" y="17" on="0"/>
        <pt x="49" y="63" on="0"/>
        <pt x="32" y="127" on="0"/>
        <pt x="32" y="163" on="1"/>
        <pt x="32" y="215" on="0"/>
        <pt x="62" y="323" on="0"/>
        <pt x="122" y="414" on="0"/>
        <pt x="212" y="475" on="0"/>
      </contour>
    </TTGlyph>
    <TTGlyph name="aacute" xMin="32" yMin="-10" xMax="486" yMax="656">
      <component glyphName="a" x="0" y="0" flags="0x204"/>
      <component glyphName="acute" x="178" y="-174" flags="0x4"/>
    </TTGlyph>
    <TTGlyph name="acircumflex" xMin="32" yMin="-10" xMax="486" yMax="646">
      <component glyphName="a" x="0" y="0" flags="0x204"/>
      <component glyphName="circumflex" x="83" y="-129" flags="0x4"/>
    </TTGlyph>
    <TTGlyph name="acute" xMin="103" yMin="700" xMax="261" yMax="830">
      <contour>
        <pt x="143" y="700" on="1"/>
        <pt x="103" y="700" on="1"/>
        <pt x="166" y="830" on="1"/>
        <pt x="261" y="830" on="1"/>
      </contour>
    </TTGlyph>
    <TTGlyph name="acute.alt1" xMin="80" yMin="700" xMax="256" yMax="815">
      <contour>
        <pt x="130" y="700" on="1"/>
        <pt x="80" y="700" on="1"/>
        <pt x="171" y="815" on="1"/>
        <pt x="256" y="815" on="1"/>
      </contour>
    </TTGlyph>
    <TTGlyph name="adieresis" xMin="32" yMin="-10" xMax="486" yMax="625">
      <component glyphName="a" x="0" y="0" flags="0x204"/>
      <component glyphName="dieresis.alt1" x="152" y="0" flags="0x4"/>
    </TTGlyph>
    <TTGlyph name="ae" xMin="10" yMin="-10" xMax="717" yMax="480">
      <contour>
        <pt x="402" y="210" on="1"/>
        <pt x="399" y="186" on="0"/>
        <pt x="399" y="165" on="1"/>
        <pt x="399" y="104" on="0"/>
        <pt x="453" y="30" on="0"/>
        <pt x="506" y="30" on="1"/>
        <pt x="555" y="30" on="0"/>
        <pt x="627" y="72" on="0"/>
        <pt x="660" y="110" on="1"/>
        <pt x="677" y="95" on="1"/>
        <pt x="633" y="38" on="0"/>
        <pt x="536" y="-10" on="0"/>
        <pt x="479" y="-10" on="1"/>
        <pt x="420" y="-10" on="0"/>
        <pt x="343" y="33" on="0"/>
        <pt x="324" y="75" on="1"/>
        <pt x="294" y="34" on="0"/>
        <pt x="214" y="-10" on="0"/>
        <pt x="149" y="-10" on="1"/>
        <pt x="125" y="-10" on="0"/>
        <pt x="76" y="0" on="0"/>
        <pt x="36" y="25" on="0"/>
        <pt x="10" y="66" on="0"/>
        <pt x="10" y="97" on="1"/>
        <pt x="10" y="147" on="0"/>
        <pt x="63" y="210" on="0"/>
        <pt x="145" y="246" on="0"/>
        <pt x="244" y="260" on="0"/>
        <pt x="291" y="260" on="1"/>
        <pt x="321" y="260" on="1"/>
        <pt x="330" y="309" on="0"/>
        <pt x="330" y="342" on="1"/>
        <pt x="330" y="372" on="0"/>
        <pt x="318" y="410" on="0"/>
        <pt x="296" y="432" on="0"/>
        <pt x="266" y="440" on="0"/>
        <pt x="248" y="440" on="1"/>
        <pt x="206" y="440" on="0"/>
        <pt x="143" y="404" on="0"/>
        <pt x="123" y="355" on="1"/>
        <pt x="78" y="355" on="1"/>
        <pt x="83" y="381" on="0"/>
        <pt x="97" y="426" on="0"/>
        <pt x="119" y="445" on="1"/>
        <pt x="130" y="454" on="0"/>
        <pt x="164" y="468" on="0"/>
        <pt x="206" y="476" on="0"/>
        <pt x="252" y="480" on="0"/>
        <pt x="275" y="480" on="1"/>
        <pt x="328" y="480" on="0"/>
        <pt x="391" y="428" on="0"/>
        <pt x="399" y="390" on="1"/>
        <pt x="421" y="428" on="0"/>
        <pt x="506" y="480" on="0"/>
        <pt x="555" y="480" on="1"/>
        <pt x="600" y="480" on="0"/>
        <pt x="661" y="462" on="0"/>
        <pt x="700" y="432" on="0"/>
        <pt x="717" y="390" on="0"/>
        <pt x="717" y="366" on="1"/>
        <pt x="717" y="325" on="0"/>
        <pt x="682" y="266" on="0"/>
        <pt x="623" y="228" on="0"/>
        <pt x="547" y="210" on="0"/>
        <pt x="506" y="210" on="1"/>
      </contour>
      <contour>
        <pt x="409" y="250" on="1"/>
        <pt x="508" y="250" on="1"/>
        <pt x="556" y="250" on="0"/>
        <pt x="622" y="310" on="0"/>
        <pt x="622" y="364" on="1"/>
        <pt x="622" y="399" on="0"/>
        <pt x="589" y="435" on="0"/>
        <pt x="552" y="435" on="1"/>
        <pt x="529" y="435" on="0"/>
        <pt x="485" y="408" on="0"/>
        <pt x="447" y="362" on="0"/>
        <pt x="418" y="297" on="0"/>
        <pt x="411" y="260" on="1"/>
      </contour>
      <contour>
        <pt x="314" y="220" on="1"/>
        <pt x="284" y="220" on="1"/>
        <pt x="258" y="220" on="0"/>
        <pt x="196" y="210" on="0"/>
        <pt x="142" y="184" on="0"/>
        <pt x="106" y="140" on="0"/>
        <pt x="106" y="106" on="1"/>
        <pt x="106" y="71" on="0"/>
        <pt x="154" y="35" on="0"/>
        <pt x="187" y="35" on="1"/>
        <pt x="225" y="35" on="0"/>
        <pt x="273" y="72" on="0"/>
        <pt x="292" y="95" on="1"/>
      </contour>
    </TTGlyph>
    <TTGlyph name="afii10017" xMin="-23" yMin="-5" xMax="620" yMax="660">
      <component glyphName="A" x="0" y="0" flags="0x204"/>
    </TTGlyph>
    <TTGlyph name="afii10018" xMin="60" yMin="0" xMax="580" yMax="660">
      <contour>
        <pt x="251" y="35" on="1"/>
        <pt x="294" y="35" on="0"/>
        <pt x="370" y="59" on="0"/>
        <pt x="427" y="107" on="0"/>
        <pt x="461" y="178" on="0"/>
        <pt x="461" y="226" on="1"/>
        <pt x="461" y="286" on="0"/>
        <pt x="378" y="345" on="0"/>
        <pt x="305" y="345" on="1"/>
        <pt x="258" y="345" on="0"/>
        <pt x="208" y="331" on="1"/>
        <pt x="158" y="49" on="1"/>
        <pt x="205" y="35" on="0"/>
      </contour>
      <contour>
        <pt x="507" y="660" on="1"/>
        <pt x="550" y="660" on="0"/>
        <pt x="580" y="625" on="0"/>
        <pt x="580" y="601" on="1"/>
        <pt x="580" y="598" on="0"/>
        <pt x="579" y="591" on="0"/>
        <pt x="576" y="571" on="0"/>
        <pt x="570" y="536" on="0"/>
        <pt x="565" y="505" on="1"/>
        <pt x="545" y="505" on="1"/>
        <pt x="548" y="521" on="0"/>
        <pt x="548" y="535" on="1"/>
        <pt x="548" y="580" on="0"/>
        <pt x="492" y="620" on="0"/>
        <pt x="440" y="620" on="1"/>
        <pt x="259" y="620" on="1"/>
        <pt x="217" y="380" on="1"/>
        <pt x="327" y="380" on="1"/>
        <pt x="367" y="380" on="0"/>
        <pt x="450" y="368" on="0"/>
        <pt x="518" y="335" on="0"/>
        <pt x="561" y="276" on="0"/>
        <pt x="561" y="228" on="1"/>
        <pt x="561" y="156" on="0"/>
        <pt x="500" y="66" on="0"/>
        <pt x="410" y="17" on="0"/>
        <pt x="305" y="0" on="0"/>
        <pt x="260" y="0" on="1"/>
        <pt x="150" y="0" on="1"/>
        <pt x="60" y="0" on="1"/>
        <pt x="84" y="139" on="0"/>
        <pt x="118" y="332" on="0"/>
        <pt x="140" y="459" on="0"/>
        <pt x="152" y="531" on="0"/>
        <pt x="158" y="568" on="0"/>
        <pt x="159" y="580" on="0"/>
        <pt x="159" y="583" on="1"/>
        <pt x="159" y="609" on="0"/>
        <pt x="135" y="640" on="0"/>
        <pt x="102" y="640" on="1"/>
        <pt x="82" y="640" on="1"/>
        <pt x="86" y="660" on="1"/>
      </contour>
    </TTGlyph>
    <TTGlyph name="afii10019" xMin="59" yMin="0" xMax="587" yMax="660">
      <component glyphName="B" x="0" y="0" flags="0x204"/>
    </TTGlyph>
    <TTGlyph name="afii10020" xMin="60" yMin="0" xMax="574" yMax="660">
      <contour>
        <pt x="60" y="0" on="1"/>
        <pt x="84" y="139" on="0"/>
        <pt x="118" y="332" on="0"/>
        <pt x="140" y="459" on="0"/>
        <pt x="152" y="531" on="0"/>
        <pt x="158" y="568" on="0"/>
        <pt x="159" y="580" on="0"/>
        <pt x="159" y="583" on="1"/>
        <pt x="159" y="609" on="0"/>
        <pt x="135" y="640" on="0"/>
        <pt x="102" y="640" on="1"/>
        <pt x="82" y="640" on="1"/>
        <pt x="86" y="660" on="1"/>
        <pt x="501" y="660" on="1"/>
        <pt x="544" y="660" on="0"/>
        <pt x="574" y="625" on="0"/>
        <pt x="574" y="601" on="1"/>
        <pt x="574" y="598" on="0"/>
        <pt x="573" y="591" on="0"/>
        <pt x="570" y="571" on="0"/>
        <pt x="564" y="536" on="0"/>
        <pt x="559" y="505" on="1"/>
        <pt x="539" y="505" on="1"/>
        <pt x="542" y="521" on="0"/>
        <pt x="542" y="535" on="1"/>
        <pt x="542" y="580" on="0"/>
        <pt x="486" y="620" on="0"/>
        <pt x="434" y="620" on="1"/>
        <pt x="259" y="620" on="1"/>
        <pt x="150" y="0" on="1"/>
      </contour>
    </TTGlyph>
    <TTGlyph name="afii10021" xMin="-75" yMin="-180" xMax="647" yMax="660">
      <contour>
        <pt x="448" y="40" on="1"/>
        <pt x="550" y="620" on="1"/>
        <pt x="290" y="620" on="1"/>
        <pt x="272" y="518" on="0"/>
        <pt x="234" y="350" on="0"/>
        <pt x="190" y="209" on="0"/>
        <pt x="139" y="91" on="0"/>
        <pt x="108" y="40" on="1"/>
      </contour>
      <contour>
        <pt x="593" y="40" on="1"/>
        <pt x="606" y="40" on="0"/>
        <pt x="622" y="25" on="0"/>
        <pt x="622" y="12" on="1"/>
        <pt x="622" y="11" on="0"/>
        <pt x="621" y="4" on="0"/>
        <pt x="614" y="-33" on="0"/>
        <pt x="601" y="-110" on="0"/>
        <pt x="589" y="-180" on="1"/>
        <pt x="544" y="-180" on="1"/>
        <pt x="545" y="-169" on="0"/>
        <pt x="545" y="-150" on="0"/>
        <pt x="545" y="-140" on="1"/>
        <pt x="545" y="-61" on="0"/>
        <pt x="499" y="0" on="0"/>
        <pt x="451" y="0" on="1"/>
        <pt x="126" y="0" on="1"/>
        <pt x="99" y="0" on="0"/>
        <pt x="55" y="-18" on="0"/>
        <pt x="17" y="-60" on="0"/>
        <pt x="-16" y="-129" on="0"/>
        <pt x="-31" y="-180" on="1"/>
        <pt x="-75" y="-180" on="1"/>
        <pt x="-44" y="5" on="1"/>
        <pt x="-42" y="20" on="0"/>
        <pt x="-17" y="40" on="0"/>
        <pt x="-2" y="40" on="1"/>
        <pt x="38" y="40" on="1"/>
        <pt x="105" y="146" on="0"/>
        <pt x="185" y="396" on="0"/>
        <pt x="211" y="540" on="1"/>
        <pt x="213" y="552" on="0"/>
        <pt x="215" y="573" on="0"/>
        <pt x="215" y="583" on="1"/>
        <pt x="215" y="609" on="0"/>
        <pt x="191" y="640" on="0"/>
        <pt x="158" y="640" on="1"/>
        <pt x="143" y="640" on="1"/>
        <pt x="147" y="660" on="1"/>
        <pt x="647" y="660" on="1"/>
        <pt x="538" y="40" on="1"/>
      </contour>
    </TTGlyph>
    <TTGlyph name="afii10022" xMin="60" yMin="0" xMax="585" yMax="660">
      <component glyphName="E" x="0" y="0" flags="0x204"/>
    </TTGlyph>
    <TTGlyph name="afii10023" xMin="60" yMin="0" xMax="585" yMax="830">
      <component glyphName="E" x="0" y="0" flags="0x204"/>
      <component glyphName="dieresis" x="136" y="40" flags="0x4"/>
    </TTGlyph>
    <TTGlyph name="afii10024" xMin="-57" yMin="-10" xMax="966" yMax="660">
      <contour>
        <pt x="358" y="370" on="1"/>
        <pt x="237" y="565" on="1"/>
        <pt x="211" y="608" on="0"/>
        <pt x="148" y="635" on="0"/>
        <pt x="114" y="635" on="1"/>
        <pt x="119" y="660" on="1"/>
        <pt x="169" y="660" on="1"/>
        <pt x="195" y="660" on="0"/>
        <pt x="236" y="643" on="0"/>
        <pt x="269" y="614" on="0"/>
        <pt x="297" y="576" on="0"/>
        <pt x="310" y="555" on="1"/>
        <pt x="443" y="345" on="1"/>
        <pt x="499" y="660" on="1"/>
        <pt x="586" y="660" on="1"/>
        <pt x="530" y="345" on="1"/>
        <pt x="737" y="555" on="1"/>
        <pt x="757" y="576" on="0"/>
        <pt x="799" y="614" on="0"/>
        <pt x="843" y="643" on="0"/>
        <pt x="890" y="660" on="0"/>
        <pt x="916" y="660" on="1"/>
        <pt x="966" y="660" on="1"/>
        <pt x="961" y="635" on="1"/>
        <pt x="927" y="635" on="0"/>
        <pt x="856" y="608" on="0"/>
        <pt x="814" y="565" on="1"/>
        <pt x="625" y="370" on="1"/>
        <pt x="772" y="130" on="1"/>
        <pt x="800" y="85" on="0"/>
        <pt x="879" y="23" on="0"/>
        <pt x="913" y="19" on="1"/>
        <pt x="910" y="0" on="1"/>
        <pt x="898" y="-4" on="0"/>
        <pt x="866" y="-10" on="0"/>
        <pt x="843" y="-10" on="1"/>
        <pt x="826" y="-10" on="0"/>
        <pt x="782" y="-1" on="0"/>
        <pt x="732" y="24" on="0"/>
        <pt x="682" y="71" on="0"/>
        <pt x="659" y="110" on="1"/>
        <pt x="528" y="330" on="1"/>
        <pt x="470" y="0" on="1"/>
        <pt x="383" y="0" on="1"/>
        <pt x="441" y="330" on="1"/>
        <pt x="232" y="110" on="1"/>
        <pt x="195" y="71" on="0"/>
        <pt x="128" y="24" on="0"/>
        <pt x="70" y="-1" on="0"/>
        <pt x="23" y="-10" on="0"/>
        <pt x="6" y="-10" on="1"/>
        <pt x="-17" y="-10" on="0"/>
        <pt x="-46" y="-4" on="0"/>
        <pt x="-57" y="0" on="1"/>
        <pt x="-53" y="19" on="1"/>
        <pt x="-36" y="21" on="0"/>
        <pt x="8" y="39" on="0"/>
        <pt x="55" y="69" on="0"/>
        <pt x="103" y="108" on="0"/>
        <pt x="125" y="130" on="1"/>
      </contour>
    </TTGlyph>
    <TTGlyph name="afii10025" xMin="0" yMin="-20" xMax="548" yMax="680">
      <contour>
        <pt x="179" y="355" on="1"/>
        <pt x="254" y="355" on="1"/>
        <pt x="290" y="355" on="0"/>
        <pt x="361" y="377" on="0"/>
        <pt x="417" y="421" on="0"/>
        <pt x="452" y="485" on="0"/>
        <pt x="452" y="527" on="1"/>
        <pt x="452" y="555" on="0"/>
        <pt x="431" y="598" on="0"/>
        <pt x="395" y="626" on="0"/>
        <pt x="349" y="640" on="0"/>
        <pt x="324" y="640" on="1"/>
        <pt x="252" y="640" on="0"/>
        <pt x="138" y="555" on="0"/>
        <pt x="106" y="480" on="1"/>
        <pt x="86" y="480" on="1"/>
        <pt x="94" y="525" on="0"/>
        <pt x="111" y="587" on="0"/>
        <pt x="134" y="610" on="1"/>
        <pt x="150" y="626" on="0"/>
        <pt x="197" y="652" on="0"/>
        <pt x="252" y="670" on="0"/>
        <pt x="310" y="680" on="0"/>
        <pt x="336" y="680" on="1"/>
        <pt x="370" y="680" on="0"/>
        <pt x="445" y="670" on="0"/>
        <pt x="507" y="638" on="0"/>
        <pt x="548" y="581" on="0"/>
        <pt x="548" y="535" on="1"/>
        <pt x="548" y="474" on="0"/>
        <pt x="470" y="369" on="0"/>
        <pt x="376" y="340" on="1"/>
        <pt x="453" y="325" on="0"/>
        <pt x="515" y="257" on="0"/>
        <pt x="515" y="208" on="1"/>
        <pt x="515" y="138" on="0"/>
        <pt x="454" y="49" on="0"/>
        <pt x="364" y="-1" on="0"/>
        <pt x="260" y="-20" on="0"/>
        <pt x="218" y="-20" on="1"/>
        <pt x="143" y="-20" on="0"/>
        <pt x="32" y="34" on="0"/>
        <pt x="0" y="105" on="1"/>
        <pt x="23" y="120" on="1"/>
        <pt x="49" y="75" on="0"/>
        <pt x="138" y="20" on="0"/>
        <pt x="210" y="20" on="1"/>
        <pt x="253" y="20" on="0"/>
        <pt x="328" y="44" on="0"/>
        <pt x="383" y="90" on="0"/>
        <pt x="414" y="156" on="0"/>
        <pt x="414" y="197" on="1"/>
        <pt x="414" y="254" on="0"/>
        <pt x="330" y="315" on="0"/>
        <pt x="247" y="315" on="1"/>
        <pt x="172" y="315" on="1"/>
      </contour>
    </TTGlyph>
    <TTGlyph name="afii10026" xMin="60" yMin="0" xMax="676" yMax="660">
      <contour>
        <pt x="570" y="570" on="1"/>
        <pt x="150" y="0" on="1"/>
        <pt x="60" y="0" on="1"/>
        <pt x="84" y="139" on="0"/>
        <pt x="118" y="332" on="0"/>
        <pt x="140" y="459" on="0"/>
        <pt x="152" y="531" on="0"/>
        <pt x="158" y="568" on="0"/>
        <pt x="159" y="580" on="0"/>
        <pt x="159" y="583" on="1"/>
        <pt x="159" y="609" on="0"/>
        <pt x="135" y="640" on="0"/>
        <pt x="102" y="640" on="1"/>
        <pt x="82" y="640" on="1"/>
        <pt x="86" y="660" on="1"/>
        <pt x="176" y="660" on="1"/>
        <pt x="216" y="660" on="0"/>
        <pt x="251" y="636" on="0"/>
        <pt x="251" y="599" on="1"/>
        <pt x="251" y="595" on="0"/>
        <pt x="250" y="582" on="0"/>
        <pt x="245" y="548" on="0"/>
        <pt x="234" y="484" on="0"/>
        <pt x="215" y="374" on="0"/>
        <pt x="186" y="208" on="0"/>
        <pt x="165" y="90" on="1"/>
        <pt x="586" y="660" on="1"/>
        <pt x="676" y="660" on="1"/>
        <pt x="560" y="0" on="1"/>
        <pt x="470" y="0" on="1"/>
      </contour>
    </TTGlyph>
    <TTGlyph name="afii10027" xMin="60" yMin="0" xMax="676" yMax="815">
      <component glyphName="afii10026" x="0" y="0" flags="0x204"/>
      <component glyphName="Breve" x="295" y="0" flags="0x4"/>
    </TTGlyph>
    <TTGlyph name="afii10028" xMin="60" yMin="-10" xMax="696" yMax="660">
      <component glyphName="K" x="0" y="0" flags="0x204"/>
    </TTGlyph>
    <TTGlyph name="afii10029" xMin="-53" yMin="-10" xMax="643" yMax="660">
      <contour>
        <pt x="207" y="540" on="1"/>
        <pt x="209" y="552" on="0"/>
        <pt x="211" y="573" on="0"/>
        <pt x="211" y="583" on="1"/>
        <pt x="211" y="609" on="0"/>
        <pt x="187" y="640" on="0"/>
        <pt x="154" y="640" on="1"/>
        <pt x="144" y="640" on="1"/>
        <pt x="148" y="660" on="1"/>
        <pt x="643" y="660" on="1"/>
        <pt x="527" y="0" on="1"/>
        <pt x="437" y="0" on="1"/>
        <pt x="546" y="620" on="1"/>
        <pt x="296" y="620" on="1"/>
        <pt x="282" y="540" on="1"/>
        <pt x="252" y="369" on="0"/>
        <pt x="183" y="155" on="0"/>
        <pt x="109" y="34" on="0"/>
        <pt x="32" y="-10" on="0"/>
        <pt x="-5" y="-10" on="1"/>
        <pt x="-16" y="-10" on="0"/>
        <pt x="-43" y="-5" on="0"/>
        <pt x="-53" y="-1" on="1"/>
        <pt x="-49" y="24" on="1"/>
        <pt x="-27" y="25" on="0"/>
        <pt x="18" y="42" on="0"/>
        <pt x="62" y="84" on="0"/>
        <pt x="105" y="156" on="0"/>
        <pt x="146" y="269" on="0"/>
        <pt x="187" y="430" on="0"/>
      </contour>
    </TTGlyph>
    <TTGlyph name="afii10030" xMin="38" yMin="-45" xMax="814" yMax="660">
      <component glyphName="M" x="0" y="0" flags="0x204"/>
    </TTGlyph>
    <TTGlyph name="afii10031" xMin="59" yMin="0" xMax="655" yMax="660">
      <component glyphName="H" x="0" y="0" flags="0x204"/>
    </TTGlyph>
    <TTGlyph name="afii10032" xMin="48" yMin="-20" xMax="682" yMax="680">
      <component glyphName="O" x="0" y="0" flags="0x204"/>
    </TTGlyph>
    <TTGlyph name="afii10033" xMin="59" yMin="0" xMax="655" yMax="660">
      <contour>
        <pt x="539" y="0" on="1"/>
        <pt x="449" y="0" on="1"/>
        <pt x="558" y="620" on="1"/>
        <pt x="258" y="620" on="1"/>
        <pt x="149" y="0" on="1"/>
        <pt x="59" y="0" on="1"/>
        <pt x="154" y="540" on="1"/>
        <pt x="156" y="552" on="0"/>
        <pt x="158" y="573" on="0"/>
        <pt x="158" y="583" on="1"/>
        <pt x="158" y="609" on="0"/>
        <pt x="134" y="640" on="0"/>
        <pt x="101" y="640" on="1"/>
        <pt x="81" y="640" on="1"/>
        <pt x="85" y="660" on="1"/>
        <pt x="655" y="660" on="1"/>
      </contour>
    </TTGlyph>
    <TTGlyph name="afii10034" xMin="60" yMin="0" xMax="565" yMax="660">
      <component glyphName="P" x="0" y="0" flags="0x204"/>
    </TTGlyph>
    <TTGlyph name="afii10035" xMin="45" yMin="-20" xMax="652" yMax="680">
      <component glyphName="C" x="0" y="0" flags="0x204"/>
    </TTGlyph>
    <TTGlyph name="afii10036" xMin="60" yMin="0" xMax="637" yMax="660">
      <component glyphName="T" x="0" y="0" flags="0x204"/>
    </TTGlyph>
    <TTGlyph name="afii10037" xMin="33" yMin="-10" xMax="652" yMax="660">
      <contour>
        <pt x="262" y="120" on="1"/>
        <pt x="149" y="530" on="1"/>
        <pt x="143" y="551" on="0"/>
        <pt x="130" y="589" on="0"/>
        <pt x="106" y="619" on="0"/>
        <pt x="66" y="638" on="0"/>
        <pt x="33" y="640" on="1"/>
        <pt x="37" y="660" on="1"/>
        <pt x="157" y="660" on="1"/>
        <pt x="181" y="660" on="0"/>
        <pt x="214" y="641" on="0"/>
        <pt x="237" y="610" on="0"/>
        <pt x="251" y="571" on="0"/>
        <pt x="257" y="550" on="1"/>
        <pt x="340" y="250" on="1"/>
        <pt x="592" y="660" on="1"/>
        <pt x="652" y="660" on="1"/>
        <pt x="306" y="95" on="1"/>
        <pt x="276" y="46" on="0"/>
        <pt x="189" y="-10" on="0"/>
        <pt x="129" y="-10" on="1"/>
        <pt x="79" y="-10" on="1"/>
        <pt x="84" y="20" on="1"/>
        <pt x="106" y="20" on="0"/>
        <pt x="153" y="27" on="0"/>
        <pt x="196" y="44" on="0"/>
        <pt x="233" y="73" on="0"/>
        <pt x="247" y="95" on="1"/>
      </contour>
    </TTGlyph>
    <TTGlyph name="afii10038" xMin="38" yMin="-30" xMax="760" yMax="690">
      <contour>
        <pt x="396" y="555" on="1"/>
        <pt x="331" y="554" on="0"/>
        <pt x="234" y="503" on="0"/>
        <pt x="169" y="418" on="0"/>
        <pt x="137" y="306" on="0"/>
        <pt x="137" y="244" on="1"/>
        <pt x="137" y="208" on="0"/>
        <pt x="155" y="146" on="0"/>
        <pt x="196" y="101" on="0"/>
        <pt x="263" y="75" on="0"/>
        <pt x="312" y="75" on="1"/>
      </contour>
      <contour>
        <pt x="402" y="75" on="1"/>
        <pt x="467" y="76" on="0"/>
        <pt x="564" y="127" on="0"/>
        <pt x="629" y="212" on="0"/>
        <pt x="661" y="324" on="0"/>
        <pt x="661" y="386" on="1"/>
        <pt x="661" y="422" on="0"/>
        <pt x="643" y="484" on="0"/>
        <pt x="602" y="529" on="0"/>
        <pt x="535" y="555" on="0"/>
        <pt x="486" y="555" on="1"/>
      </contour>
      <contour>
        <pt x="493" y="595" on="1"/>
        <pt x="629" y="595" on="0"/>
        <pt x="760" y="479" on="0"/>
        <pt x="760" y="380" on="1"/>
        <pt x="760" y="303" on="0"/>
        <pt x="710" y="176" on="0"/>
        <pt x="616" y="85" on="0"/>
        <pt x="481" y="35" on="0"/>
        <pt x="395" y="35" on="1"/>
        <pt x="383" y="-30" on="1"/>
        <pt x="293" y="-30" on="1"/>
        <pt x="305" y="35" on="1"/>
        <pt x="168" y="35" on="0"/>
        <pt x="38" y="151" on="0"/>
        <pt x="38" y="250" on="1"/>
        <pt x="38" y="327" on="0"/>
        <pt x="87" y="454" on="0"/>
        <pt x="181" y="545" on="0"/>
        <pt x="317" y="595" on="0"/>
        <pt x="403" y="595" on="1"/>
        <pt x="406" y="616" on="0"/>
        <pt x="406" y="624" on="1"/>
        <pt x="406" y="649" on="0"/>
        <pt x="379" y="670" on="0"/>
        <pt x="347" y="670" on="1"/>
        <pt x="327" y="670" on="1"/>
        <pt x="330" y="690" on="1"/>
        <pt x="420" y="690" on="1"/>
        <pt x="462" y="690" on="0"/>
        <pt x="497" y="666" on="0"/>
        <pt x="497" y="635" on="1"/>
        <pt x="497" y="627" on="0"/>
        <pt x="495" y="609" on="0"/>
      </contour>
    </TTGlyph>
    <TTGlyph name="afii10039" xMin="-9" yMin="0" xMax="667" yMax="660">
      <component glyphName="X" x="0" y="0" flags="0x204"/>
    </TTGlyph>
    <TTGlyph name="afii10040" xMin="60" yMin="-180" xMax="656" yMax="660">
      <contour>
        <pt x="60" y="0" on="1"/>
        <pt x="84" y="139" on="0"/>
        <pt x="118" y="332" on="0"/>
        <pt x="140" y="459" on="0"/>
        <pt x="152" y="531" on="0"/>
        <pt x="158" y="568" on="0"/>
        <pt x="159" y="580" on="0"/>
        <pt x="159" y="583" on="1"/>
        <pt x="159" y="609" on="0"/>
        <pt x="135" y="640" on="0"/>
        <pt x="102" y="640" on="1"/>
        <pt x="82" y="640" on="1"/>
        <pt x="86" y="660" on="1"/>
        <pt x="176" y="660" on="1"/>
        <pt x="216" y="660" on="0"/>
        <pt x="251" y="636" on="0"/>
        <pt x="251" y="599" on="1"/>
        <pt x="251" y="595" on="0"/>
        <pt x="250" y="582" on="0"/>
        <pt x="244" y="545" on="0"/>
        <pt x="233" y="475" on="0"/>
        <pt x="212" y="353" on="0"/>
        <pt x="180" y="171" on="0"/>
        <pt x="157" y="40" on="1"/>
        <pt x="457" y="40" on="1"/>
        <pt x="566" y="660" on="1"/>
        <pt x="656" y="660" on="1"/>
        <pt x="547" y="40" on="1"/>
        <pt x="602" y="40" on="1"/>
        <pt x="615" y="40" on="0"/>
        <pt x="631" y="25" on="0"/>
        <pt x="631" y="12" on="1"/>
        <pt x="631" y="11" on="0"/>
        <pt x="630" y="4" on="0"/>
        <pt x="623" y="-33" on="0"/>
        <pt x="610" y="-110" on="0"/>
        <pt x="598" y="-180" on="1"/>
        <pt x="553" y="-180" on="1"/>
        <pt x="554" y="-169" on="0"/>
        <pt x="554" y="-150" on="0"/>
        <pt x="554" y="-140" on="1"/>
        <pt x="554" y="-61" on="0"/>
        <pt x="508" y="0" on="0"/>
        <pt x="460" y="0" on="1"/>
      </contour>
    </TTGlyph>
    <TTGlyph name="afii10041" xMin="64" yMin="0" xMax="618" yMax="660">
      <contour>
        <pt x="333" y="290" on="1"/>
        <pt x="363" y="290" on="0"/>
        <pt x="438" y="299" on="0"/>
        <pt x="466" y="310" on="1"/>
        <pt x="528" y="660" on="1"/>
        <pt x="618" y="660" on="1"/>
        <pt x="502" y="0" on="1"/>
        <pt x="412" y="0" on="1"/>
        <pt x="459" y="270" on="1"/>
        <pt x="445" y="264" on="0"/>
        <pt x="409" y="256" on="0"/>
        <pt x="372" y="252" on="0"/>
        <pt x="336" y="250" on="0"/>
        <pt x="321" y="250" on="1"/>
        <pt x="276" y="250" on="0"/>
        <pt x="198" y="261" on="0"/>
        <pt x="140" y="294" on="0"/>
        <pt x="107" y="352" on="0"/>
        <pt x="107" y="400" on="1"/>
        <pt x="107" y="422" on="0"/>
        <pt x="114" y="467" on="0"/>
        <pt x="123" y="512" on="0"/>
        <pt x="131" y="559" on="0"/>
        <pt x="131" y="583" on="1"/>
        <pt x="131" y="609" on="0"/>
        <pt x="107" y="640" on="0"/>
        <pt x="74" y="640" on="1"/>
        <pt x="64" y="640" on="1"/>
        <pt x="68" y="660" on="1"/>
        <pt x="158" y="660" on="1"/>
        <pt x="198" y="660" on="0"/>
        <pt x="233" y="636" on="0"/>
        <pt x="233" y="599" on="1"/>
        <pt x="233" y="573" on="0"/>
        <pt x="224" y="522" on="0"/>
        <pt x="214" y="471" on="0"/>
        <pt x="205" y="418" on="0"/>
        <pt x="205" y="391" on="1"/>
        <pt x="205" y="361" on="0"/>
        <pt x="222" y="321" on="0"/>
        <pt x="254" y="299" on="0"/>
        <pt x="302" y="290" on="0"/>
      </contour>
    </TTGlyph>
    <TTGlyph name="afii10042" xMin="60" yMin="0" xMax="916" yMax="660">
      <contour>
        <pt x="60" y="0" on="1"/>
        <pt x="84" y="139" on="0"/>
        <pt x="118" y="332" on="0"/>
        <pt x="140" y="459" on="0"/>
        <pt x="152" y="531" on="0"/>
        <pt x="158" y="568" on="0"/>
        <pt x="159" y="580" on="0"/>
        <pt x="159" y="583" on="1"/>
        <pt x="159" y="609" on="0"/>
        <pt x="135" y="640" on="0"/>
        <pt x="102" y="640" on="1"/>
        <pt x="82" y="640" on="1"/>
        <pt x="86" y="660" on="1"/>
        <pt x="176" y="660" on="1"/>
        <pt x="216" y="660" on="0"/>
        <pt x="251" y="636" on="0"/>
        <pt x="251" y="599" on="1"/>
        <pt x="251" y="595" on="0"/>
        <pt x="250" y="582" on="0"/>
        <pt x="244" y="545" on="0"/>
        <pt x="233" y="475" on="0"/>
        <pt x="212" y="353" on="0"/>
        <pt x="180" y="171" on="0"/>
        <pt x="157" y="40" on="1"/>
        <pt x="392" y="40" on="1"/>
        <pt x="501" y="660" on="1"/>
        <pt x="591" y="660" on="1"/>
        <pt x="482" y="40" on="1"/>
        <pt x="717" y="40" on="1"/>
        <pt x="826" y="660" on="1"/>
        <pt x="916" y="660" on="1"/>
        <pt x="800" y="0" on="1"/>
      </contour>
    </TTGlyph>
    <TTGlyph name="afii10043" xMin="60" yMin="-180" xMax="916" yMax="660">
      <contour>
        <pt x="60" y="0" on="1"/>
        <pt x="84" y="139" on="0"/>
        <pt x="118" y="332" on="0"/>
        <pt x="140" y="459" on="0"/>
        <pt x="152" y="531" on="0"/>
        <pt x="158" y="568" on="0"/>
        <pt x="159" y="580" on="0"/>
        <pt x="159" y="583" on="1"/>
        <pt x="159" y="609" on="0"/>
        <pt x="135" y="640" on="0"/>
        <pt x="102" y="640" on="1"/>
        <pt x="82" y="640" on="1"/>
        <pt x="86" y="660" on="1"/>
        <pt x="176" y="660" on="1"/>
        <pt x="216" y="660" on="0"/>
        <pt x="251" y="636" on="0"/>
        <pt x="251" y="599" on="1"/>
        <pt x="251" y="595" on="0"/>
        <pt x="250" y="582" on="0"/>
        <pt x="244" y="545" on="0"/>
        <pt x="233" y="475" on="0"/>
        <pt x="212" y="353" on="0"/>
        <pt x="180" y="171" on="0"/>
        <pt x="157" y="40" on="1"/>
        <pt x="392" y="40" on="1"/>
        <pt x="501" y="660" on="1"/>
        <pt x="591" y="660" on="1"/>
        <pt x="482" y="40" on="1"/>
        <pt x="717" y="40" on="1"/>
        <pt x="826" y="660" on="1"/>
        <pt x="916" y="660" on="1"/>
        <pt x="807" y="40" on="1"/>
        <pt x="862" y="40" on="1"/>
        <pt x="875" y="40" on="0"/>
        <pt x="891" y="25" on="0"/>
        <pt x="891" y="12" on="1"/>
        <pt x="891" y="10" on="0"/>
        <pt x="890" y="7" on="0"/>
        <pt x="890" y="5" on="1"/>
        <pt x="858" y="-180" on="1"/>
        <pt x="813" y="-180" on="1"/>
        <pt x="814" y="-169" on="0"/>
        <pt x="814" y="-150" on="0"/>
        <pt x="814" y="-140" on="1"/>
        <pt x="814" y="-61" on="0"/>
        <pt x="768" y="0" on="0"/>
        <pt x="720" y="0" on="1"/>
      </contour>
    </TTGlyph>
    <TTGlyph name="afii10044" xMin="62" yMin="0" xMax="666" yMax="660">
      <contour>
        <pt x="563" y="190" on="1"/>
        <pt x="566" y="209" on="0"/>
        <pt x="566" y="226" on="1"/>
        <pt x="566" y="286" on="0"/>
        <pt x="483" y="345" on="0"/>
        <pt x="410" y="345" on="1"/>
        <pt x="363" y="345" on="0"/>
        <pt x="313" y="331" on="1"/>
        <pt x="263" y="49" on="1"/>
        <pt x="310" y="35" on="0"/>
        <pt x="356" y="35" on="1"/>
        <pt x="440" y="35" on="0"/>
        <pt x="549" y="111" on="0"/>
      </contour>
      <contour>
        <pt x="90" y="625" on="1"/>
        <pt x="92" y="640" on="0"/>
        <pt x="115" y="660" on="0"/>
        <pt x="131" y="660" on="1"/>
        <pt x="371" y="660" on="1"/>
        <pt x="322" y="380" on="1"/>
        <pt x="432" y="380" on="1"/>
        <pt x="472" y="380" on="0"/>
        <pt x="555" y="368" on="0"/>
        <pt x="623" y="335" on="0"/>
        <pt x="666" y="276" on="0"/>
        <pt x="666" y="228" on="1"/>
        <pt x="666" y="156" on="0"/>
        <pt x="605" y="66" on="0"/>
        <pt x="515" y="17" on="0"/>
        <pt x="410" y="0" on="0"/>
        <pt x="365" y="0" on="1"/>
        <pt x="256" y="0" on="1"/>
        <pt x="165" y="0" on="1"/>
        <pt x="274" y="620" on="1"/>
        <pt x="244" y="620" on="1"/>
        <pt x="212" y="620" on="0"/>
        <pt x="163" y="605" on="0"/>
        <pt x="127" y="571" on="0"/>
        <pt x="102" y="513" on="0"/>
        <pt x="92" y="470" on="1"/>
        <pt x="62" y="470" on="1"/>
      </contour>
    </TTGlyph>
    <TTGlyph name="afii10045" xMin="60" yMin="0" xMax="796" yMax="660">
      <contour>
        <pt x="327" y="380" on="1"/>
        <pt x="361" y="380" on="0"/>
        <pt x="438" y="368" on="0"/>
        <pt x="503" y="335" on="0"/>
        <pt x="546" y="276" on="0"/>
        <pt x="546" y="228" on="1"/>
        <pt x="546" y="156" on="0"/>
        <pt x="485" y="66" on="0"/>
        <pt x="397" y="17" on="0"/>
        <pt x="298" y="0" on="0"/>
        <pt x="260" y="0" on="1"/>
        <pt x="150" y="0" on="1"/>
        <pt x="60" y="0" on="1"/>
        <pt x="84" y="139" on="0"/>
        <pt x="118" y="332" on="0"/>
        <pt x="140" y="459" on="0"/>
        <pt x="152" y="531" on="0"/>
        <pt x="158" y="568" on="0"/>
        <pt x="159" y="580" on="0"/>
        <pt x="159" y="583" on="1"/>
        <pt x="159" y="609" on="0"/>
        <pt x="135" y="640" on="0"/>
        <pt x="102" y="640" on="1"/>
        <pt x="82" y="640" on="1"/>
        <pt x="86" y="660" on="1"/>
        <pt x="176" y="660" on="1"/>
        <pt x="216" y="660" on="0"/>
        <pt x="251" y="636" on="0"/>
        <pt x="251" y="599" on="1"/>
        <pt x="251" y="593" on="0"/>
        <pt x="249" y="575" on="0"/>
        <pt x="243" y="530" on="0"/>
        <pt x="229" y="449" on="0"/>
        <pt x="217" y="380" on="1"/>
      </contour>
      <contour>
        <pt x="251" y="35" on="1"/>
        <pt x="291" y="35" on="0"/>
        <pt x="362" y="62" on="0"/>
        <pt x="415" y="112" on="0"/>
        <pt x="446" y="183" on="0"/>
        <pt x="446" y="226" on="1"/>
        <pt x="446" y="286" on="0"/>
        <pt x="368" y="345" on="0"/>
        <pt x="305" y="345" on="1"/>
        <pt x="258" y="345" on="0"/>
        <pt x="208" y="331" on="1"/>
        <pt x="158" y="49" on="1"/>
        <pt x="205" y="35" on="0"/>
      </contour>
      <contour>
        <pt x="796" y="660" on="1"/>
        <pt x="771" y="521" on="0"/>
        <pt x="738" y="328" on="0"/>
        <pt x="715" y="200" on="0"/>
        <pt x="703" y="127" on="0"/>
        <pt x="697" y="90" on="0"/>
        <pt x="696" y="78" on="0"/>
        <pt x="696" y="75" on="1"/>
        <pt x="696" y="49" on="0"/>
        <pt x="720" y="20" on="0"/>
        <pt x="753" y="20" on="1"/>
        <pt x="773" y="20" on="1"/>
        <pt x="770" y="0" on="1"/>
        <pt x="680" y="0" on="1"/>
        <pt x="640" y="0" on="0"/>
        <pt x="604" y="23" on="0"/>
        <pt x="604" y="60" on="1"/>
        <pt x="604" y="64" on="0"/>
        <pt x="605" y="78" on="0"/>
        <pt x="612" y="117" on="0"/>
        <pt x="624" y="192" on="0"/>
        <pt x="647" y="323" on="0"/>
        <pt x="681" y="519" on="0"/>
        <pt x="706" y="660" on="1"/>
      </contour>
    </TTGlyph>
    <TTGlyph name="afii10046" xMin="60" yMin="0" xMax="561" yMax="660">
      <contour>
        <pt x="251" y="35" on="1"/>
        <pt x="294" y="35" on="0"/>
        <pt x="370" y="59" on="0"/>
        <pt x="427" y="107" on="0"/>
        <pt x="461" y="178" on="0"/>
        <pt x="461" y="226" on="1"/>
        <pt x="461" y="286" on="0"/>
        <pt x="378" y="345" on="0"/>
        <pt x="305" y="345" on="1"/>
        <pt x="258" y="345" on="0"/>
        <pt x="208" y="331" on="1"/>
        <pt x="158" y="49" on="1"/>
        <pt x="205" y="35" on="0"/>
      </contour>
      <contour>
        <pt x="327" y="380" on="1"/>
        <pt x="367" y="380" on="0"/>
        <pt x="450" y="368" on="0"/>
        <pt x="518" y="335" on="0"/>
        <pt x="561" y="276" on="0"/>
        <pt x="561" y="228" on="1"/>
        <pt x="561" y="156" on="0"/>
        <pt x="500" y="66" on="0"/>
        <pt x="410" y="17" on="0"/>
        <pt x="305" y="0" on="0"/>
        <pt x="260" y="0" on="1"/>
        <pt x="150" y="0" on="1"/>
        <pt x="60" y="0" on="1"/>
        <pt x="84" y="139" on="0"/>
        <pt x="118" y="332" on="0"/>
        <pt x="140" y="459" on="0"/>
        <pt x="152" y="531" on="0"/>
        <pt x="158" y="568" on="0"/>
        <pt x="159" y="580" on="0"/>
        <pt x="159" y="583" on="1"/>
        <pt x="159" y="609" on="0"/>
        <pt x="135" y="640" on="0"/>
        <pt x="102" y="640" on="1"/>
        <pt x="82" y="640" on="1"/>
        <pt x="86" y="660" on="1"/>
        <pt x="176" y="660" on="1"/>
        <pt x="216" y="660" on="0"/>
        <pt x="251" y="636" on="0"/>
        <pt x="251" y="599" on="1"/>
        <pt x="251" y="593" on="0"/>
        <pt x="249" y="575" on="0"/>
        <pt x="243" y="530" on="0"/>
        <pt x="229" y="449" on="0"/>
        <pt x="217" y="380" on="1"/>
      </contour>
    </TTGlyph>
    <TTGlyph name="afii10047" xMin="12" yMin="-20" xMax="634" yMax="680">
      <contour>
        <pt x="86" y="450" on="1"/>
        <pt x="94" y="495" on="0"/>
        <pt x="114" y="577" on="0"/>
        <pt x="137" y="600" on="1"/>
        <pt x="169" y="633" on="0"/>
        <pt x="298" y="680" on="0"/>
        <pt x="381" y="680" on="1"/>
        <pt x="437" y="680" on="0"/>
        <pt x="530" y="636" on="0"/>
        <pt x="597" y="559" on="0"/>
        <pt x="634" y="454" on="0"/>
        <pt x="634" y="392" on="1"/>
        <pt x="634" y="309" on="0"/>
        <pt x="576" y="160" on="0"/>
        <pt x="474" y="47" on="0"/>
        <pt x="337" y="-20" on="0"/>
        <pt x="258" y="-20" on="1"/>
        <pt x="213" y="-20" on="0"/>
        <pt x="137" y="-4" on="0"/>
        <pt x="75" y="35" on="0"/>
        <pt x="28" y="98" on="0"/>
        <pt x="12" y="145" on="1"/>
        <pt x="35" y="160" on="1"/>
        <pt x="65" y="91" on="0"/>
        <pt x="160" y="20" on="0"/>
        <pt x="235" y="20" on="1"/>
        <pt x="297" y="20" on="0"/>
        <pt x="395" y="70" on="0"/>
        <pt x="467" y="151" on="0"/>
        <pt x="515" y="256" on="0"/>
        <pt x="526" y="310" on="1"/>
        <pt x="195" y="310" on="1"/>
        <pt x="202" y="350" on="1"/>
        <pt x="533" y="350" on="1"/>
        <pt x="535" y="369" on="0"/>
        <pt x="538" y="404" on="0"/>
        <pt x="538" y="421" on="1"/>
        <pt x="538" y="481" on="0"/>
        <pt x="508" y="565" on="0"/>
        <pt x="456" y="617" on="0"/>
        <pt x="385" y="640" on="0"/>
        <pt x="344" y="640" on="1"/>
        <pt x="260" y="640" on="0"/>
        <pt x="142" y="549" on="0"/>
        <pt x="106" y="450" on="1"/>
      </contour>
    </TTGlyph>
    <TTGlyph name="afii10048" xMin="60" yMin="-20" xMax="846" yMax="680">
      <contour>
        <pt x="619" y="680" on="1"/>
        <pt x="670" y="680" on="0"/>
        <pt x="754" y="643" on="0"/>
        <pt x="813" y="574" on="0"/>
        <pt x="846" y="477" on="0"/>
        <pt x="846" y="416" on="1"/>
        <pt x="846" y="319" on="0"/>
        <pt x="786" y="159" on="0"/>
        <pt x="687" y="44" on="0"/>
        <pt x="561" y="-20" on="0"/>
        <pt x="496" y="-20" on="1"/>
        <pt x="444" y="-20" on="0"/>
        <pt x="361" y="17" on="0"/>
        <pt x="302" y="86" on="0"/>
        <pt x="270" y="184" on="0"/>
        <pt x="270" y="244" on="1"/>
        <pt x="270" y="281" on="0"/>
        <pt x="276" y="320" on="1"/>
        <pt x="206" y="320" on="1"/>
        <pt x="150" y="0" on="1"/>
        <pt x="60" y="0" on="1"/>
        <pt x="84" y="139" on="0"/>
        <pt x="118" y="332" on="0"/>
        <pt x="140" y="459" on="0"/>
        <pt x="152" y="531" on="0"/>
        <pt x="158" y="568" on="0"/>
        <pt x="159" y="580" on="0"/>
        <pt x="159" y="583" on="1"/>
        <pt x="159" y="609" on="0"/>
        <pt x="135" y="640" on="0"/>
        <pt x="102" y="640" on="1"/>
        <pt x="82" y="640" on="1"/>
        <pt x="86" y="660" on="1"/>
        <pt x="176" y="660" on="1"/>
        <pt x="216" y="660" on="0"/>
        <pt x="251" y="636" on="0"/>
        <pt x="251" y="599" on="1"/>
        <pt x="251" y="593" on="0"/>
        <pt x="249" y="574" on="0"/>
        <pt x="242" y="526" on="0"/>
        <pt x="226" y="436" on="0"/>
        <pt x="213" y="360" on="1"/>
        <pt x="284" y="360" on="1"/>
        <pt x="302" y="433" on="0"/>
        <pt x="368" y="551" on="0"/>
        <pt x="456" y="635" on="0"/>
        <pt x="562" y="680" on="0"/>
      </contour>
      <contour>
        <pt x="612" y="640" on="1"/>
        <pt x="569" y="640" on="0"/>
        <pt x="499" y="598" on="0"/>
        <pt x="444" y="528" on="0"/>
        <pt x="405" y="439" on="0"/>
        <pt x="379" y="347" on="0"/>
        <pt x="367" y="257" on="0"/>
        <pt x="367" y="222" on="1"/>
        <pt x="367" y="123" on="0"/>
        <pt x="443" y="20" on="0"/>
        <pt x="503" y="20" on="1"/>
        <pt x="546" y="20" on="0"/>
        <pt x="617" y="62" on="0"/>
        <pt x="671" y="132" on="0"/>
        <pt x="710" y="220" on="0"/>
        <pt x="736" y="313" on="0"/>
        <pt x="748" y="401" on="0"/>
        <pt x="748" y="436" on="1"/>
        <pt x="748" y="536" on="0"/>
        <pt x="673" y="640" on="0"/>
      </contour>
    </TTGlyph>
    <TTGlyph name="afii10049" xMin="-32" yMin="-10" xMax="654" yMax="660">
      <contour>
        <pt x="415" y="270" on="1"/>
        <pt x="318" y="270" on="1"/>
        <pt x="180" y="80" on="1"/>
        <pt x="141" y="27" on="0"/>
        <pt x="70" y="-10" on="0"/>
        <pt x="26" y="-10" on="1"/>
        <pt x="11" y="-10" on="0"/>
        <pt x="-21" y="-3" on="0"/>
        <pt x="-32" y="1" on="1"/>
        <pt x="-29" y="20" on="1"/>
        <pt x="9" y="24" on="0"/>
        <pt x="69" y="66" on="0"/>
        <pt x="95" y="100" on="1"/>
        <pt x="232" y="280" on="1"/>
        <pt x="212" y="285" on="0"/>
        <pt x="170" y="305" on="0"/>
        <pt x="136" y="337" on="0"/>
        <pt x="115" y="385" on="0"/>
        <pt x="115" y="419" on="1"/>
        <pt x="115" y="473" on="0"/>
        <pt x="146" y="552" on="0"/>
        <pt x="197" y="605" on="0"/>
        <pt x="260" y="637" on="0"/>
        <pt x="324" y="655" on="0"/>
        <pt x="383" y="660" on="0"/>
        <pt x="404" y="660" on="1"/>
        <pt x="654" y="660" on="1"/>
        <pt x="650" y="640" on="1"/>
        <pt x="640" y="640" on="1"/>
        <pt x="617" y="640" on="0"/>
        <pt x="587" y="626" on="0"/>
        <pt x="568" y="599" on="0"/>
        <pt x="557" y="562" on="0"/>
        <pt x="553" y="540" on="1"/>
        <pt x="458" y="0" on="1"/>
        <pt x="368" y="0" on="1"/>
      </contour>
      <contour>
        <pt x="346" y="305" on="1"/>
        <pt x="365" y="305" on="0"/>
        <pt x="407" y="311" on="0"/>
        <pt x="423" y="315" on="1"/>
        <pt x="476" y="615" on="1"/>
        <pt x="462" y="619" on="0"/>
        <pt x="422" y="625" on="0"/>
        <pt x="403" y="625" on="1"/>
        <pt x="382" y="625" on="0"/>
        <pt x="318" y="605" on="0"/>
        <pt x="259" y="560" on="0"/>
        <pt x="216" y="486" on="0"/>
        <pt x="216" y="432" on="1"/>
        <pt x="216" y="396" on="0"/>
        <pt x="243" y="348" on="0"/>
        <pt x="282" y="318" on="0"/>
        <pt x="327" y="305" on="0"/>
      </contour>
    </TTGlyph>
    <TTGlyph name="afii10050" xMin="60" yMin="0" xMax="606" yMax="775">
      <contour>
        <pt x="259" y="620" on="1"/>
        <pt x="150" y="0" on="1"/>
        <pt x="60" y="0" on="1"/>
        <pt x="84" y="139" on="0"/>
        <pt x="118" y="332" on="0"/>
        <pt x="140" y="459" on="0"/>
        <pt x="152" y="531" on="0"/>
        <pt x="158" y="568" on="0"/>
        <pt x="159" y="580" on="0"/>
        <pt x="159" y="583" on="1"/>
        <pt x="159" y="609" on="0"/>
        <pt x="135" y="640" on="0"/>
        <pt x="102" y="640" on="1"/>
        <pt x="82" y="640" on="1"/>
        <pt x="86" y="660" on="1"/>
        <pt x="441" y="660" on="1"/>
        <pt x="501" y="660" on="0"/>
        <pt x="575" y="715" on="0"/>
        <pt x="586" y="775" on="1"/>
        <pt x="606" y="775" on="1"/>
        <pt x="587" y="665" on="1"/>
        <pt x="584" y="646" on="0"/>
        <pt x="552" y="620" on="0"/>
        <pt x="534" y="620" on="1"/>
      </contour>
    </TTGlyph>
    <TTGlyph name="afii10051" xMin="57" yMin="-42" xMax="580" yMax="660">
      <contour>
        <pt x="349" y="-20" on="1"/>
        <pt x="375" y="-20" on="0"/>
        <pt x="416" y="12" on="0"/>
        <pt x="447" y="61" on="0"/>
        <pt x="469" y="123" on="0"/>
        <pt x="483" y="186" on="0"/>
        <pt x="489" y="243" on="0"/>
        <pt x="489" y="264" on="1"/>
        <pt x="489" y="300" on="0"/>
        <pt x="471" y="347" on="0"/>
        <pt x="440" y="374" on="0"/>
        <pt x="399" y="385" on="0"/>
        <pt x="375" y="385" on="1"/>
        <pt x="337" y="385" on="0"/>
        <pt x="254" y="360" on="0"/>
        <pt x="228" y="345" on="1"/>
        <pt x="168" y="0" on="1"/>
        <pt x="78" y="0" on="1"/>
        <pt x="187" y="620" on="1"/>
        <pt x="57" y="620" on="1"/>
        <pt x="64" y="660" on="1"/>
        <pt x="414" y="660" on="1"/>
        <pt x="407" y="620" on="1"/>
        <pt x="277" y="620" on="1"/>
        <pt x="236" y="390" on="1"/>
        <pt x="262" y="405" on="0"/>
        <pt x="360" y="430" on="0"/>
        <pt x="413" y="430" on="1"/>
        <pt x="446" y="430" on="0"/>
        <pt x="507" y="418" on="0"/>
        <pt x="553" y="384" on="0"/>
        <pt x="580" y="324" on="0"/>
        <pt x="580" y="276" on="1"/>
        <pt x="580" y="214" on="0"/>
        <pt x="556" y="100" on="0"/>
        <pt x="505" y="11" on="0"/>
        <pt x="427" y="-42" on="0"/>
        <pt x="374" y="-42" on="1"/>
        <pt x="367" y="-42" on="0"/>
        <pt x="353" y="-41" on="0"/>
        <pt x="345" y="-40" on="1"/>
      </contour>
    </TTGlyph>
    <TTGlyph name="afii10052" xMin="60" yMin="0" xMax="574" yMax="815">
      <component glyphName="afii10020" x="0" y="0" flags="0x204"/>
      <component glyphName="acute.alt1" x="232" y="0" flags="0x4"/>
    </TTGlyph>
    <TTGlyph name="afii10053" xMin="46" yMin="-20" xMax="653" yMax="680">
      <contour>
        <pt x="621" y="450" on="1"/>
        <pt x="619" y="549" on="0"/>
        <pt x="533" y="640" on="0"/>
        <pt x="449" y="640" on="1"/>
        <pt x="402" y="640" on="0"/>
        <pt x="314" y="610" on="0"/>
        <pt x="237" y="541" on="0"/>
        <pt x="176" y="431" on="0"/>
        <pt x="158" y="350" on="1"/>
        <pt x="489" y="350" on="1"/>
        <pt x="482" y="310" on="1"/>
        <pt x="151" y="310" on="1"/>
        <pt x="149" y="294" on="0"/>
        <pt x="146" y="262" on="0"/>
        <pt x="146" y="247" on="1"/>
        <pt x="146" y="202" on="0"/>
        <pt x="167" y="119" on="0"/>
        <pt x="213" y="57" on="0"/>
        <pt x="287" y="20" on="0"/>
        <pt x="340" y="20" on="1"/>
        <pt x="415" y="20" on="0"/>
        <pt x="536" y="91" on="0"/>
        <pt x="590" y="160" on="1"/>
        <pt x="607" y="145" on="1"/>
        <pt x="575" y="98" on="0"/>
        <pt x="505" y="35" on="0"/>
        <pt x="430" y="-4" on="0"/>
        <pt x="348" y="-20" on="0"/>
        <pt x="303" y="-20" on="1"/>
        <pt x="241" y="-20" on="0"/>
        <pt x="145" y="20" on="0"/>
        <pt x="80" y="92" on="0"/>
        <pt x="46" y="190" on="0"/>
        <pt x="46" y="247" on="1"/>
        <pt x="46" y="334" on="0"/>
        <pt x="111" y="491" on="0"/>
        <pt x="218" y="610" on="0"/>
        <pt x="355" y="680" on="0"/>
        <pt x="426" y="680" on="1"/>
        <pt x="539" y="680" on="0"/>
        <pt x="653" y="604" on="0"/>
        <pt x="653" y="550" on="1"/>
        <pt x="653" y="527" on="0"/>
        <pt x="646" y="476" on="0"/>
        <pt x="641" y="450" on="1"/>
      </contour>
    </TTGlyph>
    <TTGlyph name="afii10054" xMin="23" yMin="-17" xMax="515" yMax="678">
      <component glyphName="S" x="0" y="0" flags="0x204"/>
    </TTGlyph>
    <TTGlyph name="afii10055" xMin="56" yMin="0" xMax="248" yMax="660">
      <component glyphName="I" x="0" y="0" flags="0x200"/>
    </TTGlyph>
    <TTGlyph name="afii10056" xMin="56" yMin="0" xMax="349" yMax="815">
      <component glyphName="Idieresis" x="0" y="0" flags="0x204"/>
    </TTGlyph>
    <TTGlyph name="afii10057" xMin="-80" yMin="-137" xMax="245" yMax="660">
      <component glyphName="J" x="0" y="0" flags="0x200"/>
    </TTGlyph>
    <TTGlyph name="afii10058" xMin="-53" yMin="-10" xMax="928" yMax="660">
      <contour>
        <pt x="618" y="35" on="1"/>
        <pt x="661" y="35" on="0"/>
        <pt x="737" y="59" on="0"/>
        <pt x="794" y="107" on="0"/>
        <pt x="828" y="178" on="0"/>
        <pt x="828" y="226" on="1"/>
        <pt x="828" y="286" on="0"/>
        <pt x="745" y="345" on="0"/>
        <pt x="672" y="345" on="1"/>
        <pt x="649" y="345" on="0"/>
        <pt x="600" y="338" on="0"/>
        <pt x="575" y="330" on="1"/>
        <pt x="525" y="50" on="1"/>
        <pt x="547" y="42" on="0"/>
        <pt x="595" y="35" on="0"/>
      </contour>
      <contour>
        <pt x="633" y="660" on="1"/>
        <pt x="584" y="380" on="1"/>
        <pt x="694" y="380" on="1"/>
        <pt x="734" y="380" on="0"/>
        <pt x="817" y="368" on="0"/>
        <pt x="885" y="335" on="0"/>
        <pt x="928" y="276" on="0"/>
        <pt x="928" y="228" on="1"/>
        <pt x="928" y="156" on="0"/>
        <pt x="867" y="66" on="0"/>
        <pt x="777" y="17" on="0"/>
        <pt x="672" y="0" on="0"/>
        <pt x="627" y="0" on="1"/>
        <pt x="518" y="0" on="1"/>
        <pt x="427" y="0" on="1"/>
        <pt x="536" y="620" on="1"/>
        <pt x="296" y="620" on="1"/>
        <pt x="282" y="540" on="1"/>
        <pt x="252" y="369" on="0"/>
        <pt x="183" y="155" on="0"/>
        <pt x="109" y="34" on="0"/>
        <pt x="32" y="-10" on="0"/>
        <pt x="-5" y="-10" on="1"/>
        <pt x="-16" y="-10" on="0"/>
        <pt x="-43" y="-5" on="0"/>
        <pt x="-53" y="-1" on="1"/>
        <pt x="-49" y="24" on="1"/>
        <pt x="-27" y="25" on="0"/>
        <pt x="18" y="42" on="0"/>
        <pt x="62" y="84" on="0"/>
        <pt x="105" y="156" on="0"/>
        <pt x="146" y="269" on="0"/>
        <pt x="187" y="430" on="0"/>
        <pt x="207" y="540" on="1"/>
        <pt x="209" y="552" on="0"/>
        <pt x="211" y="573" on="0"/>
        <pt x="211" y="583" on="1"/>
        <pt x="211" y="609" on="0"/>
        <pt x="187" y="640" on="0"/>
        <pt x="154" y="640" on="1"/>
        <pt x="144" y="640" on="1"/>
        <pt x="148" y="660" on="1"/>
      </contour>
    </TTGlyph>
    <TTGlyph name="afii10059" xMin="60" yMin="0" xMax="939" yMax="660">
      <contour>
        <pt x="593" y="360" on="1"/>
        <pt x="703" y="360" on="1"/>
        <pt x="743" y="360" on="0"/>
        <pt x="826" y="348" on="0"/>
        <pt x="895" y="317" on="0"/>
        <pt x="939" y="260" on="0"/>
        <pt x="939" y="215" on="1"/>
        <pt x="939" y="147" on="0"/>
        <pt x="879" y="63" on="0"/>
        <pt x="789" y="17" on="0"/>
        <pt x="685" y="0" on="0"/>
        <pt x="640" y="0" on="1"/>
        <pt x="440" y="0" on="1"/>
        <pt x="496" y="320" on="1"/>
        <pt x="206" y="320" on="1"/>
        <pt x="150" y="0" on="1"/>
        <pt x="60" y="0" on="1"/>
        <pt x="84" y="139" on="0"/>
        <pt x="118" y="332" on="0"/>
        <pt x="140" y="459" on="0"/>
        <pt x="152" y="531" on="0"/>
        <pt x="158" y="568" on="0"/>
        <pt x="159" y="580" on="0"/>
        <pt x="159" y="583" on="1"/>
        <pt x="159" y="609" on="0"/>
        <pt x="135" y="640" on="0"/>
        <pt x="102" y="640" on="1"/>
        <pt x="82" y="640" on="1"/>
        <pt x="86" y="660" on="1"/>
        <pt x="176" y="660" on="1"/>
        <pt x="216" y="660" on="0"/>
        <pt x="251" y="636" on="0"/>
        <pt x="251" y="599" on="1"/>
        <pt x="251" y="593" on="0"/>
        <pt x="249" y="574" on="0"/>
        <pt x="242" y="526" on="0"/>
        <pt x="226" y="436" on="0"/>
        <pt x="213" y="360" on="1"/>
        <pt x="503" y="360" on="1"/>
        <pt x="556" y="660" on="1"/>
        <pt x="646" y="660" on="1"/>
      </contour>
      <contour>
        <pt x="631" y="35" on="1"/>
        <pt x="670" y="35" on="0"/>
        <pt x="744" y="56" on="0"/>
        <pt x="803" y="100" on="0"/>
        <pt x="839" y="166" on="0"/>
        <pt x="839" y="210" on="1"/>
        <pt x="839" y="267" on="0"/>
        <pt x="756" y="325" on="0"/>
        <pt x="682" y="325" on="1"/>
        <pt x="659" y="325" on="0"/>
        <pt x="609" y="318" on="0"/>
        <pt x="584" y="310" on="1"/>
        <pt x="538" y="50" on="1"/>
        <pt x="560" y="42" on="0"/>
        <pt x="608" y="35" on="0"/>
      </contour>
    </TTGlyph>
    <TTGlyph name="afii10060" xMin="57" yMin="0" xMax="586" yMax="660">
      <contour>
        <pt x="168" y="0" on="1"/>
        <pt x="78" y="0" on="1"/>
        <pt x="187" y="620" on="1"/>
        <pt x="57" y="620" on="1"/>
        <pt x="64" y="660" on="1"/>
        <pt x="414" y="660" on="1"/>
        <pt x="407" y="620" on="1"/>
        <pt x="277" y="620" on="1"/>
        <pt x="236" y="390" on="1"/>
        <pt x="262" y="405" on="0"/>
        <pt x="360" y="430" on="0"/>
        <pt x="413" y="430" on="1"/>
        <pt x="448" y="430" on="0"/>
        <pt x="511" y="418" on="0"/>
        <pt x="558" y="388" on="0"/>
        <pt x="586" y="336" on="0"/>
        <pt x="586" y="296" on="1"/>
        <pt x="586" y="291" on="0"/>
        <pt x="584" y="272" on="0"/>
        <pt x="575" y="214" on="0"/>
        <pt x="556" y="100" on="0"/>
        <pt x="538" y="0" on="1"/>
        <pt x="448" y="0" on="1"/>
        <pt x="465" y="98" on="0"/>
        <pt x="484" y="208" on="0"/>
        <pt x="493" y="263" on="0"/>
        <pt x="495" y="278" on="0"/>
        <pt x="495" y="282" on="1"/>
        <pt x="495" y="310" on="0"/>
        <pt x="476" y="350" on="0"/>
        <pt x="443" y="374" on="0"/>
        <pt x="400" y="385" on="0"/>
        <pt x="375" y="385" on="1"/>
        <pt x="337" y="385" on="0"/>
        <pt x="254" y="360" on="0"/>
        <pt x="228" y="345" on="1"/>
      </contour>
    </TTGlyph>
    <TTGlyph name="afii10061" xMin="60" yMin="-10" xMax="696" yMax="792">
      <component glyphName="K" x="0" y="0" flags="0x204"/>
      <component glyphName="acute.alt1" x="269" y="-23" flags="0x4"/>
    </TTGlyph>
    <TTGlyph name="afii10062" xMin="33" yMin="-10" xMax="652" yMax="806">
      <component glyphName="afii10037" x="0" y="0" flags="0x204"/>
      <component glyphName="Breve" x="279" y="-9" flags="0x4"/>
    </TTGlyph>
    <TTGlyph name="afii10065" xMin="32" yMin="-10" xMax="486" yMax="480">
      <component glyphName="a" x="0" y="0" flags="0x204"/>
    </TTGlyph>
    <TTGlyph name="afii10066" xMin="49" yMin="-10" xMax="525" yMax="680">
      <contour>
        <pt x="296" y="400" on="1"/>
        <pt x="253" y="400" on="0"/>
        <pt x="194" y="347" on="0"/>
        <pt x="157" y="270" on="0"/>
        <pt x="141" y="181" on="0"/>
        <pt x="141" y="145" on="1"/>
        <pt x="141" y="112" on="0"/>
        <pt x="155" y="67" on="0"/>
        <pt x="180" y="41" on="0"/>
        <pt x="213" y="30" on="0"/>
        <pt x="231" y="30" on="1"/>
        <pt x="274" y="30" on="0"/>
        <pt x="333" y="82" on="0"/>
        <pt x="369" y="159" on="0"/>
        <pt x="385" y="248" on="0"/>
        <pt x="385" y="284" on="1"/>
        <pt x="385" y="348" on="0"/>
        <pt x="333" y="400" on="0"/>
      </contour>
      <contour>
        <pt x="294" y="530" on="1"/>
        <pt x="260" y="522" on="0"/>
        <pt x="207" y="495" on="0"/>
        <pt x="163" y="444" on="0"/>
        <pt x="128" y="362" on="0"/>
        <pt x="113" y="300" on="1"/>
        <pt x="118" y="300" on="1"/>
        <pt x="150" y="375" on="0"/>
        <pt x="248" y="440" on="0"/>
        <pt x="323" y="440" on="1"/>
        <pt x="355" y="440" on="0"/>
        <pt x="412" y="420" on="0"/>
        <pt x="454" y="380" on="0"/>
        <pt x="479" y="317" on="0"/>
        <pt x="479" y="275" on="1"/>
        <pt x="479" y="201" on="0"/>
        <pt x="435" y="94" on="0"/>
        <pt x="364" y="24" on="0"/>
        <pt x="272" y="-10" on="0"/>
        <pt x="224" y="-10" on="1"/>
        <pt x="185" y="-10" on="0"/>
        <pt x="121" y="9" on="0"/>
        <pt x="75" y="51" on="0"/>
        <pt x="49" y="116" on="0"/>
        <pt x="49" y="162" on="1"/>
        <pt x="49" y="250" on="0"/>
        <pt x="82" y="402" on="0"/>
        <pt x="141" y="517" on="0"/>
        <pt x="220" y="590" on="0"/>
        <pt x="266" y="600" on="1"/>
        <pt x="422" y="635" on="1"/>
        <pt x="457" y="643" on="0"/>
        <pt x="498" y="661" on="0"/>
        <pt x="505" y="680" on="1"/>
        <pt x="525" y="680" on="1"/>
        <pt x="514" y="615" on="1"/>
        <pt x="508" y="578" on="0"/>
        <pt x="476" y="570" on="1"/>
      </contour>
    </TTGlyph>
    <TTGlyph name="afii10067" xMin="36" yMin="0" xMax="455" yMax="470">
      <contour>
        <pt x="166" y="225" on="1"/>
        <pt x="134" y="45" on="1"/>
        <pt x="145" y="41" on="0"/>
        <pt x="183" y="35" on="0"/>
        <pt x="198" y="35" on="1"/>
        <pt x="262" y="35" on="0"/>
        <pt x="341" y="90" on="0"/>
        <pt x="341" y="150" on="1"/>
        <pt x="341" y="225" on="0"/>
        <pt x="221" y="225" on="1"/>
      </contour>
      <contour>
        <pt x="173" y="265" on="1"/>
        <pt x="228" y="265" on="1"/>
        <pt x="285" y="265" on="0"/>
        <pt x="359" y="316" on="0"/>
        <pt x="359" y="366" on="1"/>
        <pt x="359" y="401" on="0"/>
        <pt x="309" y="435" on="0"/>
        <pt x="268" y="435" on="1"/>
        <pt x="253" y="435" on="0"/>
        <pt x="213" y="429" on="0"/>
        <pt x="201" y="425" on="1"/>
      </contour>
      <contour>
        <pt x="284" y="470" on="1"/>
        <pt x="318" y="470" on="0"/>
        <pt x="381" y="460" on="0"/>
        <pt x="427" y="437" on="0"/>
        <pt x="455" y="399" on="0"/>
        <pt x="455" y="371" on="1"/>
        <pt x="455" y="269" on="0"/>
        <pt x="335" y="245" on="1"/>
        <pt x="383" y="235" on="0"/>
        <pt x="436" y="187" on="0"/>
        <pt x="436" y="150" on="1"/>
        <pt x="436" y="106" on="0"/>
        <pt x="397" y="48" on="0"/>
        <pt x="332" y="14" on="0"/>
        <pt x="248" y="0" on="0"/>
        <pt x="202" y="0" on="1"/>
        <pt x="125" y="0" on="1"/>
        <pt x="37" y="0" on="1"/>
        <pt x="53" y="91" on="0"/>
        <pt x="75" y="219" on="0"/>
        <pt x="90" y="305" on="0"/>
        <pt x="98" y="355" on="0"/>
        <pt x="102" y="382" on="0"/>
        <pt x="103" y="392" on="0"/>
        <pt x="103" y="395" on="1"/>
        <pt x="103" y="421" on="0"/>
        <pt x="78" y="450" on="0"/>
        <pt x="46" y="450" on="1"/>
        <pt x="36" y="450" on="1"/>
        <pt x="39" y="470" on="1"/>
      </contour>
    </TTGlyph>
    <TTGlyph name="afii10068" xMin="-8" yMin="-10" xMax="391" yMax="480">
      <contour>
        <pt x="-8" y="106" on="1"/>
        <pt x="-8" y="136" on="0"/>
        <pt x="20" y="184" on="0"/>
        <pt x="65" y="222" on="0"/>
        <pt x="121" y="250" on="0"/>
        <pt x="148" y="260" on="1"/>
        <pt x="213" y="285" on="1"/>
        <pt x="258" y="302" on="0"/>
        <pt x="309" y="351" on="0"/>
        <pt x="309" y="381" on="1"/>
        <pt x="309" y="407" on="0"/>
        <pt x="265" y="440" on="0"/>
        <pt x="220" y="440" on="1"/>
        <pt x="160" y="440" on="0"/>
        <pt x="83" y="384" on="0"/>
        <pt x="67" y="335" on="1"/>
        <pt x="47" y="335" on="1"/>
        <pt x="53" y="374" on="0"/>
        <pt x="76" y="429" on="0"/>
        <pt x="120" y="464" on="0"/>
        <pt x="192" y="480" on="0"/>
        <pt x="247" y="480" on="1"/>
        <pt x="310" y="480" on="0"/>
        <pt x="391" y="426" on="0"/>
        <pt x="391" y="373" on="1"/>
        <pt x="391" y="314" on="0"/>
        <pt x="311" y="241" on="0"/>
        <pt x="245" y="215" on="1"/>
        <pt x="181" y="190" on="1"/>
        <pt x="129" y="170" on="0"/>
        <pt x="74" y="124" on="0"/>
        <pt x="74" y="89" on="1"/>
        <pt x="74" y="63" on="0"/>
        <pt x="121" y="30" on="0"/>
        <pt x="173" y="30" on="1"/>
        <pt x="237" y="30" on="0"/>
        <pt x="315" y="86" on="0"/>
        <pt x="331" y="135" on="1"/>
        <pt x="351" y="135" on="1"/>
        <pt x="345" y="96" on="0"/>
        <pt x="322" y="40" on="0"/>
        <pt x="276" y="6" on="0"/>
        <pt x="202" y="-10" on="0"/>
        <pt x="146" y="-10" on="1"/>
        <pt x="78" y="-10" on="0"/>
        <pt x="-8" y="47" on="0"/>
      </contour>
    </TTGlyph>
    <TTGlyph name="afii10069" xMin="33" yMin="-10" xMax="496" yMax="670">
      <contour>
        <pt x="426" y="390" on="1"/>
        <pt x="427" y="402" on="0"/>
        <pt x="428" y="421" on="0"/>
        <pt x="428" y="430" on="1"/>
        <pt x="428" y="476" on="0"/>
        <pt x="404" y="549" on="0"/>
        <pt x="364" y="599" on="0"/>
        <pt x="309" y="625" on="0"/>
        <pt x="278" y="625" on="1"/>
        <pt x="257" y="625" on="0"/>
        <pt x="213" y="617" on="0"/>
        <pt x="175" y="605" on="0"/>
        <pt x="147" y="593" on="0"/>
        <pt x="142" y="589" on="1"/>
        <pt x="129" y="625" on="1"/>
        <pt x="152" y="639" on="0"/>
        <pt x="239" y="670" on="0"/>
        <pt x="296" y="670" on="1"/>
        <pt x="344" y="670" on="0"/>
        <pt x="418" y="631" on="0"/>
        <pt x="469" y="559" on="0"/>
        <pt x="496" y="457" on="0"/>
        <pt x="496" y="394" on="1"/>
        <pt x="496" y="305" on="0"/>
        <pt x="457" y="157" on="0"/>
        <pt x="384" y="50" on="0"/>
        <pt x="280" y="-10" on="0"/>
        <pt x="216" y="-10" on="1"/>
        <pt x="171" y="-10" on="0"/>
        <pt x="103" y="17" on="0"/>
        <pt x="56" y="66" on="0"/>
        <pt x="33" y="134" on="0"/>
        <pt x="33" y="174" on="1"/>
        <pt x="33" y="234" on="0"/>
        <pt x="73" y="341" on="0"/>
        <pt x="143" y="422" on="0"/>
        <pt x="241" y="470" on="0"/>
        <pt x="300" y="470" on="1"/>
        <pt x="342" y="470" on="0"/>
        <pt x="414" y="428" on="0"/>
      </contour>
      <contour>
        <pt x="223" y="30" on="1"/>
        <pt x="265" y="30" on="0"/>
        <pt x="327" y="84" on="0"/>
        <pt x="368" y="163" on="0"/>
        <pt x="388" y="253" on="0"/>
        <pt x="388" y="290" on="1"/>
        <pt x="388" y="353" on="0"/>
        <pt x="339" y="430" on="0"/>
        <pt x="293" y="430" on="1"/>
        <pt x="261" y="430" on="0"/>
        <pt x="201" y="389" on="0"/>
        <pt x="155" y="317" on="0"/>
        <pt x="127" y="222" on="0"/>
        <pt x="127" y="168" on="1"/>
        <pt x="127" y="105" on="0"/>
        <pt x="177" y="30" on="0"/>
      </contour>
    </TTGlyph>
    <TTGlyph name="afii10070" xMin="32" yMin="-10" xMax="458" yMax="480">
      <component glyphName="e" x="0" y="0" flags="0x204"/>
    </TTGlyph>
    <TTGlyph name="afii10071" xMin="32" yMin="-10" xMax="458" yMax="625">
      <component glyphName="e" x="0" y="0" flags="0x204"/>
      <component glyphName="dieresis.alt1" x="152" y="0" flags="0x4"/>
    </TTGlyph>
    <TTGlyph name="afii10072" xMin="-40" yMin="-10" xMax="682" yMax="470">
      <contour>
        <pt x="332" y="470" on="1"/>
        <pt x="422" y="470" on="1"/>
        <pt x="380" y="230" on="1"/>
        <pt x="516" y="405" on="1"/>
        <pt x="540" y="436" on="0"/>
        <pt x="608" y="470" on="0"/>
        <pt x="657" y="470" on="1"/>
        <pt x="682" y="470" on="1"/>
        <pt x="678" y="445" on="1"/>
        <pt x="648" y="445" on="0"/>
        <pt x="593" y="423" on="0"/>
        <pt x="575" y="400" on="1"/>
        <pt x="453" y="245" on="1"/>
        <pt x="532" y="100" on="1"/>
        <pt x="552" y="63" on="0"/>
        <pt x="599" y="24" on="0"/>
        <pt x="633" y="19" on="1"/>
        <pt x="630" y="0" on="1"/>
        <pt x="621" y="-4" on="0"/>
        <pt x="593" y="-10" on="0"/>
        <pt x="578" y="-10" on="1"/>
        <pt x="539" y="-10" on="0"/>
        <pt x="480" y="28" on="0"/>
        <pt x="457" y="70" on="1"/>
        <pt x="377" y="215" on="1"/>
        <pt x="340" y="0" on="1"/>
        <pt x="250" y="0" on="1"/>
        <pt x="287" y="215" on="1"/>
        <pt x="157" y="70" on="1"/>
        <pt x="119" y="28" on="0"/>
        <pt x="46" y="-10" on="0"/>
        <pt x="8" y="-10" on="1"/>
        <pt x="-7" y="-10" on="0"/>
        <pt x="-32" y="-4" on="0"/>
        <pt x="-40" y="0" on="1"/>
        <pt x="-37" y="19" on="1"/>
        <pt x="-2" y="24" on="0"/>
        <pt x="59" y="63" on="0"/>
        <pt x="92" y="100" on="1"/>
        <pt x="223" y="245" on="1"/>
        <pt x="155" y="400" on="1"/>
        <pt x="144" y="423" on="0"/>
        <pt x="98" y="445" on="0"/>
        <pt x="68" y="445" on="1"/>
        <pt x="72" y="470" on="1"/>
        <pt x="97" y="470" on="1"/>
        <pt x="145" y="470" on="0"/>
        <pt x="202" y="436" on="0"/>
        <pt x="216" y="405" on="1"/>
        <pt x="290" y="230" on="1"/>
      </contour>
    </TTGlyph>
    <TTGlyph name="afii10073" xMin="0" yMin="-10" xMax="411" yMax="480">
      <contour>
        <pt x="128" y="260" on="1"/>
        <pt x="173" y="260" on="1"/>
        <pt x="239" y="260" on="0"/>
        <pt x="316" y="315" on="0"/>
        <pt x="316" y="369" on="1"/>
        <pt x="316" y="404" on="0"/>
        <pt x="267" y="440" on="0"/>
        <pt x="230" y="440" on="1"/>
        <pt x="203" y="440" on="0"/>
        <pt x="155" y="425" on="0"/>
        <pt x="115" y="398" on="0"/>
        <pt x="88" y="359" on="0"/>
        <pt x="82" y="335" on="1"/>
        <pt x="62" y="335" on="1"/>
        <pt x="69" y="380" on="0"/>
        <pt x="94" y="436" on="0"/>
        <pt x="138" y="468" on="0"/>
        <pt x="204" y="480" on="0"/>
        <pt x="252" y="480" on="1"/>
        <pt x="283" y="480" on="0"/>
        <pt x="340" y="469" on="0"/>
        <pt x="384" y="445" on="0"/>
        <pt x="411" y="405" on="0"/>
        <pt x="411" y="375" on="1"/>
        <pt x="411" y="318" on="0"/>
        <pt x="343" y="253" on="0"/>
        <pt x="290" y="240" on="1"/>
        <pt x="336" y="230" on="0"/>
        <pt x="386" y="181" on="0"/>
        <pt x="386" y="144" on="1"/>
        <pt x="386" y="99" on="0"/>
        <pt x="346" y="40" on="0"/>
        <pt x="282" y="5" on="0"/>
        <pt x="201" y="-10" on="0"/>
        <pt x="161" y="-10" on="1"/>
        <pt x="127" y="-10" on="0"/>
        <pt x="76" y="2" on="0"/>
        <pt x="38" y="24" on="0"/>
        <pt x="10" y="53" on="0"/>
        <pt x="0" y="70" on="1"/>
        <pt x="22" y="85" on="1"/>
        <pt x="30" y="76" on="0"/>
        <pt x="50" y="56" on="0"/>
        <pt x="80" y="40" on="0"/>
        <pt x="120" y="30" on="0"/>
        <pt x="148" y="30" on="1"/>
        <pt x="211" y="30" on="0"/>
        <pt x="292" y="85" on="0"/>
        <pt x="292" y="144" on="1"/>
        <pt x="292" y="220" on="0"/>
        <pt x="166" y="220" on="1"/>
        <pt x="121" y="220" on="1"/>
      </contour>
    </TTGlyph>
    <TTGlyph name="afii10074" xMin="25" yMin="-10" xMax="498" yMax="470">
      <component glyphName="u" x="0" y="0" flags="0x200"/>
    </TTGlyph>
    <TTGlyph name="afii10075" xMin="25" yMin="-10" xMax="498" yMax="616">
      <component glyphName="u" x="0" y="0" flags="0x204"/>
      <component glyphName="breve" x="209" y="0" flags="0x4"/>
    </TTGlyph>
    <TTGlyph name="afii10076" xMin="32" yMin="-10" xMax="495" yMax="470">
      <contour>
        <pt x="329" y="405" on="1"/>
        <pt x="356" y="435" on="0"/>
        <pt x="421" y="470" on="0"/>
        <pt x="470" y="470" on="1"/>
        <pt x="495" y="470" on="1"/>
        <pt x="491" y="445" on="1"/>
        <pt x="468" y="445" on="0"/>
        <pt x="416" y="426" on="0"/>
        <pt x="393" y="400" on="1"/>
        <pt x="256" y="245" on="1"/>
        <pt x="345" y="100" on="1"/>
        <pt x="365" y="66" on="0"/>
        <pt x="413" y="24" on="0"/>
        <pt x="446" y="19" on="1"/>
        <pt x="443" y="0" on="1"/>
        <pt x="434" y="-4" on="0"/>
        <pt x="406" y="-10" on="0"/>
        <pt x="391" y="-10" on="1"/>
        <pt x="353" y="-10" on="0"/>
        <pt x="286" y="28" on="0"/>
        <pt x="260" y="70" on="1"/>
        <pt x="170" y="215" on="1"/>
        <pt x="133" y="0" on="1"/>
        <pt x="43" y="0" on="1"/>
        <pt x="59" y="91" on="0"/>
        <pt x="81" y="219" on="0"/>
        <pt x="96" y="305" on="0"/>
        <pt x="104" y="355" on="0"/>
        <pt x="108" y="382" on="0"/>
        <pt x="109" y="392" on="0"/>
        <pt x="109" y="395" on="1"/>
        <pt x="109" y="421" on="0"/>
        <pt x="84" y="450" on="0"/>
        <pt x="52" y="450" on="1"/>
        <pt x="32" y="450" on="1"/>
        <pt x="35" y="470" on="1"/>
        <pt x="125" y="470" on="1"/>
        <pt x="165" y="470" on="0"/>
        <pt x="201" y="446" on="0"/>
        <pt x="201" y="409" on="1"/>
        <pt x="201" y="403" on="0"/>
        <pt x="199" y="387" on="0"/>
        <pt x="193" y="349" on="0"/>
        <pt x="182" y="284" on="0"/>
        <pt x="173" y="230" on="1"/>
      </contour>
    </TTGlyph>
    <TTGlyph name="afii10077" xMin="-38" yMin="-10" xMax="509" yMax="470">
      <contour>
        <pt x="222" y="350" on="1"/>
        <pt x="202" y="237" on="0"/>
        <pt x="152" y="97" on="0"/>
        <pt x="96" y="18" on="0"/>
        <pt x="37" y="-10" on="0"/>
        <pt x="9" y="-10" on="1"/>
        <pt x="1" y="-10" on="0"/>
        <pt x="-30" y="-4" on="0"/>
        <pt x="-38" y="-1" on="1"/>
        <pt x="-34" y="24" on="1"/>
        <pt x="-10" y="24" on="0"/>
        <pt x="41" y="49" on="0"/>
        <pt x="90" y="119" on="0"/>
        <pt x="135" y="247" on="0"/>
        <pt x="153" y="350" on="1"/>
        <pt x="155" y="362" on="0"/>
        <pt x="158" y="384" on="0"/>
        <pt x="158" y="394" on="1"/>
        <pt x="158" y="420" on="0"/>
        <pt x="133" y="450" on="0"/>
        <pt x="100" y="450" on="1"/>
        <pt x="103" y="470" on="1"/>
        <pt x="509" y="470" on="1"/>
        <pt x="427" y="0" on="1"/>
        <pt x="337" y="0" on="1"/>
        <pt x="412" y="430" on="1"/>
        <pt x="236" y="430" on="1"/>
      </contour>
    </TTGlyph>
    <TTGlyph name="afii10078" xMin="24" yMin="-20" xMax="591" yMax="470">
      <contour>
        <pt x="254" y="0" on="1"/>
        <pt x="234" y="0" on="1"/>
        <pt x="130" y="375" on="1"/>
        <pt x="64" y="0" on="1"/>
        <pt x="24" y="0" on="1"/>
        <pt x="106" y="470" on="1"/>
        <pt x="201" y="470" on="1"/>
        <pt x="293" y="140" on="1"/>
        <pt x="501" y="470" on="1"/>
        <pt x="591" y="470" on="1"/>
        <pt x="576" y="386" on="0"/>
        <pt x="556" y="268" on="0"/>
        <pt x="543" y="189" on="0"/>
        <pt x="535" y="142" on="0"/>
        <pt x="532" y="117" on="0"/>
        <pt x="531" y="106" on="0"/>
        <pt x="531" y="102" on="1"/>
        <pt x="531" y="60" on="0"/>
        <pt x="558" y="0" on="0"/>
        <pt x="584" y="0" on="1"/>
        <pt x="580" y="-20" on="1"/>
        <pt x="503" y="-20" on="0"/>
        <pt x="440" y="42" on="0"/>
        <pt x="440" y="98" on="1"/>
        <pt x="440" y="104" on="0"/>
        <pt x="442" y="123" on="0"/>
        <pt x="450" y="176" on="0"/>
        <pt x="468" y="277" on="0"/>
        <pt x="483" y="365" on="1"/>
      </contour>
    </TTGlyph>
    <TTGlyph name="afii10079" xMin="33" yMin="0" xMax="507" yMax="470">
      <contour>
        <pt x="166" y="215" on="1"/>
        <pt x="129" y="0" on="1"/>
        <pt x="39" y="0" on="1"/>
        <pt x="55" y="91" on="0"/>
        <pt x="77" y="219" on="0"/>
        <pt x="92" y="305" on="0"/>
        <pt x="100" y="355" on="0"/>
        <pt x="104" y="382" on="0"/>
        <pt x="105" y="392" on="0"/>
        <pt x="105" y="395" on="1"/>
        <pt x="105" y="421" on="0"/>
        <pt x="80" y="450" on="0"/>
        <pt x="48" y="450" on="1"/>
        <pt x="33" y="450" on="1"/>
        <pt x="36" y="470" on="1"/>
        <pt x="121" y="470" on="1"/>
        <pt x="161" y="470" on="0"/>
        <pt x="197" y="446" on="0"/>
        <pt x="197" y="409" on="1"/>
        <pt x="197" y="403" on="0"/>
        <pt x="195" y="387" on="0"/>
        <pt x="190" y="355" on="0"/>
        <pt x="181" y="300" on="0"/>
        <pt x="173" y="255" on="1"/>
        <pt x="373" y="255" on="1"/>
        <pt x="411" y="470" on="1"/>
        <pt x="501" y="470" on="1"/>
        <pt x="485" y="378" on="0"/>
        <pt x="463" y="250" on="0"/>
        <pt x="448" y="165" on="0"/>
        <pt x="440" y="115" on="0"/>
        <pt x="436" y="88" on="0"/>
        <pt x="435" y="78" on="0"/>
        <pt x="435" y="75" on="1"/>
        <pt x="435" y="49" on="0"/>
        <pt x="459" y="20" on="0"/>
        <pt x="492" y="20" on="1"/>
        <pt x="507" y="20" on="1"/>
        <pt x="504" y="0" on="1"/>
        <pt x="419" y="0" on="1"/>
        <pt x="379" y="0" on="0"/>
        <pt x="343" y="23" on="0"/>
        <pt x="343" y="60" on="1"/>
        <pt x="343" y="66" on="0"/>
        <pt x="345" y="82" on="0"/>
        <pt x="349" y="115" on="0"/>
        <pt x="358" y="170" on="0"/>
        <pt x="366" y="215" on="1"/>
      </contour>
    </TTGlyph>
    <TTGlyph name="afii10080" xMin="32" yMin="-10" xMax="482" yMax="480">
      <component glyphName="o" x="0" y="0" flags="0x204"/>
    </TTGlyph>
    <TTGlyph name="afii10081" xMin="31" yMin="0" xMax="489" yMax="480">
      <component glyphName="n" x="0" y="0" flags="0x200"/>
    </TTGlyph>
    <TTGlyph name="afii10082" xMin="8" yMin="-190" xMax="495" yMax="480">
      <component glyphName="p" x="0" y="0" flags="0x204"/>
    </TTGlyph>
    <TTGlyph name="afii10083" xMin="32" yMin="-10" xMax="454" yMax="480">
      <component glyphName="c" x="0" y="0" flags="0x204"/>
    </TTGlyph>
    <TTGlyph name="afii10084" xMin="31" yMin="0" xMax="730" yMax="480">
      <component glyphName="m" x="0" y="0" flags="0x200"/>
    </TTGlyph>
    <TTGlyph name="afii10085" xMin="17" yMin="-201" xMax="516" yMax="480">
      <component glyphName="y" x="0" y="0" scalex="1.00201416016" scaley="1.00146484375" flags="0x0"/>
    </TTGlyph>
    <TTGlyph name="afii10086" xMin="34" yMin="-190" xMax="614" yMax="660">
      <contour>
        <pt x="331" y="25" on="1"/>
        <pt x="374" y="29" on="0"/>
        <pt x="444" y="73" on="0"/>
        <pt x="493" y="145" on="0"/>
        <pt x="520" y="242" on="0"/>
        <pt x="520" y="301" on="1"/>
        <pt x="520" y="364" on="0"/>
        <pt x="465" y="438" on="0"/>
        <pt x="405" y="445" on="1"/>
      </contour>
      <contour>
        <pt x="322" y="480" on="1"/>
        <pt x="327" y="508" on="0"/>
        <pt x="333" y="544" on="0"/>
        <pt x="336" y="566" on="0"/>
        <pt x="337" y="578" on="0"/>
        <pt x="337" y="583" on="1"/>
        <pt x="337" y="609" on="0"/>
        <pt x="313" y="640" on="0"/>
        <pt x="280" y="640" on="1"/>
        <pt x="265" y="640" on="1"/>
        <pt x="269" y="660" on="1"/>
        <pt x="354" y="660" on="1"/>
        <pt x="394" y="660" on="0"/>
        <pt x="429" y="636" on="0"/>
        <pt x="429" y="599" on="1"/>
        <pt x="429" y="593" on="0"/>
        <pt x="428" y="578" on="0"/>
        <pt x="424" y="552" on="0"/>
        <pt x="418" y="511" on="0"/>
        <pt x="412" y="480" on="1"/>
        <pt x="463" y="478" on="0"/>
        <pt x="539" y="449" on="0"/>
        <pt x="589" y="398" on="0"/>
        <pt x="614" y="329" on="0"/>
        <pt x="614" y="289" on="1"/>
        <pt x="614" y="229" on="0"/>
        <pt x="574" y="122" on="0"/>
        <pt x="500" y="41" on="0"/>
        <pt x="393" y="-8" on="0"/>
        <pt x="326" y="-10" on="1"/>
        <pt x="294" y="-190" on="1"/>
        <pt x="204" y="-190" on="1"/>
        <pt x="236" y="-10" on="1"/>
        <pt x="185" y="-9" on="0"/>
        <pt x="109" y="21" on="0"/>
        <pt x="59" y="72" on="0"/>
        <pt x="34" y="140" on="0"/>
        <pt x="34" y="181" on="1"/>
        <pt x="34" y="241" on="0"/>
        <pt x="74" y="347" on="0"/>
        <pt x="148" y="428" on="0"/>
        <pt x="255" y="478" on="0"/>
      </contour>
      <contour>
        <pt x="317" y="445" on="1"/>
        <pt x="274" y="440" on="0"/>
        <pt x="204" y="397" on="0"/>
        <pt x="155" y="325" on="0"/>
        <pt x="128" y="227" on="0"/>
        <pt x="128" y="169" on="1"/>
        <pt x="128" y="106" on="0"/>
        <pt x="183" y="32" on="0"/>
        <pt x="243" y="25" on="1"/>
      </contour>
    </TTGlyph>
    <TTGlyph name="afii10087" xMin="-10" yMin="0" xMax="482" yMax="470">
      <component glyphName="x" x="0" y="0" flags="0x204"/>
    </TTGlyph>
    <TTGlyph name="afii10088" xMin="28" yMin="-155" xMax="501" yMax="470">
      <contour>
        <pt x="336" y="40" on="1"/>
        <pt x="313" y="21" on="0"/>
        <pt x="242" y="-10" on="0"/>
        <pt x="197" y="-10" on="1"/>
        <pt x="169" y="-10" on="0"/>
        <pt x="117" y="2" on="0"/>
        <pt x="77" y="31" on="0"/>
        <pt x="53" y="81" on="0"/>
        <pt x="53" y="120" on="1"/>
        <pt x="53" y="131" on="0"/>
        <pt x="56" y="156" on="0"/>
        <pt x="58" y="170" on="1"/>
        <pt x="71" y="243" on="0"/>
        <pt x="86" y="329" on="0"/>
        <pt x="93" y="374" on="0"/>
        <pt x="95" y="390" on="0"/>
        <pt x="95" y="395" on="1"/>
        <pt x="95" y="421" on="0"/>
        <pt x="70" y="450" on="0"/>
        <pt x="38" y="450" on="1"/>
        <pt x="28" y="450" on="1"/>
        <pt x="31" y="470" on="1"/>
        <pt x="111" y="470" on="1"/>
        <pt x="151" y="470" on="0"/>
        <pt x="187" y="447" on="0"/>
        <pt x="187" y="410" on="1"/>
        <pt x="187" y="404" on="0"/>
        <pt x="185" y="385" on="0"/>
        <pt x="177" y="336" on="0"/>
        <pt x="161" y="246" on="0"/>
        <pt x="148" y="170" on="1"/>
        <pt x="145" y="149" on="0"/>
        <pt x="145" y="133" on="1"/>
        <pt x="145" y="79" on="0"/>
        <pt x="198" y="35" on="0"/>
        <pt x="235" y="35" on="1"/>
        <pt x="265" y="35" on="0"/>
        <pt x="321" y="67" on="0"/>
        <pt x="344" y="88" on="1"/>
        <pt x="411" y="470" on="1"/>
        <pt x="501" y="470" on="1"/>
        <pt x="426" y="40" on="1"/>
        <pt x="465" y="40" on="1"/>
        <pt x="478" y="40" on="0"/>
        <pt x="494" y="25" on="0"/>
        <pt x="494" y="12" on="1"/>
        <pt x="494" y="11" on="0"/>
        <pt x="493" y="4" on="0"/>
        <pt x="487" y="-27" on="0"/>
        <pt x="475" y="-94" on="0"/>
        <pt x="465" y="-155" on="1"/>
        <pt x="425" y="-155" on="1"/>
        <pt x="428" y="-115" on="0"/>
        <pt x="428" y="-88" on="1"/>
        <pt x="428" y="-46" on="0"/>
        <pt x="404" y="-9" on="0"/>
        <pt x="371" y="0" on="1"/>
        <pt x="354" y="5" on="0"/>
        <pt x="341" y="28" on="0"/>
        <pt x="341" y="40" on="1"/>
      </contour>
    </TTGlyph>
    <TTGlyph name="afii10089" xMin="38" yMin="0" xMax="491" yMax="470">
      <contour>
        <pt x="261" y="215" on="1"/>
        <pt x="291" y="215" on="0"/>
        <pt x="343" y="227" on="0"/>
        <pt x="360" y="233" on="1"/>
        <pt x="401" y="470" on="1"/>
        <pt x="491" y="470" on="1"/>
        <pt x="409" y="0" on="1"/>
        <pt x="319" y="0" on="1"/>
        <pt x="353" y="193" on="1"/>
        <pt x="336" y="187" on="0"/>
        <pt x="283" y="175" on="0"/>
        <pt x="249" y="175" on="1"/>
        <pt x="220" y="175" on="0"/>
        <pt x="164" y="184" on="0"/>
        <pt x="119" y="209" on="0"/>
        <pt x="92" y="252" on="0"/>
        <pt x="92" y="287" on="1"/>
        <pt x="92" y="313" on="0"/>
        <pt x="105" y="366" on="0"/>
        <pt x="105" y="395" on="1"/>
        <pt x="105" y="421" on="0"/>
        <pt x="80" y="450" on="0"/>
        <pt x="48" y="450" on="1"/>
        <pt x="38" y="450" on="1"/>
        <pt x="41" y="470" on="1"/>
        <pt x="126" y="470" on="1"/>
        <pt x="166" y="470" on="0"/>
        <pt x="202" y="446" on="0"/>
        <pt x="202" y="409" on="1"/>
        <pt x="202" y="379" on="0"/>
        <pt x="186" y="319" on="0"/>
        <pt x="186" y="286" on="1"/>
        <pt x="186" y="247" on="0"/>
        <pt x="231" y="215" on="0"/>
      </contour>
    </TTGlyph>
    <TTGlyph name="afii10090" xMin="43" yMin="-10" xMax="732" yMax="470">
      <contour>
        <pt x="428" y="-10" on="1"/>
        <pt x="390" y="-10" on="0"/>
        <pt x="331" y="18" on="0"/>
        <pt x="320" y="60" on="1"/>
        <pt x="288" y="26" on="0"/>
        <pt x="200" y="-10" on="0"/>
        <pt x="158" y="-10" on="1"/>
        <pt x="134" y="-10" on="0"/>
        <pt x="93" y="1" on="0"/>
        <pt x="61" y="28" on="0"/>
        <pt x="43" y="74" on="0"/>
        <pt x="43" y="109" on="1"/>
        <pt x="43" y="113" on="0"/>
        <pt x="44" y="125" on="0"/>
        <pt x="47" y="152" on="0"/>
        <pt x="55" y="198" on="0"/>
        <pt x="68" y="275" on="0"/>
        <pt x="88" y="389" on="0"/>
        <pt x="102" y="470" on="1"/>
        <pt x="192" y="470" on="1"/>
        <pt x="178" y="390" on="0"/>
        <pt x="158" y="276" on="0"/>
        <pt x="145" y="200" on="0"/>
        <pt x="137" y="154" on="0"/>
        <pt x="134" y="128" on="0"/>
        <pt x="133" y="117" on="0"/>
        <pt x="133" y="113" on="1"/>
        <pt x="133" y="70" on="0"/>
        <pt x="166" y="35" on="0"/>
        <pt x="196" y="35" on="1"/>
        <pt x="211" y="35" on="0"/>
        <pt x="244" y="47" on="0"/>
        <pt x="275" y="66" on="0"/>
        <pt x="303" y="89" on="0"/>
        <pt x="312" y="100" on="1"/>
        <pt x="312" y="108" on="0"/>
        <pt x="315" y="135" on="0"/>
        <pt x="327" y="208" on="0"/>
        <pt x="351" y="348" on="0"/>
        <pt x="372" y="470" on="1"/>
        <pt x="462" y="470" on="1"/>
        <pt x="448" y="390" on="0"/>
        <pt x="428" y="276" on="0"/>
        <pt x="415" y="200" on="0"/>
        <pt x="407" y="154" on="0"/>
        <pt x="404" y="128" on="0"/>
        <pt x="403" y="117" on="0"/>
        <pt x="403" y="113" on="1"/>
        <pt x="403" y="70" on="0"/>
        <pt x="436" y="35" on="0"/>
        <pt x="466" y="35" on="1"/>
        <pt x="496" y="35" on="0"/>
        <pt x="552" y="67" on="0"/>
        <pt x="575" y="88" on="1"/>
        <pt x="642" y="470" on="1"/>
        <pt x="732" y="470" on="1"/>
        <pt x="650" y="0" on="1"/>
        <pt x="600" y="0" on="1"/>
        <pt x="572" y="40" on="1"/>
        <pt x="567" y="40" on="1"/>
        <pt x="544" y="21" on="0"/>
        <pt x="473" y="-10" on="0"/>
      </contour>
    </TTGlyph>
    <TTGlyph name="afii10091" xMin="43" yMin="-155" xMax="732" yMax="470">
      <contour>
        <pt x="567" y="40" on="1"/>
        <pt x="544" y="21" on="0"/>
        <pt x="473" y="-10" on="0"/>
        <pt x="428" y="-10" on="1"/>
        <pt x="390" y="-10" on="0"/>
        <pt x="331" y="18" on="0"/>
        <pt x="320" y="60" on="1"/>
        <pt x="288" y="26" on="0"/>
        <pt x="200" y="-10" on="0"/>
        <pt x="158" y="-10" on="1"/>
        <pt x="134" y="-10" on="0"/>
        <pt x="93" y="1" on="0"/>
        <pt x="61" y="28" on="0"/>
        <pt x="43" y="74" on="0"/>
        <pt x="43" y="109" on="1"/>
        <pt x="43" y="113" on="0"/>
        <pt x="44" y="125" on="0"/>
        <pt x="47" y="152" on="0"/>
        <pt x="55" y="198" on="0"/>
        <pt x="68" y="275" on="0"/>
        <pt x="88" y="389" on="0"/>
        <pt x="102" y="470" on="1"/>
        <pt x="192" y="470" on="1"/>
        <pt x="178" y="390" on="0"/>
        <pt x="158" y="276" on="0"/>
        <pt x="145" y="200" on="0"/>
        <pt x="137" y="154" on="0"/>
        <pt x="134" y="128" on="0"/>
        <pt x="133" y="117" on="0"/>
        <pt x="133" y="113" on="1"/>
        <pt x="133" y="70" on="0"/>
        <pt x="166" y="35" on="0"/>
        <pt x="196" y="35" on="1"/>
        <pt x="211" y="35" on="0"/>
        <pt x="244" y="47" on="0"/>
        <pt x="275" y="66" on="0"/>
        <pt x="303" y="89" on="0"/>
        <pt x="312" y="100" on="1"/>
        <pt x="312" y="108" on="0"/>
        <pt x="315" y="135" on="0"/>
        <pt x="327" y="208" on="0"/>
        <pt x="351" y="348" on="0"/>
        <pt x="372" y="470" on="1"/>
        <pt x="462" y="470" on="1"/>
        <pt x="448" y="390" on="0"/>
        <pt x="428" y="276" on="0"/>
        <pt x="415" y="200" on="0"/>
        <pt x="407" y="154" on="0"/>
        <pt x="404" y="128" on="0"/>
        <pt x="403" y="117" on="0"/>
        <pt x="403" y="113" on="1"/>
        <pt x="403" y="70" on="0"/>
        <pt x="436" y="35" on="0"/>
        <pt x="466" y="35" on="1"/>
        <pt x="496" y="35" on="0"/>
        <pt x="552" y="67" on="0"/>
        <pt x="575" y="88" on="1"/>
        <pt x="642" y="470" on="1"/>
        <pt x="732" y="470" on="1"/>
        <pt x="657" y="40" on="1"/>
        <pt x="696" y="40" on="1"/>
        <pt x="709" y="40" on="0"/>
        <pt x="725" y="25" on="0"/>
        <pt x="725" y="12" on="1"/>
        <pt x="725" y="11" on="0"/>
        <pt x="724" y="4" on="0"/>
        <pt x="718" y="-27" on="0"/>
        <pt x="706" y="-94" on="0"/>
        <pt x="696" y="-155" on="1"/>
        <pt x="656" y="-155" on="1"/>
        <pt x="659" y="-115" on="0"/>
        <pt x="659" y="-88" on="1"/>
        <pt x="659" y="-46" on="0"/>
        <pt x="635" y="-8" on="0"/>
        <pt x="602" y="0" on="1"/>
        <pt x="585" y="5" on="0"/>
        <pt x="572" y="28" on="0"/>
        <pt x="572" y="40" on="1"/>
      </contour>
    </TTGlyph>
    <TTGlyph name="afii10092" xMin="38" yMin="0" xMax="533" yMax="470">
      <contour>
        <pt x="233" y="45" on="1"/>
        <pt x="244" y="41" on="0"/>
        <pt x="282" y="35" on="0"/>
        <pt x="297" y="35" on="1"/>
        <pt x="327" y="35" on="0"/>
        <pt x="379" y="49" on="0"/>
        <pt x="417" y="81" on="0"/>
        <pt x="438" y="132" on="0"/>
        <pt x="438" y="168" on="1"/>
        <pt x="438" y="210" on="0"/>
        <pt x="384" y="245" on="0"/>
        <pt x="334" y="245" on="1"/>
        <pt x="319" y="245" on="0"/>
        <pt x="279" y="239" on="0"/>
        <pt x="267" y="235" on="1"/>
      </contour>
      <contour>
        <pt x="62" y="435" on="1"/>
        <pt x="64" y="450" on="0"/>
        <pt x="88" y="470" on="0"/>
        <pt x="103" y="470" on="1"/>
        <pt x="308" y="470" on="1"/>
        <pt x="275" y="280" on="1"/>
        <pt x="350" y="280" on="1"/>
        <pt x="389" y="280" on="0"/>
        <pt x="456" y="269" on="0"/>
        <pt x="505" y="244" on="0"/>
        <pt x="533" y="201" on="0"/>
        <pt x="533" y="169" on="1"/>
        <pt x="533" y="119" on="0"/>
        <pt x="494" y="54" on="0"/>
        <pt x="430" y="15" on="0"/>
        <pt x="346" y="0" on="0"/>
        <pt x="301" y="0" on="1"/>
        <pt x="224" y="0" on="1"/>
        <pt x="136" y="0" on="1"/>
        <pt x="211" y="430" on="1"/>
        <pt x="201" y="430" on="1"/>
        <pt x="147" y="430" on="0"/>
        <pt x="79" y="369" on="0"/>
        <pt x="63" y="300" on="1"/>
        <pt x="38" y="300" on="1"/>
      </contour>
    </TTGlyph>
    <TTGlyph name="afii10093" xMin="33" yMin="0" xMax="642" yMax="470">
      <contour>
        <pt x="136" y="45" on="1"/>
        <pt x="147" y="41" on="0"/>
        <pt x="185" y="35" on="0"/>
        <pt x="200" y="35" on="1"/>
        <pt x="226" y="35" on="0"/>
        <pt x="273" y="49" on="0"/>
        <pt x="309" y="81" on="0"/>
        <pt x="331" y="132" on="0"/>
        <pt x="331" y="168" on="1"/>
        <pt x="331" y="210" on="0"/>
        <pt x="279" y="245" on="0"/>
        <pt x="237" y="245" on="1"/>
        <pt x="222" y="245" on="0"/>
        <pt x="182" y="239" on="0"/>
        <pt x="170" y="235" on="1"/>
      </contour>
      <contour>
        <pt x="253" y="280" on="1"/>
        <pt x="289" y="280" on="0"/>
        <pt x="352" y="269" on="0"/>
        <pt x="399" y="244" on="0"/>
        <pt x="426" y="201" on="0"/>
        <pt x="426" y="169" on="1"/>
        <pt x="426" y="119" on="0"/>
        <pt x="387" y="54" on="0"/>
        <pt x="324" y="16" on="0"/>
        <pt x="245" y="0" on="0"/>
        <pt x="204" y="0" on="1"/>
        <pt x="39" y="0" on="1"/>
        <pt x="55" y="91" on="0"/>
        <pt x="77" y="219" on="0"/>
        <pt x="92" y="305" on="0"/>
        <pt x="100" y="355" on="0"/>
        <pt x="104" y="382" on="0"/>
        <pt x="105" y="392" on="0"/>
        <pt x="105" y="395" on="1"/>
        <pt x="105" y="421" on="0"/>
        <pt x="80" y="450" on="0"/>
        <pt x="48" y="450" on="1"/>
        <pt x="33" y="450" on="1"/>
        <pt x="36" y="470" on="1"/>
        <pt x="121" y="470" on="1"/>
        <pt x="161" y="470" on="0"/>
        <pt x="197" y="446" on="0"/>
        <pt x="197" y="409" on="1"/>
        <pt x="197" y="403" on="0"/>
        <pt x="196" y="388" on="0"/>
        <pt x="191" y="360" on="0"/>
        <pt x="184" y="315" on="0"/>
        <pt x="178" y="280" on="1"/>
      </contour>
      <contour>
        <pt x="636" y="470" on="1"/>
        <pt x="620" y="378" on="0"/>
        <pt x="598" y="250" on="0"/>
        <pt x="583" y="165" on="0"/>
        <pt x="575" y="115" on="0"/>
        <pt x="571" y="88" on="0"/>
        <pt x="570" y="78" on="0"/>
        <pt x="570" y="75" on="1"/>
        <pt x="570" y="49" on="0"/>
        <pt x="594" y="20" on="0"/>
        <pt x="627" y="20" on="1"/>
        <pt x="642" y="20" on="1"/>
        <pt x="639" y="0" on="1"/>
        <pt x="554" y="0" on="1"/>
        <pt x="514" y="0" on="0"/>
        <pt x="478" y="23" on="0"/>
        <pt x="478" y="60" on="1"/>
        <pt x="478" y="64" on="0"/>
        <pt x="479" y="76" on="0"/>
        <pt x="483" y="105" on="0"/>
        <pt x="492" y="157" on="0"/>
        <pt x="507" y="245" on="0"/>
        <pt x="530" y="376" on="0"/>
        <pt x="546" y="470" on="1"/>
      </contour>
    </TTGlyph>
    <TTGlyph name="afii10094" xMin="33" yMin="0" xMax="436" yMax="470">
      <contour>
        <pt x="136" y="45" on="1"/>
        <pt x="147" y="41" on="0"/>
        <pt x="185" y="35" on="0"/>
        <pt x="200" y="35" on="1"/>
        <pt x="230" y="35" on="0"/>
        <pt x="282" y="49" on="0"/>
        <pt x="320" y="81" on="0"/>
        <pt x="341" y="132" on="0"/>
        <pt x="341" y="168" on="1"/>
        <pt x="341" y="210" on="0"/>
        <pt x="287" y="245" on="0"/>
        <pt x="237" y="245" on="1"/>
        <pt x="222" y="245" on="0"/>
        <pt x="182" y="239" on="0"/>
        <pt x="170" y="235" on="1"/>
      </contour>
      <contour>
        <pt x="253" y="280" on="1"/>
        <pt x="292" y="280" on="0"/>
        <pt x="359" y="269" on="0"/>
        <pt x="408" y="244" on="0"/>
        <pt x="436" y="201" on="0"/>
        <pt x="436" y="169" on="1"/>
        <pt x="436" y="119" on="0"/>
        <pt x="397" y="54" on="0"/>
        <pt x="333" y="15" on="0"/>
        <pt x="249" y="0" on="0"/>
        <pt x="204" y="0" on="1"/>
        <pt x="39" y="0" on="1"/>
        <pt x="55" y="91" on="0"/>
        <pt x="77" y="219" on="0"/>
        <pt x="92" y="305" on="0"/>
        <pt x="100" y="355" on="0"/>
        <pt x="104" y="382" on="0"/>
        <pt x="105" y="392" on="0"/>
        <pt x="105" y="395" on="1"/>
        <pt x="105" y="421" on="0"/>
        <pt x="80" y="450" on="0"/>
        <pt x="48" y="450" on="1"/>
        <pt x="33" y="450" on="1"/>
        <pt x="36" y="470" on="1"/>
        <pt x="121" y="470" on="1"/>
        <pt x="161" y="470" on="0"/>
        <pt x="197" y="446" on="0"/>
        <pt x="197" y="409" on="1"/>
        <pt x="197" y="403" on="0"/>
        <pt x="196" y="388" on="0"/>
        <pt x="191" y="360" on="0"/>
        <pt x="184" y="315" on="0"/>
        <pt x="178" y="280" on="1"/>
      </contour>
    </TTGlyph>
    <TTGlyph name="afii10095" xMin="7" yMin="-10" xMax="442" yMax="480">
      <contour>
        <pt x="260" y="480" on="1"/>
        <pt x="307" y="480" on="0"/>
        <pt x="376" y="452" on="0"/>
        <pt x="421" y="402" on="0"/>
        <pt x="442" y="335" on="0"/>
        <pt x="442" y="295" on="1"/>
        <pt x="442" y="235" on="0"/>
        <pt x="405" y="125" on="0"/>
        <pt x="336" y="40" on="0"/>
        <pt x="237" y="-10" on="0"/>
        <pt x="174" y="-10" on="1"/>
        <pt x="114" y="-10" on="0"/>
        <pt x="31" y="38" on="0"/>
        <pt x="7" y="95" on="1"/>
        <pt x="30" y="110" on="1"/>
        <pt x="50" y="72" on="0"/>
        <pt x="107" y="30" on="0"/>
        <pt x="161" y="30" on="1"/>
        <pt x="195" y="30" on="0"/>
        <pt x="253" y="57" on="0"/>
        <pt x="297" y="105" on="0"/>
        <pt x="329" y="171" on="0"/>
        <pt x="338" y="210" on="1"/>
        <pt x="128" y="210" on="1"/>
        <pt x="135" y="250" on="1"/>
        <pt x="345" y="250" on="1"/>
        <pt x="348" y="272" on="0"/>
        <pt x="348" y="294" on="1"/>
        <pt x="348" y="357" on="0"/>
        <pt x="294" y="440" on="0"/>
        <pt x="233" y="440" on="1"/>
        <pt x="179" y="440" on="0"/>
        <pt x="96" y="379" on="0"/>
        <pt x="81" y="315" on="1"/>
        <pt x="61" y="315" on="1"/>
        <pt x="66" y="343" on="0"/>
        <pt x="74" y="384" on="0"/>
        <pt x="84" y="414" on="0"/>
        <pt x="98" y="436" on="0"/>
        <pt x="109" y="445" on="1"/>
        <pt x="131" y="464" on="0"/>
        <pt x="206" y="480" on="0"/>
      </contour>
    </TTGlyph>
    <TTGlyph name="afii10096" xMin="33" yMin="-10" xMax="646" yMax="480">
      <contour>
        <pt x="478" y="480" on="1"/>
        <pt x="558" y="480" on="0"/>
        <pt x="646" y="380" on="0"/>
        <pt x="646" y="297" on="1"/>
        <pt x="646" y="231" on="0"/>
        <pt x="605" y="118" on="0"/>
        <pt x="536" y="36" on="0"/>
        <pt x="444" y="-10" on="0"/>
        <pt x="392" y="-10" on="1"/>
        <pt x="312" y="-10" on="0"/>
        <pt x="223" y="87" on="0"/>
        <pt x="223" y="170" on="1"/>
        <pt x="223" y="191" on="0"/>
        <pt x="226" y="215" on="1"/>
        <pt x="166" y="215" on="1"/>
        <pt x="129" y="0" on="1"/>
        <pt x="39" y="0" on="1"/>
        <pt x="55" y="91" on="0"/>
        <pt x="77" y="219" on="0"/>
        <pt x="92" y="305" on="0"/>
        <pt x="100" y="355" on="0"/>
        <pt x="104" y="382" on="0"/>
        <pt x="105" y="392" on="0"/>
        <pt x="105" y="395" on="1"/>
        <pt x="105" y="421" on="0"/>
        <pt x="80" y="450" on="0"/>
        <pt x="48" y="450" on="1"/>
        <pt x="33" y="450" on="1"/>
        <pt x="36" y="470" on="1"/>
        <pt x="121" y="470" on="1"/>
        <pt x="161" y="470" on="0"/>
        <pt x="197" y="446" on="0"/>
        <pt x="197" y="409" on="1"/>
        <pt x="197" y="403" on="0"/>
        <pt x="195" y="387" on="0"/>
        <pt x="190" y="355" on="0"/>
        <pt x="181" y="300" on="0"/>
        <pt x="173" y="255" on="1"/>
        <pt x="233" y="255" on="1"/>
        <pt x="244" y="306" on="0"/>
        <pt x="290" y="389" on="0"/>
        <pt x="354" y="448" on="0"/>
        <pt x="433" y="480" on="0"/>
      </contour>
      <contour>
        <pt x="471" y="440" on="1"/>
        <pt x="445" y="440" on="0"/>
        <pt x="391" y="403" on="0"/>
        <pt x="346" y="331" on="0"/>
        <pt x="317" y="224" on="0"/>
        <pt x="317" y="154" on="1"/>
        <pt x="317" y="92" on="0"/>
        <pt x="361" y="30" on="0"/>
        <pt x="399" y="30" on="1"/>
        <pt x="425" y="30" on="0"/>
        <pt x="479" y="66" on="0"/>
        <pt x="524" y="138" on="0"/>
        <pt x="553" y="245" on="0"/>
        <pt x="553" y="315" on="1"/>
        <pt x="553" y="378" on="0"/>
        <pt x="509" y="440" on="0"/>
      </contour>
    </TTGlyph>
    <TTGlyph name="afii10097" xMin="-30" yMin="-10" xMax="527" yMax="470">
      <contour>
        <pt x="375" y="0" on="1"/>
        <pt x="285" y="0" on="1"/>
        <pt x="320" y="200" on="1"/>
        <pt x="242" y="200" on="1"/>
        <pt x="161" y="80" on="1"/>
        <pt x="130" y="34" on="0"/>
        <pt x="65" y="-10" on="0"/>
        <pt x="23" y="-10" on="1"/>
        <pt x="8" y="-10" on="0"/>
        <pt x="-19" y="-4" on="0"/>
        <pt x="-30" y="0" on="1"/>
        <pt x="-27" y="20" on="1"/>
        <pt x="8" y="25" on="0"/>
        <pt x="62" y="73" on="0"/>
        <pt x="82" y="100" on="1"/>
        <pt x="161" y="205" on="1"/>
        <pt x="122" y="212" on="0"/>
        <pt x="66" y="264" on="0"/>
        <pt x="66" y="309" on="1"/>
        <pt x="66" y="356" on="0"/>
        <pt x="105" y="418" on="0"/>
        <pt x="168" y="455" on="0"/>
        <pt x="250" y="470" on="0"/>
        <pt x="292" y="470" on="1"/>
        <pt x="527" y="470" on="1"/>
        <pt x="524" y="450" on="1"/>
        <pt x="479" y="450" on="0"/>
        <pt x="443" y="395" on="0"/>
        <pt x="436" y="350" on="1"/>
      </contour>
      <contour>
        <pt x="359" y="425" on="1"/>
        <pt x="348" y="429" on="0"/>
        <pt x="311" y="435" on="0"/>
        <pt x="296" y="435" on="1"/>
        <pt x="267" y="435" on="0"/>
        <pt x="218" y="421" on="0"/>
        <pt x="182" y="391" on="0"/>
        <pt x="161" y="343" on="0"/>
        <pt x="161" y="310" on="1"/>
        <pt x="161" y="270" on="0"/>
        <pt x="214" y="235" on="0"/>
        <pt x="261" y="235" on="1"/>
        <pt x="276" y="235" on="0"/>
        <pt x="316" y="241" on="0"/>
        <pt x="328" y="245" on="1"/>
      </contour>
    </TTGlyph>
    <TTGlyph name="afii10098" xMin="36" yMin="0" xMax="462" yMax="570">
      <contour>
        <pt x="202" y="430" on="1"/>
        <pt x="127" y="0" on="1"/>
        <pt x="37" y="0" on="1"/>
        <pt x="53" y="91" on="0"/>
        <pt x="75" y="219" on="0"/>
        <pt x="90" y="305" on="0"/>
        <pt x="98" y="355" on="0"/>
        <pt x="102" y="382" on="0"/>
        <pt x="103" y="392" on="0"/>
        <pt x="103" y="395" on="1"/>
        <pt x="103" y="421" on="0"/>
        <pt x="78" y="450" on="0"/>
        <pt x="46" y="450" on="1"/>
        <pt x="36" y="450" on="1"/>
        <pt x="39" y="470" on="1"/>
        <pt x="319" y="470" on="1"/>
        <pt x="364" y="470" on="0"/>
        <pt x="434" y="521" on="0"/>
        <pt x="442" y="570" on="1"/>
        <pt x="462" y="570" on="1"/>
        <pt x="444" y="470" on="1"/>
        <pt x="437" y="430" on="0"/>
        <pt x="397" y="430" on="1"/>
      </contour>
    </TTGlyph>
    <TTGlyph name="afii10099" xMin="24" yMin="-140" xMax="463" yMax="660">
      <contour>
        <pt x="42" y="500" on="1"/>
        <pt x="49" y="540" on="1"/>
        <pt x="119" y="540" on="1"/>
        <pt x="129" y="600" on="1"/>
        <pt x="190" y="660" on="1"/>
        <pt x="230" y="660" on="1"/>
        <pt x="209" y="540" on="1"/>
        <pt x="329" y="540" on="1"/>
        <pt x="322" y="500" on="1"/>
        <pt x="202" y="500" on="1"/>
        <pt x="181" y="380" on="1"/>
        <pt x="203" y="399" on="0"/>
        <pt x="274" y="430" on="0"/>
        <pt x="319" y="430" on="1"/>
        <pt x="347" y="430" on="0"/>
        <pt x="399" y="418" on="0"/>
        <pt x="439" y="389" on="0"/>
        <pt x="463" y="339" on="0"/>
        <pt x="463" y="300" on="1"/>
        <pt x="463" y="294" on="0"/>
        <pt x="461" y="277" on="0"/>
        <pt x="454" y="232" on="0"/>
        <pt x="440" y="147" on="0"/>
        <pt x="427" y="75" on="1"/>
        <pt x="417" y="19" on="0"/>
        <pt x="385" y="-63" on="0"/>
        <pt x="334" y="-115" on="0"/>
        <pt x="258" y="-140" on="0"/>
        <pt x="204" y="-140" on="1"/>
        <pt x="207" y="-120" on="1"/>
        <pt x="255" y="-120" on="0"/>
        <pt x="320" y="-16" on="0"/>
        <pt x="337" y="75" on="1"/>
        <pt x="349" y="146" on="0"/>
        <pt x="363" y="227" on="0"/>
        <pt x="370" y="269" on="0"/>
        <pt x="371" y="283" on="0"/>
        <pt x="371" y="287" on="1"/>
        <pt x="371" y="314" on="0"/>
        <pt x="356" y="351" on="0"/>
        <pt x="331" y="375" on="0"/>
        <pt x="299" y="385" on="0"/>
        <pt x="281" y="385" on="1"/>
        <pt x="251" y="385" on="0"/>
        <pt x="195" y="353" on="0"/>
        <pt x="172" y="332" on="1"/>
        <pt x="114" y="0" on="1"/>
        <pt x="24" y="0" on="1"/>
        <pt x="112" y="500" on="1"/>
      </contour>
    </TTGlyph>
    <TTGlyph name="afii10100" xMin="-8" yMin="-10" xMax="396" yMax="626">
      <component glyphName="afii10068" x="0" y="0" flags="0x204"/>
      <component glyphName="acute.alt1" x="140" y="-189" flags="0x4"/>
    </TTGlyph>
    <TTGlyph name="afii10101" xMin="33" yMin="-10" xMax="455" yMax="480">
      <contour>
        <pt x="302" y="480" on="1"/>
        <pt x="380" y="480" on="0"/>
        <pt x="455" y="446" on="0"/>
        <pt x="455" y="402" on="1"/>
        <pt x="455" y="387" on="0"/>
        <pt x="448" y="345" on="0"/>
        <pt x="443" y="315" on="1"/>
        <pt x="423" y="315" on="1"/>
        <pt x="424" y="321" on="0"/>
        <pt x="424" y="332" on="0"/>
        <pt x="424" y="337" on="1"/>
        <pt x="424" y="390" on="0"/>
        <pt x="363" y="440" on="0"/>
        <pt x="315" y="440" on="1"/>
        <pt x="279" y="440" on="0"/>
        <pt x="221" y="410" on="0"/>
        <pt x="177" y="359" on="0"/>
        <pt x="146" y="289" on="0"/>
        <pt x="137" y="250" on="1"/>
        <pt x="347" y="250" on="1"/>
        <pt x="340" y="210" on="1"/>
        <pt x="130" y="210" on="1"/>
        <pt x="127" y="187" on="0"/>
        <pt x="127" y="168" on="1"/>
        <pt x="127" y="106" on="0"/>
        <pt x="183" y="30" on="0"/>
        <pt x="243" y="30" on="1"/>
        <pt x="296" y="30" on="0"/>
        <pt x="369" y="72" on="0"/>
        <pt x="402" y="110" on="1"/>
        <pt x="419" y="95" on="1"/>
        <pt x="375" y="38" on="0"/>
        <pt x="276" y="-10" on="0"/>
        <pt x="216" y="-10" on="1"/>
        <pt x="169" y="-10" on="0"/>
        <pt x="100" y="18" on="0"/>
        <pt x="55" y="67" on="0"/>
        <pt x="33" y="134" on="0"/>
        <pt x="33" y="174" on="1"/>
        <pt x="33" y="234" on="0"/>
        <pt x="70" y="345" on="0"/>
        <pt x="139" y="430" on="0"/>
        <pt x="239" y="480" on="0"/>
      </contour>
    </TTGlyph>
    <TTGlyph name="afii10102" xMin="17" yMin="-10" xMax="408" yMax="480">
      <component glyphName="s" x="0" y="0" flags="0x204"/>
    </TTGlyph>
    <TTGlyph name="afii10103" xMin="31" yMin="0" xMax="228" yMax="639">
      <component glyphName="i" x="0" y="0" flags="0x204"/>
    </TTGlyph>
    <TTGlyph name="afii10104" xMin="31" yMin="0" xMax="311" yMax="649">
      <component glyphName="idieresis" x="0" y="0" flags="0x204"/>
    </TTGlyph>
    <TTGlyph name="afii10105" xMin="-86" yMin="-190" xMax="228" yMax="639">
      <component glyphName="j" x="0" y="0" flags="0x204"/>
    </TTGlyph>
    <TTGlyph name="afii10106" xMin="-38" yMin="-10" xMax="723" yMax="470">
      <contour>
        <pt x="423" y="45" on="1"/>
        <pt x="434" y="41" on="0"/>
        <pt x="472" y="35" on="0"/>
        <pt x="487" y="35" on="1"/>
        <pt x="517" y="35" on="0"/>
        <pt x="569" y="49" on="0"/>
        <pt x="607" y="81" on="0"/>
        <pt x="628" y="132" on="0"/>
        <pt x="628" y="168" on="1"/>
        <pt x="628" y="210" on="0"/>
        <pt x="574" y="245" on="0"/>
        <pt x="524" y="245" on="1"/>
        <pt x="509" y="245" on="0"/>
        <pt x="469" y="239" on="0"/>
        <pt x="457" y="235" on="1"/>
      </contour>
      <contour>
        <pt x="498" y="470" on="1"/>
        <pt x="465" y="280" on="1"/>
        <pt x="540" y="280" on="1"/>
        <pt x="579" y="280" on="0"/>
        <pt x="646" y="269" on="0"/>
        <pt x="695" y="244" on="0"/>
        <pt x="723" y="201" on="0"/>
        <pt x="723" y="169" on="1"/>
        <pt x="723" y="119" on="0"/>
        <pt x="684" y="54" on="0"/>
        <pt x="620" y="15" on="0"/>
        <pt x="536" y="0" on="0"/>
        <pt x="491" y="0" on="1"/>
        <pt x="414" y="0" on="1"/>
        <pt x="326" y="0" on="1"/>
        <pt x="401" y="430" on="1"/>
        <pt x="236" y="430" on="1"/>
        <pt x="222" y="350" on="1"/>
        <pt x="202" y="237" on="0"/>
        <pt x="152" y="97" on="0"/>
        <pt x="96" y="18" on="0"/>
        <pt x="37" y="-10" on="0"/>
        <pt x="9" y="-10" on="1"/>
        <pt x="1" y="-10" on="0"/>
        <pt x="-30" y="-4" on="0"/>
        <pt x="-38" y="-1" on="1"/>
        <pt x="-34" y="24" on="1"/>
        <pt x="-10" y="24" on="0"/>
        <pt x="41" y="49" on="0"/>
        <pt x="90" y="119" on="0"/>
        <pt x="135" y="247" on="0"/>
        <pt x="153" y="350" on="1"/>
        <pt x="155" y="362" on="0"/>
        <pt x="158" y="384" on="0"/>
        <pt x="158" y="394" on="1"/>
        <pt x="158" y="420" on="0"/>
        <pt x="133" y="450" on="0"/>
        <pt x="100" y="450" on="1"/>
        <pt x="103" y="470" on="1"/>
      </contour>
    </TTGlyph>
    <TTGlyph name="afii10107" xMin="33" yMin="0" xMax="713" yMax="470">
      <contour>
        <pt x="454" y="260" on="1"/>
        <pt x="529" y="260" on="1"/>
        <pt x="568" y="260" on="0"/>
        <pt x="635" y="249" on="0"/>
        <pt x="685" y="225" on="0"/>
        <pt x="713" y="185" on="0"/>
        <pt x="713" y="155" on="1"/>
        <pt x="713" y="110" on="0"/>
        <pt x="675" y="50" on="0"/>
        <pt x="612" y="14" on="0"/>
        <pt x="529" y="0" on="0"/>
        <pt x="484" y="0" on="1"/>
        <pt x="319" y="0" on="1"/>
        <pt x="357" y="220" on="1"/>
        <pt x="167" y="220" on="1"/>
        <pt x="129" y="0" on="1"/>
        <pt x="39" y="0" on="1"/>
        <pt x="55" y="91" on="0"/>
        <pt x="77" y="219" on="0"/>
        <pt x="92" y="305" on="0"/>
        <pt x="100" y="355" on="0"/>
        <pt x="104" y="382" on="0"/>
        <pt x="105" y="392" on="0"/>
        <pt x="105" y="395" on="1"/>
        <pt x="105" y="421" on="0"/>
        <pt x="80" y="450" on="0"/>
        <pt x="48" y="450" on="1"/>
        <pt x="33" y="450" on="1"/>
        <pt x="36" y="470" on="1"/>
        <pt x="121" y="470" on="1"/>
        <pt x="161" y="470" on="0"/>
        <pt x="197" y="446" on="0"/>
        <pt x="197" y="409" on="1"/>
        <pt x="197" y="403" on="0"/>
        <pt x="195" y="387" on="0"/>
        <pt x="191" y="356" on="0"/>
        <pt x="181" y="303" on="0"/>
        <pt x="174" y="260" on="1"/>
        <pt x="364" y="260" on="1"/>
        <pt x="401" y="470" on="1"/>
        <pt x="491" y="470" on="1"/>
      </contour>
      <contour>
        <pt x="416" y="45" on="1"/>
        <pt x="427" y="41" on="0"/>
        <pt x="465" y="35" on="0"/>
        <pt x="480" y="35" on="1"/>
        <pt x="541" y="35" on="0"/>
        <pt x="618" y="92" on="0"/>
        <pt x="618" y="152" on="1"/>
        <pt x="618" y="190" on="0"/>
        <pt x="564" y="225" on="0"/>
        <pt x="513" y="225" on="1"/>
        <pt x="498" y="225" on="0"/>
        <pt x="458" y="219" on="0"/>
        <pt x="446" y="215" on="1"/>
      </contour>
    </TTGlyph>
    <TTGlyph name="afii10108" xMin="24" yMin="0" xMax="463" yMax="660">
      <contour>
        <pt x="202" y="500" on="1"/>
        <pt x="181" y="380" on="1"/>
        <pt x="203" y="399" on="0"/>
        <pt x="274" y="430" on="0"/>
        <pt x="319" y="430" on="1"/>
        <pt x="347" y="430" on="0"/>
        <pt x="399" y="418" on="0"/>
        <pt x="439" y="389" on="0"/>
        <pt x="463" y="339" on="0"/>
        <pt x="463" y="300" on="1"/>
        <pt x="463" y="294" on="0"/>
        <pt x="461" y="275" on="0"/>
        <pt x="451" y="215" on="0"/>
        <pt x="432" y="100" on="0"/>
        <pt x="414" y="0" on="1"/>
        <pt x="324" y="0" on="1"/>
        <pt x="341" y="99" on="0"/>
        <pt x="360" y="210" on="0"/>
        <pt x="369" y="266" on="0"/>
        <pt x="371" y="283" on="0"/>
        <pt x="371" y="287" on="1"/>
        <pt x="371" y="314" on="0"/>
        <pt x="356" y="351" on="0"/>
        <pt x="331" y="375" on="0"/>
        <pt x="299" y="385" on="0"/>
        <pt x="281" y="385" on="1"/>
        <pt x="251" y="385" on="0"/>
        <pt x="195" y="353" on="0"/>
        <pt x="172" y="332" on="1"/>
        <pt x="114" y="0" on="1"/>
        <pt x="24" y="0" on="1"/>
        <pt x="112" y="500" on="1"/>
        <pt x="42" y="500" on="1"/>
        <pt x="49" y="540" on="1"/>
        <pt x="119" y="540" on="1"/>
        <pt x="129" y="600" on="1"/>
        <pt x="190" y="660" on="1"/>
        <pt x="230" y="660" on="1"/>
        <pt x="209" y="540" on="1"/>
        <pt x="329" y="540" on="1"/>
        <pt x="322" y="500" on="1"/>
      </contour>
    </TTGlyph>
    <TTGlyph name="afii10109" xMin="32" yMin="-10" xMax="495" yMax="602">
      <component glyphName="afii10076" x="0" y="0" flags="0x204"/>
      <component glyphName="acute.alt1" x="167" y="-213" flags="0x4"/>
    </TTGlyph>
    <TTGlyph name="afii10110" xMin="17" yMin="-201" xMax="516" yMax="607">
      <component glyphName="y" x="0" y="0" scalex="1.00201416016" scaley="1.00146484375" flags="0x4"/>
      <component glyphName="breve" x="236" y="-9" flags="0x4"/>
    </TTGlyph>
    <TTGlyph name="afii10145" xMin="60" yMin="-175" xMax="656" yMax="660">
      <contour>
        <pt x="244" y="-175" on="1"/>
        <pt x="260" y="0" on="1"/>
        <pt x="60" y="0" on="1"/>
        <pt x="84" y="139" on="0"/>
        <pt x="118" y="332" on="0"/>
        <pt x="140" y="459" on="0"/>
        <pt x="152" y="531" on="0"/>
        <pt x="158" y="568" on="0"/>
        <pt x="159" y="580" on="0"/>
        <pt x="159" y="583" on="1"/>
        <pt x="159" y="609" on="0"/>
        <pt x="135" y="640" on="0"/>
        <pt x="102" y="640" on="1"/>
        <pt x="82" y="640" on="1"/>
        <pt x="86" y="660" on="1"/>
        <pt x="176" y="660" on="1"/>
        <pt x="216" y="660" on="0"/>
        <pt x="251" y="636" on="0"/>
        <pt x="251" y="599" on="1"/>
        <pt x="251" y="595" on="0"/>
        <pt x="250" y="582" on="0"/>
        <pt x="244" y="545" on="0"/>
        <pt x="233" y="475" on="0"/>
        <pt x="212" y="353" on="0"/>
        <pt x="180" y="171" on="0"/>
        <pt x="157" y="40" on="1"/>
        <pt x="457" y="40" on="1"/>
        <pt x="566" y="660" on="1"/>
        <pt x="656" y="660" on="1"/>
        <pt x="540" y="0" on="1"/>
        <pt x="340" y="0" on="1"/>
        <pt x="294" y="-175" on="1"/>
      </contour>
    </TTGlyph>
    <TTGlyph name="afii10193" xMin="33" yMin="-150" xMax="501" yMax="470">
      <contour>
        <pt x="39" y="0" on="1"/>
        <pt x="55" y="91" on="0"/>
        <pt x="77" y="219" on="0"/>
        <pt x="92" y="305" on="0"/>
        <pt x="100" y="355" on="0"/>
        <pt x="104" y="382" on="0"/>
        <pt x="105" y="392" on="0"/>
        <pt x="105" y="395" on="1"/>
        <pt x="105" y="421" on="0"/>
        <pt x="80" y="450" on="0"/>
        <pt x="48" y="450" on="1"/>
        <pt x="33" y="450" on="1"/>
        <pt x="36" y="470" on="1"/>
        <pt x="121" y="470" on="1"/>
        <pt x="161" y="470" on="0"/>
        <pt x="197" y="446" on="0"/>
        <pt x="197" y="409" on="1"/>
        <pt x="197" y="405" on="0"/>
        <pt x="196" y="394" on="0"/>
        <pt x="192" y="368" on="0"/>
        <pt x="184" y="321" on="0"/>
        <pt x="171" y="241" on="0"/>
        <pt x="150" y="123" on="0"/>
        <pt x="136" y="40" on="1"/>
        <pt x="336" y="40" on="1"/>
        <pt x="411" y="470" on="1"/>
        <pt x="501" y="470" on="1"/>
        <pt x="419" y="0" on="1"/>
        <pt x="264" y="0" on="1"/>
        <pt x="222" y="-150" on="1"/>
        <pt x="182" y="-150" on="1"/>
        <pt x="194" y="0" on="1"/>
      </contour>
    </TTGlyph>
    <TTGlyph name="afii61352" xMin="62" yMin="-10" xMax="994" yMax="670">
      <contour>
        <pt x="926" y="310" on="1"/>
        <pt x="686" y="310" on="1"/>
        <pt x="693" y="350" on="1"/>
        <pt x="933" y="350" on="1"/>
      </contour>
      <contour>
        <pt x="62" y="0" on="1"/>
        <pt x="86" y="138" on="0"/>
        <pt x="120" y="328" on="0"/>
        <pt x="141" y="453" on="0"/>
        <pt x="153" y="523" on="0"/>
        <pt x="159" y="558" on="0"/>
        <pt x="160" y="568" on="0"/>
        <pt x="160" y="571" on="1"/>
        <pt x="160" y="603" on="0"/>
        <pt x="126" y="640" on="0"/>
        <pt x="84" y="640" on="1"/>
        <pt x="74" y="640" on="1"/>
        <pt x="78" y="660" on="1"/>
        <pt x="143" y="660" on="1"/>
        <pt x="191" y="660" on="0"/>
        <pt x="249" y="628" on="0"/>
        <pt x="267" y="600" on="1"/>
        <pt x="541" y="165" on="1"/>
        <pt x="628" y="660" on="1"/>
        <pt x="668" y="660" on="1"/>
        <pt x="550" y="-10" on="1"/>
        <pt x="530" y="-10" on="1"/>
        <pt x="194" y="525" on="1"/>
        <pt x="102" y="0" on="1"/>
      </contour>
      <contour>
        <pt x="828" y="435" on="1"/>
        <pt x="854" y="435" on="0"/>
        <pt x="894" y="457" on="0"/>
        <pt x="921" y="493" on="0"/>
        <pt x="934" y="540" on="0"/>
        <pt x="934" y="566" on="1"/>
        <pt x="934" y="635" on="0"/>
        <pt x="863" y="635" on="1"/>
        <pt x="817" y="635" on="0"/>
        <pt x="758" y="569" on="0"/>
        <pt x="758" y="503" on="1"/>
        <pt x="758" y="435" on="0"/>
      </contour>
      <contour>
        <pt x="994" y="566" on="1"/>
        <pt x="994" y="531" on="0"/>
        <pt x="968" y="471" on="0"/>
        <pt x="923" y="426" on="0"/>
        <pt x="859" y="400" on="0"/>
        <pt x="822" y="400" on="1"/>
        <pt x="762" y="400" on="0"/>
        <pt x="698" y="454" on="0"/>
        <pt x="698" y="504" on="1"/>
        <pt x="698" y="543" on="0"/>
        <pt x="724" y="604" on="0"/>
        <pt x="770" y="647" on="0"/>
        <pt x="833" y="670" on="0"/>
        <pt x="870" y="670" on="1"/>
        <pt x="930" y="670" on="0"/>
        <pt x="994" y="616" on="0"/>
      </contour>
    </TTGlyph>
    <TTGlyph name="agrave" xMin="32" yMin="-10" xMax="486" yMax="655">
      <component glyphName="a" x="0" y="0" flags="0x204"/>
      <component glyphName="grave.alt1" x="155" y="0" flags="0x4"/>
    </TTGlyph>
    <TTGlyph name="ampersand" xMin="15" yMin="-20" xMax="584" yMax="680">
      <contour>
        <pt x="15" y="112" on="1"/>
        <pt x="15" y="149" on="0"/>
        <pt x="47" y="209" on="0"/>
        <pt x="98" y="261" on="0"/>
        <pt x="162" y="305" on="0"/>
        <pt x="194" y="326" on="1"/>
        <pt x="174" y="346" on="0"/>
        <pt x="158" y="372" on="1"/>
        <pt x="144" y="394" on="0"/>
        <pt x="123" y="454" on="0"/>
        <pt x="123" y="490" on="1"/>
        <pt x="123" y="532" on="0"/>
        <pt x="156" y="601" on="0"/>
        <pt x="213" y="652" on="0"/>
        <pt x="289" y="680" on="0"/>
        <pt x="333" y="680" on="1"/>
        <pt x="403" y="680" on="0"/>
        <pt x="476" y="617" on="0"/>
        <pt x="476" y="566" on="1"/>
        <pt x="476" y="526" on="0"/>
        <pt x="443" y="461" on="0"/>
        <pt x="390" y="406" on="0"/>
        <pt x="325" y="360" on="0"/>
        <pt x="292" y="340" on="1"/>
        <pt x="455" y="120" on="1"/>
        <pt x="480" y="143" on="0"/>
        <pt x="521" y="187" on="0"/>
        <pt x="536" y="205" on="1"/>
        <pt x="554" y="226" on="0"/>
        <pt x="567" y="245" on="1"/>
        <pt x="584" y="230" on="1"/>
        <pt x="571" y="210" on="0"/>
        <pt x="554" y="188" on="1"/>
        <pt x="540" y="169" on="0"/>
        <pt x="498" y="121" on="0"/>
        <pt x="472" y="97" on="1"/>
        <pt x="544" y="0" on="1"/>
        <pt x="434" y="0" on="1"/>
        <pt x="401" y="43" on="1"/>
        <pt x="360" y="16" on="0"/>
        <pt x="260" y="-20" on="0"/>
        <pt x="200" y="-20" on="1"/>
        <pt x="106" y="-20" on="0"/>
        <pt x="15" y="55" on="0"/>
      </contour>
      <contour>
        <pt x="225" y="15" on="1"/>
        <pt x="271" y="15" on="0"/>
        <pt x="350" y="43" on="0"/>
        <pt x="384" y="66" on="1"/>
        <pt x="218" y="291" on="1"/>
        <pt x="174" y="259" on="0"/>
        <pt x="111" y="170" on="0"/>
        <pt x="111" y="112" on="1"/>
        <pt x="111" y="15" on="0"/>
      </contour>
      <contour>
        <pt x="327" y="645" on="1"/>
        <pt x="301" y="645" on="0"/>
        <pt x="261" y="618" on="0"/>
        <pt x="234" y="575" on="0"/>
        <pt x="219" y="523" on="0"/>
        <pt x="219" y="498" on="1"/>
        <pt x="219" y="473" on="0"/>
        <pt x="233" y="430" on="0"/>
        <pt x="250" y="397" on="0"/>
        <pt x="266" y="377" on="0"/>
        <pt x="268" y="375" on="1"/>
        <pt x="291" y="392" on="0"/>
        <pt x="335" y="431" on="0"/>
        <pt x="369" y="477" on="0"/>
        <pt x="390" y="532" on="0"/>
        <pt x="390" y="564" on="1"/>
        <pt x="390" y="586" on="0"/>
        <pt x="379" y="617" on="0"/>
        <pt x="361" y="636" on="0"/>
        <pt x="338" y="645" on="0"/>
      </contour>
    </TTGlyph>
    <TTGlyph name="aring" xMin="32" yMin="-10" xMax="486" yMax="700">
      <component glyphName="a" x="0" y="0" flags="0x204"/>
      <component glyphName="ring" x="141" y="0" flags="0x4"/>
    </TTGlyph>
    <TTGlyph name="asciicircum" xMin="38" yMin="330" xMax="488" yMax="680">
      <contour>
        <pt x="314" y="680" on="1"/>
        <pt x="334" y="680" on="1"/>
        <pt x="488" y="330" on="1"/>
        <pt x="421" y="330" on="1"/>
        <pt x="308" y="587" on="1"/>
        <pt x="105" y="330" on="1"/>
        <pt x="38" y="330" on="1"/>
      </contour>
    </TTGlyph>
    <TTGlyph name="asciitilde" xMin="46" yMin="180" xMax="579" yMax="330">
      <contour>
        <pt x="434" y="180" on="1"/>
        <pt x="396" y="180" on="0"/>
        <pt x="330" y="205" on="0"/>
        <pt x="267" y="235" on="0"/>
        <pt x="208" y="260" on="0"/>
        <pt x="178" y="260" on="1"/>
        <pt x="140" y="260" on="0"/>
        <pt x="91" y="220" on="0"/>
        <pt x="86" y="190" on="1"/>
        <pt x="46" y="190" on="1"/>
        <pt x="53" y="227" on="0"/>
        <pt x="83" y="281" on="0"/>
        <pt x="123" y="314" on="0"/>
        <pt x="168" y="330" on="0"/>
        <pt x="191" y="330" on="1"/>
        <pt x="228" y="330" on="0"/>
        <pt x="295" y="305" on="0"/>
        <pt x="358" y="275" on="0"/>
        <pt x="417" y="250" on="0"/>
        <pt x="447" y="250" on="1"/>
        <pt x="485" y="250" on="0"/>
        <pt x="534" y="290" on="0"/>
        <pt x="539" y="320" on="1"/>
        <pt x="579" y="320" on="1"/>
        <pt x="572" y="282" on="0"/>
        <pt x="542" y="229" on="0"/>
        <pt x="502" y="196" on="0"/>
        <pt x="456" y="180" on="0"/>
      </contour>
    </TTGlyph>
    <TTGlyph name="asterisk" xMin="76" yMin="330" xMax="424" yMax="660">
      <contour>
        <pt x="239" y="660" on="1"/>
        <pt x="319" y="660" on="1"/>
        <pt x="262" y="510" on="1"/>
        <pt x="396" y="615" on="1"/>
        <pt x="424" y="545" on="1"/>
        <pt x="270" y="495" on="1"/>
        <pt x="406" y="445" on="1"/>
        <pt x="354" y="375" on="1"/>
        <pt x="257" y="480" on="1"/>
        <pt x="261" y="330" on="1"/>
        <pt x="181" y="330" on="1"/>
        <pt x="237" y="480" on="1"/>
        <pt x="104" y="375" on="1"/>
        <pt x="76" y="445" on="1"/>
        <pt x="230" y="495" on="1"/>
        <pt x="94" y="545" on="1"/>
        <pt x="146" y="615" on="1"/>
        <pt x="242" y="510" on="1"/>
      </contour>
    </TTGlyph>
    <TTGlyph name="at" xMin="25" yMin="-180" xMax="827" yMax="680">
      <contour>
        <pt x="427" y="490" on="1"/>
        <pt x="479" y="490" on="0"/>
        <pt x="531" y="454" on="0"/>
        <pt x="542" y="435" on="1"/>
        <pt x="547" y="435" on="1"/>
        <pt x="590" y="480" on="1"/>
        <pt x="640" y="480" on="1"/>
        <pt x="574" y="105" on="1"/>
        <pt x="573" y="100" on="0"/>
        <pt x="573" y="90" on="1"/>
        <pt x="573" y="72" on="0"/>
        <pt x="591" y="45" on="0"/>
        <pt x="613" y="45" on="1"/>
        <pt x="643" y="45" on="0"/>
        <pt x="693" y="78" on="0"/>
        <pt x="731" y="132" on="0"/>
        <pt x="759" y="200" on="0"/>
        <pt x="777" y="270" on="0"/>
        <pt x="786" y="337" on="0"/>
        <pt x="786" y="362" on="1"/>
        <pt x="786" y="430" on="0"/>
        <pt x="745" y="534" on="0"/>
        <pt x="669" y="604" on="0"/>
        <pt x="561" y="640" on="0"/>
        <pt x="493" y="640" on="1"/>
        <pt x="390" y="640" on="0"/>
        <pt x="231" y="556" on="0"/>
        <pt x="122" y="417" on="0"/>
        <pt x="65" y="239" on="0"/>
        <pt x="65" y="145" on="1"/>
        <pt x="65" y="74" on="0"/>
        <pt x="106" y="-33" on="0"/>
        <pt x="181" y="-104" on="0"/>
        <pt x="289" y="-140" on="0"/>
        <pt x="356" y="-140" on="1"/>
        <pt x="454" y="-140" on="0"/>
        <pt x="613" y="-97" on="0"/>
        <pt x="681" y="-55" on="1"/>
        <pt x="696" y="-85" on="1"/>
        <pt x="628" y="-127" on="0"/>
        <pt x="458" y="-180" on="0"/>
        <pt x="349" y="-180" on="1"/>
        <pt x="275" y="-180" on="0"/>
        <pt x="155" y="-139" on="0"/>
        <pt x="71" y="-58" on="0"/>
        <pt x="25" y="62" on="0"/>
        <pt x="25" y="140" on="1"/>
        <pt x="25" y="206" on="0"/>
        <pt x="53" y="337" on="0"/>
        <pt x="107" y="457" on="0"/>
        <pt x="188" y="561" on="0"/>
        <pt x="293" y="637" on="0"/>
        <pt x="423" y="680" on="0"/>
        <pt x="500" y="680" on="1"/>
        <pt x="575" y="680" on="0"/>
        <pt x="696" y="638" on="0"/>
        <pt x="781" y="559" on="0"/>
        <pt x="827" y="442" on="0"/>
        <pt x="827" y="367" on="1"/>
        <pt x="827" y="331" on="0"/>
        <pt x="816" y="249" on="0"/>
        <pt x="792" y="168" on="0"/>
        <pt x="753" y="95" on="0"/>
        <pt x="697" y="38" on="0"/>
        <pt x="623" y="5" on="0"/>
        <pt x="576" y="5" on="1"/>
        <pt x="534" y="5" on="0"/>
        <pt x="491" y="32" on="0"/>
        <pt x="480" y="55" on="1"/>
        <pt x="475" y="55" on="1"/>
        <pt x="457" y="36" on="0"/>
        <pt x="392" y="0" on="0"/>
        <pt x="336" y="0" on="1"/>
        <pt x="297" y="0" on="0"/>
        <pt x="240" y="27" on="0"/>
        <pt x="204" y="73" on="0"/>
        <pt x="186" y="137" on="0"/>
        <pt x="186" y="173" on="1"/>
        <pt x="186" y="221" on="0"/>
        <pt x="217" y="332" on="0"/>
        <pt x="277" y="427" on="0"/>
        <pt x="367" y="490" on="0"/>
      </contour>
      <contour>
        <pt x="450" y="450" on="1"/>
        <pt x="405" y="450" on="0"/>
        <pt x="340" y="390" on="0"/>
        <pt x="299" y="303" on="0"/>
        <pt x="280" y="204" on="0"/>
        <pt x="280" y="166" on="1"/>
        <pt x="280" y="111" on="0"/>
        <pt x="321" y="40" on="0"/>
        <pt x="368" y="40" on="1"/>
        <pt x="390" y="40" on="0"/>
        <pt x="425" y="52" on="0"/>
        <pt x="453" y="71" on="0"/>
        <pt x="475" y="94" on="0"/>
        <pt x="484" y="105" on="1"/>
        <pt x="534" y="390" on="1"/>
        <pt x="529" y="401" on="0"/>
        <pt x="515" y="423" on="0"/>
        <pt x="496" y="440" on="0"/>
        <pt x="469" y="450" on="0"/>
      </contour>
    </TTGlyph>
    <TTGlyph name="atilde" xMin="32" yMin="-10" xMax="486" yMax="631">
      <component glyphName="a" x="0" y="0" flags="0x204"/>
      <component glyphName="tilde" x="98" y="-144" flags="0x4"/>
    </TTGlyph>
    <TTGlyph name="b" xMin="25" yMin="-10" xMax="478" yMax="660">
      <contour>
        <pt x="130" y="90" on="1"/>
        <pt x="141" y="67" on="0"/>
        <pt x="184" y="30" on="0"/>
        <pt x="225" y="30" on="1"/>
        <pt x="254" y="30" on="0"/>
        <pt x="300" y="58" on="0"/>
        <pt x="335" y="104" on="0"/>
        <pt x="360" y="164" on="0"/>
        <pt x="376" y="226" on="0"/>
        <pt x="383" y="287" on="0"/>
        <pt x="383" y="311" on="1"/>
        <pt x="383" y="368" on="0"/>
        <pt x="339" y="440" on="0"/>
        <pt x="287" y="440" on="1"/>
        <pt x="264" y="440" on="0"/>
        <pt x="211" y="421" on="0"/>
        <pt x="187" y="410" on="1"/>
      </contour>
      <contour>
        <pt x="25" y="0" on="1"/>
        <pt x="49" y="139" on="0"/>
        <pt x="83" y="332" on="0"/>
        <pt x="105" y="459" on="0"/>
        <pt x="117" y="531" on="0"/>
        <pt x="123" y="568" on="0"/>
        <pt x="124" y="580" on="0"/>
        <pt x="124" y="583" on="1"/>
        <pt x="124" y="609" on="0"/>
        <pt x="100" y="640" on="0"/>
        <pt x="67" y="640" on="1"/>
        <pt x="47" y="640" on="1"/>
        <pt x="51" y="660" on="1"/>
        <pt x="141" y="660" on="1"/>
        <pt x="181" y="660" on="0"/>
        <pt x="216" y="637" on="0"/>
        <pt x="216" y="599" on="1"/>
        <pt x="216" y="576" on="0"/>
        <pt x="210" y="540" on="1"/>
        <pt x="194" y="450" on="1"/>
        <pt x="218" y="461" on="0"/>
        <pt x="282" y="480" on="0"/>
        <pt x="324" y="480" on="1"/>
        <pt x="364" y="480" on="0"/>
        <pt x="422" y="454" on="0"/>
        <pt x="460" y="407" on="0"/>
        <pt x="478" y="343" on="0"/>
        <pt x="478" y="305" on="1"/>
        <pt x="478" y="274" on="0"/>
        <pt x="466" y="203" on="0"/>
        <pt x="441" y="133" on="0"/>
        <pt x="403" y="69" on="0"/>
        <pt x="352" y="19" on="0"/>
        <pt x="287" y="-10" on="0"/>
        <pt x="248" y="-10" on="1"/>
        <pt x="192" y="-10" on="0"/>
        <pt x="134" y="26" on="0"/>
        <pt x="122" y="45" on="1"/>
        <pt x="117" y="45" on="1"/>
        <pt x="75" y="0" on="1"/>
      </contour>
    </TTGlyph>
    <TTGlyph name="backslash" xMin="90" yMin="0" xMax="368" yMax="660">
      <contour>
        <pt x="295" y="0" on="1"/>
        <pt x="90" y="660" on="1"/>
        <pt x="163" y="660" on="1"/>
        <pt x="368" y="0" on="1"/>
      </contour>
    </TTGlyph>
    <TTGlyph name="bar" xMin="-6" yMin="-190" xMax="237" yMax="680">
      <contour>
        <pt x="237" y="680" on="1"/>
        <pt x="84" y="-190" on="1"/>
        <pt x="-6" y="-190" on="1"/>
        <pt x="147" y="680" on="1"/>
      </contour>
    </TTGlyph>
    <TTGlyph name="braceleft" xMin="1" yMin="-210" xMax="348" yMax="690">
      <contour>
        <pt x="6" y="255" on="1"/>
        <pt x="64" y="263" on="0"/>
        <pt x="119" y="328" on="0"/>
        <pt x="127" y="370" on="1"/>
        <pt x="151" y="510" on="1"/>
        <pt x="163" y="578" on="0"/>
        <pt x="254" y="667" on="0"/>
        <pt x="348" y="690" on="1"/>
        <pt x="343" y="660" on="1"/>
        <pt x="315" y="652" on="0"/>
        <pt x="279" y="633" on="0"/>
        <pt x="255" y="607" on="0"/>
        <pt x="242" y="572" on="0"/>
        <pt x="238" y="550" on="1"/>
        <pt x="209" y="380" on="1"/>
        <pt x="198" y="320" on="0"/>
        <pt x="134" y="255" on="0"/>
        <pt x="79" y="240" on="1"/>
        <pt x="121" y="227" on="0"/>
        <pt x="163" y="179" on="0"/>
        <pt x="163" y="137" on="1"/>
        <pt x="163" y="107" on="0"/>
        <pt x="151" y="47" on="0"/>
        <pt x="138" y="-13" on="0"/>
        <pt x="126" y="-74" on="0"/>
        <pt x="126" y="-105" on="1"/>
        <pt x="126" y="-134" on="0"/>
        <pt x="155" y="-168" on="0"/>
        <pt x="195" y="-180" on="1"/>
        <pt x="189" y="-210" on="1"/>
        <pt x="116" y="-191" on="0"/>
        <pt x="52" y="-121" on="0"/>
        <pt x="52" y="-69" on="1"/>
        <pt x="52" y="-44" on="0"/>
        <pt x="62" y="6" on="0"/>
        <pt x="74" y="56" on="0"/>
        <pt x="84" y="109" on="0"/>
        <pt x="84" y="137" on="1"/>
        <pt x="84" y="169" on="0"/>
        <pt x="47" y="219" on="0"/>
        <pt x="1" y="225" on="1"/>
      </contour>
    </TTGlyph>
    <TTGlyph name="braceright" xMin="-57" yMin="-210" xMax="289" yMax="690">
      <contour>
        <pt x="284" y="225" on="1"/>
        <pt x="226" y="217" on="0"/>
        <pt x="172" y="152" on="0"/>
        <pt x="164" y="110" on="1"/>
        <pt x="139" y="-30" on="1"/>
        <pt x="127" y="-98" on="0"/>
        <pt x="37" y="-187" on="0"/>
        <pt x="-57" y="-210" on="1"/>
        <pt x="-51" y="-180" on="1"/>
        <pt x="-24" y="-173" on="0"/>
        <pt x="12" y="-153" on="0"/>
        <pt x="35" y="-127" on="0"/>
        <pt x="48" y="-93" on="0"/>
        <pt x="52" y="-70" on="1"/>
        <pt x="82" y="100" on="1"/>
        <pt x="93" y="160" on="0"/>
        <pt x="156" y="225" on="0"/>
        <pt x="212" y="240" on="1"/>
        <pt x="170" y="253" on="0"/>
        <pt x="128" y="300" on="0"/>
        <pt x="128" y="342" on="1"/>
        <pt x="128" y="372" on="0"/>
        <pt x="140" y="432" on="0"/>
        <pt x="153" y="492" on="0"/>
        <pt x="165" y="554" on="0"/>
        <pt x="165" y="586" on="1"/>
        <pt x="165" y="614" on="0"/>
        <pt x="134" y="648" on="0"/>
        <pt x="96" y="660" on="1"/>
        <pt x="101" y="690" on="1"/>
        <pt x="174" y="671" on="0"/>
        <pt x="238" y="600" on="0"/>
        <pt x="238" y="549" on="1"/>
        <pt x="238" y="523" on="0"/>
        <pt x="228" y="472" on="0"/>
        <pt x="217" y="421" on="0"/>
        <pt x="207" y="369" on="0"/>
        <pt x="207" y="342" on="1"/>
        <pt x="207" y="310" on="0"/>
        <pt x="244" y="261" on="0"/>
        <pt x="289" y="255" on="1"/>
      </contour>
    </TTGlyph>
    <TTGlyph name="bracketleft" xMin="-8" yMin="-200" xMax="362" yMax="680">
      <contour>
        <pt x="207" y="-200" on="1"/>
        <pt x="75" y="-200" on="1"/>
        <pt x="-8" y="-200" on="1"/>
        <pt x="147" y="680" on="1"/>
        <pt x="362" y="680" on="1"/>
        <pt x="355" y="640" on="1"/>
        <pt x="220" y="640" on="1"/>
        <pt x="79" y="-160" on="1"/>
        <pt x="214" y="-160" on="1"/>
      </contour>
    </TTGlyph>
    <TTGlyph name="bracketright" xMin="-57" yMin="-200" xMax="312" yMax="680">
      <contour>
        <pt x="-50" y="-160" on="1"/>
        <pt x="84" y="-160" on="1"/>
        <pt x="225" y="640" on="1"/>
        <pt x="90" y="640" on="1"/>
        <pt x="97" y="680" on="1"/>
        <pt x="312" y="680" on="1"/>
        <pt x="157" y="-200" on="1"/>
        <pt x="76" y="-200" on="1"/>
        <pt x="-57" y="-200" on="1"/>
      </contour>
    </TTGlyph>
    <TTGlyph name="breve" xMin="-14" yMin="521" xMax="246" yMax="616">
      <contour>
        <pt x="112" y="576" on="1"/>
        <pt x="154" y="576" on="0"/>
        <pt x="207" y="597" on="0"/>
        <pt x="229" y="616" on="1"/>
        <pt x="246" y="601" on="1"/>
        <pt x="222" y="567" on="0"/>
        <pt x="151" y="521" on="0"/>
        <pt x="102" y="521" on="1"/>
        <pt x="53" y="521" on="0"/>
        <pt x="0" y="567" on="0"/>
        <pt x="-14" y="601" on="1"/>
        <pt x="9" y="616" on="1"/>
        <pt x="25" y="597" on="0"/>
        <pt x="70" y="576" on="0"/>
      </contour>
    </TTGlyph>
    <TTGlyph name="brokenbar" xMin="-3" yMin="-190" xMax="240" yMax="680">
      <contour>
        <pt x="240" y="680" on="1"/>
        <pt x="179" y="330" on="1"/>
        <pt x="89" y="330" on="1"/>
        <pt x="150" y="680" on="1"/>
      </contour>
      <contour>
        <pt x="149" y="160" on="1"/>
        <pt x="87" y="-190" on="1"/>
        <pt x="-3" y="-190" on="1"/>
        <pt x="59" y="160" on="1"/>
      </contour>
    </TTGlyph>
</ttFont>
